SplineFontDB: 3.0
FontName: Experiment-Tamil-Bold
FullName: Experiment-Tamil
FamilyName: Experiemnt-Tamil
Weight: Bold
Copyright: 
Version: 
ItalicAngle: 0
UnderlinePosition: -99
UnderlineWidth: 23
Ascent: 750
Descent: 250
InvalidEm: 0
LayerCount: 4
Layer: 0 0 "Back" 1
Layer: 1 0 "Fore" 0
Layer: 2 0 "bold" 1
Layer: 3 0 "Back 3" 1
PreferredKerning: 4
XUID: [1021 779 -1439063335 605102]
StyleMap: 0x0040
FSType: 0
OS2Version: 3
OS2_WeightWidthSlopeOnly: 0
OS2_UseTypoMetrics: 0
CreationTime: 1316601550
ModificationTime: 1465792851
PfmFamily: 17
TTFWeight: 400
TTFWidth: 5
LineGap: 0
VLineGap: 0
Panose: 2 0 6 0 0 0 0 0 0 0
OS2TypoAscent: 1367
OS2TypoAOffset: 0
OS2TypoDescent: -633
OS2TypoDOffset: 0
OS2TypoLinegap: 20
OS2WinAscent: 846
OS2WinAOffset: 0
OS2WinDescent: 354
OS2WinDOffset: 0
HheadAscent: 846
HheadAOffset: 0
HheadDescent: -371
HheadDOffset: 0
OS2SubXSize: 841
OS2SubYSize: 780
OS2SubXOff: 0
OS2SubYOff: 240
OS2SupXSize: 841
OS2SupYSize: 780
OS2SupXOff: 0
OS2SupYOff: 601
OS2StrikeYSize: 60
OS2StrikeYPos: 300
OS2CapHeight: -1
OS2XHeight: -1
OS2Vendor: 'ACE '
OS2CodePages: 00000001.00000000
OS2UnicodeRanges: 80108003.00002042.00000000.00000000
Lookup: 4 0 0 "'akhn' Akhand lookup 0" { "'akhn' Akhand lookup 0 subtable"  } ['akhn' ('taml' <'dflt' > 'tml2' <'dflt' > ) ]
Lookup: 4 0 0 "'abvs' Above Base Substitutions lookup 1" { "'abvs' Above Base Substitutions lookup 1 subtable"  } ['abvs' ('taml' <'dflt' > 'tml2' <'dflt' > ) ]
Lookup: 6 0 0 "'abvs' Above Base Substitutions lookup 2" { "'abvs' Above Base Substitutions lookup 2 subtable"  } ['abvs' ('taml' <'dflt' > 'tml2' <'dflt' > ) ]
Lookup: 4 0 0 "'psts' Post Base Substitutions lookup 3" { "'psts' Post Base Substitutions lookup 3 subtable"  } ['psts' ('taml' <'dflt' > 'tml2' <'dflt' > ) ]
Lookup: 4 0 0 "'psts' Post Base Substitutions lookup 4" { "'psts' Post Base Substitutions lookup 4 subtable"  } ['psts' ('taml' <'dflt' > 'tml2' <'dflt' > ) ]

StartChar: tml_A
Encoding: 258 2949 2
GlifName: tml_A_
Width: 1254
VWidth: 0
Flags: HW
LayerCount: 4
Back
SplineSet
1074 -178 m 1
 1074 554 l 1
 1099.76269531 556.639648438 1149.421875 561.139648438 1164 561 c 1
 1164 -170 l 1
 1137.05273438 -174.466796875 1103.48357492 -177.713867188 1074 -178 c 1
65 44 m 0
 63.988896343 120.572385419 131.470703125 157.276367188 215 157 c 0
 354.900390625 157.120117188 967.087890625 155.921875 1084 174 c 1
 1080 103 l 1
 225 103 l 2
 172.419921875 103.428710938 127.768554688 90.08984375 128 48 c 0
 128.387695312 -22.4970703125 270.102539062 -80 447 -80 c 0
 707.017578125 -80 823 82.2582826896 823 266 c 0
 823 445.141354616 704.762695312 511.34375 604 512 c 0
 489.3671875 512.74609375 424.742957293 457.550378656 423 370 c 0
 422.250149474 325.992013127 455.58984375 294.95703125 501 295 c 0
 538.3359375 295.041992188 571.442382812 319.521484375 572 357 c 4
 573.317382812 450.852539062 498.786827739 470.407267782 442 477 c 1
 489 505 l 1
 549.825505247 500.643445979 645 459.742224092 645 360 c 0
 645 296.996354167 596.001953125 231.348632812 506 231 c 0
 426.141601562 230.705078125 366.926894046 287.589124213 368 370 c 0
 369.48828125 484.294921875 470.762432189 571.058960848 609 572 c 0
 755.737666189 572.998902767 910 469.524172936 910 253 c 0
 910 68.8502096933 764.748046875 -139 451 -139 c 0
 194.157226562 -139 66.1736234388 -44.8802504797 65 44 c 0
EndSplineSet
Fore
SplineSet
1074 -178 m 1
 1074 554 l 1
 1099.76269531 556.639648438 1149.421875 561.139648438 1164 561 c 1
 1164 -170 l 1
 1137.05273438 -174.466796875 1103.48357492 -177.713867188 1074 -178 c 1
65 44 m 0
 63.988896343 120.572385419 131.470703125 157.276367188 215 157 c 0
 354.900390625 157.120117188 967.087890625 155.921875 1084 174 c 1
 1080 103 l 1
 225 103 l 2
 172.419921875 103.428710938 127.768554688 90.08984375 128 48 c 0
 128.387695312 -22.4970703125 270.102539062 -80 447 -80 c 0
 707.017578125 -80 823 82.2582826896 823 266 c 0
 823 445.141354616 704.762695312 511.34375 604 512 c 0
 489.3671875 512.74609375 424.742957293 457.550378656 423 370 c 0
 422.250149474 325.992013127 455.58984375 294.95703125 501 295 c 0
 538.3359375 295.041992188 571.442382812 319.521484375 572 357 c 4
 573.317382812 450.852539062 498.786827739 470.407267782 442 477 c 1
 489 505 l 1
 549.825505247 500.643445979 645 459.742224092 645 360 c 0
 645 296.996354167 596.001953125 231.348632812 506 231 c 0
 426.141601562 230.705078125 366.926894046 287.589124213 368 370 c 0
 369.48828125 484.294921875 470.762432189 571.058960848 609 572 c 0
 755.737666189 572.998902767 910 469.524172936 910 253 c 0
 910 68.8502096933 764.748046875 -139 451 -139 c 0
 194.157226562 -139 66.1736234388 -44.8802504797 65 44 c 0
EndSplineSet
Colour: ffffff
EndChar

StartChar: tml_Aa
Encoding: 259 2950 3
GlifName: tml_A_a
Width: 1559
VWidth: 0
Flags: HW
LayerCount: 4
Back
SplineSet
744 -256.4765625 m 0
 744.547851562 -175.34765625 823.382211363 -142.03362015 912 -140.982421875 c 0
 941.63738949 -140.757740673 974.340588826 -144.104175567 1001 -151 c 1
 1002.90789474 -173.042557285 996.375 -187.435087019 986 -199 c 1
 967.276113869 -191.620679846 936.703997461 -188.310198825 911 -188.526367188 c 0
 849.155821742 -189.418990689 795 -202.337890625 795 -249 c 0
 795 -308.193359375 935.481445312 -347.458984375 1076 -346.868164062 c 4
 1327.98046875 -345.526367188 1410.59277344 -217.161132812 1411 -87 c 0
 1411.21846957 -17.1709447591 1375.89746094 23.7451171875 1320 24 c 0
 1260.02944306 24.2734554301 1189.23535156 -17.5810546875 1185 -110 c 1
 1162 -52 l 1
 1165.0546875 24.408203125 1251.21875 91.212890625 1339 91 c 0
 1435.29199219 90.7607421875 1511 26.736328125 1511 -85 c 0
 1511 -288.879882812 1315.09765625 -401.732421875 1078 -404.15234375 c 0
 907.1796875 -405.583007812 743.215820312 -354.926757812 744 -256.4765625 c 0
EndSplineSet
Refer: 2 2949 N 1 0 0 1 30 0 2
Fore
SplineSet
744 -256.4765625 m 0
 744.547851562 -175.34765625 823.382211363 -142.03362015 912 -140.982421875 c 0
 941.63738949 -140.757740673 974.340588826 -144.104175567 1001 -151 c 1
 1002.90789474 -173.042557285 996.375 -187.435087019 986 -199 c 1
 967.276113869 -191.620679846 936.703997461 -188.310198825 911 -188.526367188 c 0
 849.155821742 -189.418990689 795 -202.337890625 795 -249 c 0
 795 -308.193359375 935.481445312 -347.458984375 1076 -346.868164062 c 4
 1327.98046875 -345.526367188 1410.59277344 -217.161132812 1411 -87 c 0
 1411.21846957 -17.1709447591 1375.89746094 23.7451171875 1320 24 c 0
 1260.02944306 24.2734554301 1189.23535156 -17.5810546875 1185 -110 c 1
 1162 -52 l 1
 1165.0546875 24.408203125 1251.21875 91.212890625 1339 91 c 0
 1435.29199219 90.7607421875 1511 26.736328125 1511 -85 c 0
 1511 -288.879882812 1315.09765625 -401.732421875 1078 -404.15234375 c 0
 907.1796875 -405.583007812 743.215820312 -354.926757812 744 -256.4765625 c 0
EndSplineSet
Refer: 2 2949 N 1 0 0 1 30 0 2
Colour: ffffff
EndChar

StartChar: tml_I
Encoding: 260 2951 4
GlifName: tml_I_
Width: 1223
VWidth: 0
Flags: HW
LayerCount: 4
Back
SplineSet
135 -156 m 0
 133.077941914 -260.860633635 220.285527396 -304.651637038 314 -305 c 0
 621.685048116 -306.094105046 843 -6.6805146431 843 214 c 0
 843 400.446174653 722.083168529 513 583 513 c 0
 463.043868216 513 393.118259562 427.285806039 394 341 c 0
 394.713280395 271.199442863 447.035472071 208.531778531 531 210 c 0
 610.451969813 211.419743203 672.384597983 262.684463488 672 352 c 0
 671.402531829 421.124951666 626.153263877 461.563300979 550 481 c 1
 543 461 l 1
 572.17535486 444.939075417 600 408.113575604 600 360 c 0
 600 323.771928266 569.537765942 285.917260978 524 286 c 0
 482.709429572 286.064453125 453.855564537 311.158159084 453 354 c 0
 451.77633706 417.977400841 510.355942174 453.400745738 573 452 c 1
 679.151970541 452.675892442 753.948120142 358.795574058 749 201 c 0
 743.610471964 34.1092500767 601.829900092 -239 317 -239 c 0
 245.131589674 -239 196.364117807 -208.886349112 196 -150 c 0
 195.262507199 -30.730198315 358.720405666 45 553 45 c 0
 718.359153679 45 877.670232837 -39.5050993386 877 -147 c 0
 876.668365036 -195.470395316 844.589011762 -234.097597518 761 -234 c 0
 455.303123094 -233.574767083 234 73.306339754 234 306 c 0
 234 549.882130749 394.280585106 665 618 665 c 0
 924.904276401 665 1058.59367048 466.994916802 1054 199 c 1
 1054 3 l 1
 1052.74804311 -45.2139371585 1049.46741526 -107.285263311 1047 -165 c 1
 1066.64287804 -165 1088.76199132 -165 1119 -165 c 1
 1119 288 l 2
 1119 540.850967508 952.732756756 765 650 765 c 0
 346.395251413 765 168.514460949 572.083677036 173 297 c 0
 177.946305953 -6.34102855775 443.892824419 -305 760 -305 c 0
 916.816147749 -305 975.863666862 -223.464863268 974 -146 c 0
 969.868591773 27.9221129563 729.033064966 105 558 105 c 0
 382.399089298 105 138.612138526 30.8030008051 135 -156 c 0
EndSplineSet
Fore
SplineSet
55 -136 m 0
 52.6913827454 -261.97351289 157.437643658 -314.648275639 270 -315 c 0
 648.062913564 -316.262753223 920 66.2584857739 920 284 c 0
 920 476.681832668 790.844594878 593 621 593 c 0
 467.405376235 593 377.969099536 489.845279445 379 386 c 0
 379.895505314 295.419124326 438.459224239 214.09329632 551 216 c 0
 645.667458557 217.603887927 719.866160212 279.075682502 719 386 c 0
 718.524963831 456.732508682 680.498906525 498.111284722 622 518 c 1
 553 498 l 1
 582.17535486 481.462018252 610 443.542691712 610 394 c 0
 610 358.751065341 582.744354512 321.940330476 542 322 c 0
 501.872544232 322.058766085 473.700445173 347.934543926 473 384 c 0
 471.668783226 452.543466228 525.576280327 490.500799006 583 489 c 1
 613.214940909 488.970879855 640.241816916 490.463027796 662 493.291992188 c 1
 730.060577739 464.953962772 757.653842169 401.871489656 755 291 c 0
 750.996748594 78.1940281765 537.805170567 -194 297 -194 c 0
 212.597443677 -194 179.463707468 -165.332698087 179 -127 c 0
 178.123879145 -29.1391613639 332.604416553 33 516 33 c 0
 673.193269546 33 824.630344882 -25.415449306 824 -124 c 0
 823.705748558 -165.844728654 780.154912864 -182.105470786 712 -182 c 0
 454.656420376 -181.583147321 249 65.3597560822 249 316 c 0
 249 539.270489555 414.271816822 661 621 661 c 0
 855.457894955 661 1048.45670324 510.06706353 1044 259 c 5
 1044 -17 l 1
 1044.12092936 -79.89863665 1037.81457504 -116.845087496 1034 -165 c 1
 1169 -165 l 1
 1169 358 l 2
 1169 627.283629967 988.906696017 866 661 866 c 0
 306.049385053 866 112.042927189 614.40147969 117 305 c 0
 122.661970156 -48.3984694663 409.121222925 -315 750 -315 c 0
 936.127577235 -315 1006.08485999 -223.218193682 1004 -136 c 0
 999.163471618 66.3317011285 727.22380442 156 517 156 c 0
 325.20893441 156 58.8300784366 72.9945547902 55 -136 c 0
EndSplineSet
Colour: ffffff
EndChar

StartChar: tml_Ii
Encoding: 261 2952 5
GlifName: tml_I_i
Width: 845
VWidth: 0
Flags: HW
LayerCount: 4
Back
SplineSet
80 0 m 5
 80 0 88 136 87 370 c 4
 86.6962890625 440.999023438 84.5771484375 502.514648438 82 558 c 5
 219.815429688 558.265625 592.483398438 558.47265625 746 568 c 5
 751.4296875 557.666992188 758.404296875 528.333007812 760 511 c 5
 719.094086269 511.266601562 590.400045142 510.958984375 547 511 c 5
 547 0 l 5
 516.455495085 -0.12890625 484.86911868 -0.1416015625 459 0 c 5
 461 370 l 6
 461.70703125 433.681640625 462.791015625 466.51171875 462 511 c 5
 362.202148438 511.69140625 197.405273438 511.171875 144.607421875 511 c 5
 144.98828125 458.611328125 145 416.990234375 146 364 c 4
 149 205 146 0 146 0 c 5
 80 0 l 5
633.697265625 280.405273438 m 4
 633.697265625 311.177734375 657.942382812 335.422851562 688.71484375 335.422851562 c 4
 719.487304688 335.422851562 742.732421875 311.177734375 742.732421875 280.405273438 c 4
 742.732421875 249.6328125 719.487304688 225.387695312 688.71484375 225.387695312 c 4
 657.942382812 225.387695312 633.697265625 249.6328125 633.697265625 280.405273438 c 4
246.415039062 288.797851562 m 4
 246.415039062 316.44140625 270.66015625 338.219726562 301.432617188 338.219726562 c 4
 332.205078125 338.219726562 356.450195312 313.974609375 356.450195312 283.202148438 c 4
 356.450195312 252.4296875 332.205078125 228.184570312 301.432617188 228.184570312 c 4
 270.66015625 228.184570312 246.415039062 254.896484375 246.415039062 288.797851562 c 4
EndSplineSet
Fore
SplineSet
80 0 m 5
 80 0 88 136 87 370 c 4
 86.6962890625 440.999023438 84.5771484375 502.514648438 82 558 c 5
 219.815429688 558.265625 592.483398438 558.47265625 746 568 c 5
 751.4296875 557.666992188 758.404296875 528.333007812 760 511 c 5
 719.094086269 511.266601562 590.400045142 510.958984375 547 511 c 5
 547 0 l 5
 516.455495085 -0.12890625 484.86911868 -0.1416015625 459 0 c 5
 461 370 l 6
 461.70703125 433.681640625 462.791015625 466.51171875 462 511 c 5
 362.202148438 511.69140625 197.405273438 511.171875 144.607421875 511 c 5
 144.98828125 458.611328125 145 416.990234375 146 364 c 4
 149 205 146 0 146 0 c 5
 80 0 l 5
633.697265625 280.405273438 m 4
 633.697265625 311.177734375 657.942382812 335.422851562 688.71484375 335.422851562 c 4
 719.487304688 335.422851562 742.732421875 311.177734375 742.732421875 280.405273438 c 4
 742.732421875 249.6328125 719.487304688 225.387695312 688.71484375 225.387695312 c 4
 657.942382812 225.387695312 633.697265625 249.6328125 633.697265625 280.405273438 c 4
246.415039062 288.797851562 m 4
 246.415039062 316.44140625 270.66015625 338.219726562 301.432617188 338.219726562 c 4
 332.205078125 338.219726562 356.450195312 313.974609375 356.450195312 283.202148438 c 4
 356.450195312 252.4296875 332.205078125 228.184570312 301.432617188 228.184570312 c 4
 270.66015625 228.184570312 246.415039062 254.896484375 246.415039062 288.797851562 c 4
EndSplineSet
Colour: ffff00
EndChar

StartChar: tml_U
Encoding: 262 2953 6
GlifName: tml_U_
Width: 1028
VWidth: 0
Flags: HW
LayerCount: 4
Back
SplineSet
51.560546875 76 m 0
 50.6845703125 35.650390625 75.4372302866 0 125 0 c 2
 789 0 l 6
 832.196289062 -0.041015625 952.286132812 0.2666015625 993 0 c 5
 992.404296875 21 985.4296875 54.6904296875 979 67 c 5
 820.483398438 59.47265625 670.811900323 55.7255224991 572 56 c 6
 121 57 l 1
 120.40234375 55.59375 111.436523438 65.8984375 111.614257812 74 c 0
 111.970703125 90.24609375 128.543945312 106.064453125 168 109 c 0
 214.025390625 112.423828125 296.132768625 107.084224365 398 115 c 0
 513.405273438 123.967773438 626.38671875 192.364257812 622 362 c 0
 618.021484375 518.977539062 486.318359375 594.900390625 366 594 c 0
 217.546875 592.77734375 119.418945312 492.701171875 118 372 c 0
 116.829194041 272.406555415 185.276367188 208.576171875 271 209 c 0
 367.403393504 209.476630168 416 276.49609375 416 350 c 0
 416 419.897460938 366.834960938 464.885742188 294 464.948242188 c 0
 247.806640625 464.98828125 196.508789062 436.251953125 162 363 c 1
 175 318 l 1
 195.213867188 375.109375 235.7578125 411.49609375 284 410.82421875 c 0
 320.666015625 410.313476562 344.3671875 374.063476562 344 350 c 0
 343.51953125 312.14453125 314.767578125 270.034179688 260 270 c 0
 205.059570312 269.965820312 169.216796875 317.692382812 170 370 c 0
 171.315429688 461.053710938 235.913181731 535.486460444 348 536 c 0
 456.4921875 536.497070312 522.621323047 455.477764687 523 360 c 0
 523.361328125 268.896484375 480 193 396 173 c 0
 341.227539062 159.958984375 229.732421875 165.610351562 157 162 c 0
 87.7763671875 158.563476562 52.6279296875 116.827148438 51.560546875 76 c 0
EndSplineSet
Fore
SplineSet
51.560546875 76 m 0
 50.6845703125 35.650390625 75.4372302866 0 125 0 c 2
 789 0 l 6
 832.196289062 -0.041015625 952.286132812 0.2666015625 993 0 c 5
 992.404296875 21 985.4296875 54.6904296875 979 67 c 5
 820.483398438 59.47265625 670.811900323 55.7255224991 572 56 c 6
 121 57 l 1
 120.40234375 55.59375 111.436523438 65.8984375 111.614257812 74 c 0
 111.970703125 90.24609375 128.543945312 106.064453125 168 109 c 0
 214.025390625 112.423828125 296.132768625 107.084224365 398 115 c 0
 513.405273438 123.967773438 626.38671875 192.364257812 622 362 c 0
 618.021484375 518.977539062 486.318359375 594.900390625 366 594 c 0
 217.546875 592.77734375 119.418945312 492.701171875 118 372 c 0
 116.829194041 272.406555415 185.276367188 208.576171875 271 209 c 0
 367.403393504 209.476630168 416 276.49609375 416 350 c 0
 416 419.897460938 366.834960938 464.885742188 294 464.948242188 c 0
 247.806640625 464.98828125 196.508789062 436.251953125 162 363 c 1
 175 318 l 1
 195.213867188 375.109375 235.7578125 411.49609375 284 410.82421875 c 0
 320.666015625 410.313476562 344.3671875 374.063476562 344 350 c 0
 343.51953125 312.14453125 314.767578125 270.034179688 260 270 c 0
 205.059570312 269.965820312 169.216796875 317.692382812 170 370 c 0
 171.315429688 461.053710938 235.913181731 535.486460444 348 536 c 0
 456.4921875 536.497070312 522.621323047 455.477764687 523 360 c 0
 523.361328125 268.896484375 480 193 396 173 c 0
 341.227539062 159.958984375 229.732421875 165.610351562 157 162 c 0
 87.7763671875 158.563476562 52.6279296875 116.827148438 51.560546875 76 c 0
EndSplineSet
Colour: ffff00
EndChar

StartChar: tml_E
Encoding: 264 2958 8
GlifName: tml_E_
Width: 929
VWidth: 0
Flags: HW
LayerCount: 4
Back
SplineSet
60 236 m 4
 60.466796875 419.518554688 175.021484375 560.875976562 423 561 c 4
 469.814453125 561.0234375 737.483398438 566.678710938 891 570 c 5
 896.4296875 558.518554688 903.404296875 527.258789062 905 508 c 5
 718 508 l 5
 718 0 l 5
 686.752929688 -0.12890625 656.463867188 -0.1416015625 630 0 c 5
 632 370 l 6
 632.70703125 433.681640625 633.791015625 463.51171875 633 508 c 5
 434.607421875 508 l 6
 256.33203125 509.3203125 117.715820312 428.411132812 119 233 c 4
 119.81640625 108.76171875 216.254882812 32.9794921875 307 33 c 4
 394.336914062 33.01953125 432.682617188 85.91015625 433 137 c 4
 433.291015625 187.346679688 393.666992188 223.838867188 344 224 c 4
 294.422851562 224.14453125 236.048828125 183.736328125 231 110 c 4
 227.68359375 61.5634765625 234.935546875 48.80078125 245 23 c 5
 228 7 l 5
 207.970703125 29.0234375 182.46875 46.9677734375 185.252929688 113 c 4
 189.935546875 224.059570312 271.18359375 297.76953125 371 297 c 4
 447.931640625 296.407226562 520.66015625 238.987304688 520 146 c 4
 519.47265625 71.751953125 471.471679688 -26.5458984375 334 -28 c 4
 146.947265625 -29.978515625 59.6669921875 105.0546875 60 236 c 4
EndSplineSet
Fore
SplineSet
60 236 m 4
 60.466796875 419.518554688 175.021484375 560.875976562 423 561 c 4
 469.814453125 561.0234375 737.483398438 566.678710938 891 570 c 5
 896.4296875 558.518554688 903.404296875 527.258789062 905 508 c 5
 718 508 l 5
 718 0 l 5
 686.752929688 -0.12890625 656.463867188 -0.1416015625 630 0 c 5
 632 370 l 6
 632.70703125 433.681640625 633.791015625 463.51171875 633 508 c 5
 434.607421875 508 l 6
 256.33203125 509.3203125 117.715820312 428.411132812 119 233 c 4
 119.81640625 108.76171875 216.254882812 32.9794921875 307 33 c 4
 394.336914062 33.01953125 432.682617188 85.91015625 433 137 c 4
 433.291015625 187.346679688 393.666992188 223.838867188 344 224 c 4
 294.422851562 224.14453125 236.048828125 183.736328125 231 110 c 4
 227.68359375 61.5634765625 234.935546875 48.80078125 245 23 c 5
 228 7 l 5
 207.970703125 29.0234375 182.46875 46.9677734375 185.252929688 113 c 4
 189.935546875 224.059570312 271.18359375 297.76953125 371 297 c 4
 447.931640625 296.407226562 520.66015625 238.987304688 520 146 c 4
 519.47265625 71.751953125 471.471679688 -26.5458984375 334 -28 c 4
 146.947265625 -29.978515625 59.6669921875 105.0546875 60 236 c 4
EndSplineSet
Colour: ffffff
EndChar

StartChar: tml_Ee
Encoding: 265 2959 9
GlifName: tml_E_e
Width: 929
VWidth: 0
Flags: HW
LayerCount: 4
Back
SplineSet
313 -211 m 1
 425.1171875 -126.583007812 569.13671875 -6.611328125 619 31 c 1
 706 0 l 1
 700 -17 l 1
 569.181640625 -92.5556640625 441.876953125 -174.13671875 327 -244 c 1
 324.453125 -240.26171875 315.39453125 -229.456054688 313 -211 c 1
EndSplineSet
Refer: 8 2958 N 1 0 0 1 0 1.09961 2
Fore
SplineSet
313 -211 m 1
 425.1171875 -126.583007812 569.13671875 -6.611328125 619 31 c 1
 706 0 l 1
 700 -17 l 1
 569.181640625 -92.5556640625 441.876953125 -174.13671875 327 -244 c 1
 324.453125 -240.26171875 315.39453125 -229.456054688 313 -211 c 1
EndSplineSet
Refer: 8 2958 N 1 0 0 1 0 1.09961 2
Colour: ffffff
EndChar

StartChar: tml_O
Encoding: 267 2962 11
GlifName: tml_O_
Width: 869
VWidth: 0
Flags: HW
LayerCount: 4
Back
SplineSet
173 -133 m 0
 172.401367188 -41.8642578125 241.09375 8 323 8 c 0
 358 8 392.84765625 -4.900390625 405 -16 c 1
 404.362304688 -33.521484375 396.204101562 -57.2158203125 382 -67 c 1
 364.834960938 -53.6123046875 332.985351562 -45.6845703125 304 -47 c 0
 258.987304688 -49.04296875 221 -77.2646484375 221 -125 c 0
 221 -171.733398438 259.647267886 -204.593685324 328 -203 c 0
 433.213867188 -200.546875 510.956054688 -5.9853515625 623 -5 c 1
 683 -50 l 1
 606.313476562 -51.30859375 512.501953125 -161.958007812 463 -207 c 0
 437.866210938 -229.869140625 386.711914062 -256.981445312 334 -258 c 0
 244.94359426 -259.720840936 173.4921875 -207.908203125 173 -133 c 0
61 298 m 0
 62.791015625 477.21484375 199.327148438 633.267578125 431 635 c 0
 605.609375 636.311523438 804.083007812 530.7109375 809 313 c 0
 812.232421875 169.87109375 729.602539062 72 644 72 c 0
 565.892578125 72 511.596679688 131.762695312 511.356445312 204 c 0
 511.19921875 251.172851562 525.291015625 273.55078125 536 295 c 1
 538.020507812 299.046875 537.224609375 273.060546875 540 277 c 1
 496.788085938 259.651367188 467.388671875 199.064453125 469 145 c 0
 471.575195312 58.57421875 583.971679688 -3 670 -3 c 0
 689.140625 -3 731.09375 -2 751 0 c 1
 752 -13.8125 751 -36 748 -51 c 1
 652 -50 l 2
 507.426757812 -48.494140625 416.883789062 52.9033203125 416 142 c 0
 414.920898438 250.748046875 493.083984375 319.967773438 553 330 c 1
 580 295 l 1
 570.546875 274.734375 557.91796875 243.596679688 558.38671875 213 c 0
 559.034179688 170.651367188 592.361328125 125 636 125 c 0
 691.368164062 125 723.685546875 220.064453125 724 314 c 0
 724.48828125 459.868164062 603.366210938 578.186523438 427 579 c 0
 246.033203125 579.817382812 113.34765625 470.998046875 110 294 c 0
 108.793085102 230.187719508 155.629882812 174.958007812 216 175 c 0
 264.248046875 175.033203125 289.52734375 216.14453125 290 254 c 0
 290.407226562 286.625 258.887695312 325.23828125 210 325.82421875 c 0
 165.298828125 326.40234375 123.73046875 291.111328125 105 242 c 1
 87 279 l 5
 113.600585938 342.911132812 179.006835938 379.983398438 228 379.948242188 c 0
 303.22265625 379.881835938 357 324.076171875 357 260 c 0
 357 184.837890625 305.039925275 123.544440391 220 123 c 4
 130.15625 122.424804688 59.9112483945 189.05597621 61 298 c 0
EndSplineSet
Fore
SplineSet
173 -133 m 0
 172.401367188 -41.8642578125 241.09375 8 323 8 c 0
 358 8 392.84765625 -4.900390625 405 -16 c 1
 404.362304688 -33.521484375 396.204101562 -57.2158203125 382 -67 c 1
 364.834960938 -53.6123046875 332.985351562 -45.6845703125 304 -47 c 0
 258.987304688 -49.04296875 221 -77.2646484375 221 -125 c 0
 221 -171.733398438 259.647267886 -204.593685324 328 -203 c 0
 433.213867188 -200.546875 510.956054688 -5.9853515625 623 -5 c 1
 683 -50 l 1
 606.313476562 -51.30859375 512.501953125 -161.958007812 463 -207 c 0
 437.866210938 -229.869140625 386.711914062 -256.981445312 334 -258 c 0
 244.94359426 -259.720840936 173.4921875 -207.908203125 173 -133 c 0
61 298 m 0
 62.791015625 477.21484375 199.327148438 633.267578125 431 635 c 0
 605.609375 636.311523438 804.083007812 530.7109375 809 313 c 0
 812.232421875 169.87109375 729.602539062 72 644 72 c 0
 565.892578125 72 511.596679688 131.762695312 511.356445312 204 c 0
 511.19921875 251.172851562 525.291015625 273.55078125 536 295 c 1
 538.020507812 299.046875 537.224609375 273.060546875 540 277 c 1
 496.788085938 259.651367188 467.388671875 199.064453125 469 145 c 0
 471.575195312 58.57421875 583.971679688 -3 670 -3 c 0
 689.140625 -3 731.09375 -2 751 0 c 1
 752 -13.8125 751 -36 748 -51 c 1
 652 -50 l 2
 507.426757812 -48.494140625 416.883789062 52.9033203125 416 142 c 0
 414.920898438 250.748046875 493.083984375 319.967773438 553 330 c 1
 580 295 l 1
 570.546875 274.734375 557.91796875 243.596679688 558.38671875 213 c 0
 559.034179688 170.651367188 592.361328125 125 636 125 c 0
 691.368164062 125 723.685546875 220.064453125 724 314 c 0
 724.48828125 459.868164062 603.366210938 578.186523438 427 579 c 0
 246.033203125 579.817382812 113.34765625 470.998046875 110 294 c 0
 108.793085102 230.187719508 155.629882812 174.958007812 216 175 c 0
 264.248046875 175.033203125 289.52734375 216.14453125 290 254 c 0
 290.407226562 286.625 258.887695312 325.23828125 210 325.82421875 c 0
 165.298828125 326.40234375 123.73046875 291.111328125 105 242 c 1
 87 279 l 5
 113.600585938 342.911132812 179.006835938 379.983398438 228 379.948242188 c 0
 303.22265625 379.881835938 357 324.076171875 357 260 c 0
 357 184.837890625 305.039925275 123.544440391 220 123 c 4
 130.15625 122.424804688 59.9112483945 189.05597621 61 298 c 0
EndSplineSet
Colour: ffff00
EndChar

StartChar: tml_Oo
Encoding: 268 2963 12
GlifName: tml_O_o
Width: 869
VWidth: 0
Flags: HW
LayerCount: 4
Back
SplineSet
173 -133 m 0
 172.401367188 -41.8642578125 241.09375 8 323 8 c 0
 358 8 392.84765625 -4.900390625 405 -16 c 1
 404.362304688 -33.521484375 396.204101562 -57.2158203125 382 -67 c 1
 364.834960938 -53.6123046875 332.985351562 -45.6845703125 304 -47 c 0
 258.987304688 -49.04296875 221 -77.2646484375 221 -125 c 0
 221 -171.733398438 259.647267886 -204.593685324 328 -203 c 0
 433.213867188 -200.546875 510.956054688 -5.9853515625 623 -5 c 1
 683 -50 l 1
 606.313476562 -51.30859375 512.501953125 -161.958007812 463 -207 c 0
 437.866210938 -229.869140625 386.711914062 -256.981445312 334 -258 c 0
 244.94359426 -259.720840936 173.4921875 -207.908203125 173 -133 c 0
61 298 m 0
 62.791015625 477.21484375 199.327148438 633.267578125 431 635 c 0
 605.609375 636.311523438 804.083007812 530.7109375 809 313 c 0
 812.232421875 169.87109375 729.602539062 72 644 72 c 0
 565.892578125 72 511.596679688 131.762695312 511.356445312 204 c 0
 511.19921875 251.172851562 525.291015625 273.55078125 536 295 c 1
 538.020507812 299.046875 537.224609375 273.060546875 540 277 c 1
 496.788085938 259.651367188 467.388671875 199.064453125 469 145 c 0
 471.575195312 58.57421875 583.971679688 -3 670 -3 c 0
 689.140625 -3 731.09375 -2 751 0 c 1
 752 -13.8125 751 -36 748 -51 c 1
 652 -50 l 2
 507.426757812 -48.494140625 416.883789062 52.9033203125 416 142 c 0
 414.920898438 250.748046875 493.083984375 319.967773438 553 330 c 1
 580 295 l 1
 570.546875 274.734375 557.91796875 243.596679688 558.38671875 213 c 0
 559.034179688 170.651367188 592.361328125 125 636 125 c 0
 691.368164062 125 723.685546875 220.064453125 724 314 c 0
 724.48828125 459.868164062 603.366210938 578.186523438 427 579 c 0
 246.033203125 579.817382812 113.34765625 470.998046875 110 294 c 0
 108.793085102 230.187719508 155.629882812 174.958007812 216 175 c 0
 264.248046875 175.033203125 289.52734375 216.14453125 290 254 c 0
 290.407226562 286.625 258.887695312 325.23828125 210 325.82421875 c 0
 165.298828125 326.40234375 123.73046875 291.111328125 105 242 c 1
 87 279 l 5
 113.600585938 342.911132812 179.006835938 379.983398438 228 379.948242188 c 0
 303.22265625 379.881835938 357 324.076171875 357 260 c 0
 357 184.837890625 305.039925275 123.544440391 220 123 c 4
 130.15625 122.424804688 59.9112483945 189.05597621 61 298 c 0
EndSplineSet
Fore
SplineSet
173 -133 m 0
 172.401367188 -41.8642578125 241.09375 8 323 8 c 0
 358 8 392.84765625 -4.900390625 405 -16 c 1
 404.362304688 -33.521484375 396.204101562 -57.2158203125 382 -67 c 1
 364.834960938 -53.6123046875 332.985351562 -45.6845703125 304 -47 c 0
 258.987304688 -49.04296875 221 -77.2646484375 221 -125 c 0
 221 -171.733398438 259.647267886 -204.593685324 328 -203 c 0
 433.213867188 -200.546875 510.956054688 -5.9853515625 623 -5 c 1
 683 -50 l 1
 606.313476562 -51.30859375 512.501953125 -161.958007812 463 -207 c 0
 437.866210938 -229.869140625 386.711914062 -256.981445312 334 -258 c 0
 244.94359426 -259.720840936 173.4921875 -207.908203125 173 -133 c 0
61 298 m 0
 62.791015625 477.21484375 199.327148438 633.267578125 431 635 c 0
 605.609375 636.311523438 804.083007812 530.7109375 809 313 c 0
 812.232421875 169.87109375 729.602539062 72 644 72 c 0
 565.892578125 72 511.596679688 131.762695312 511.356445312 204 c 0
 511.19921875 251.172851562 525.291015625 273.55078125 536 295 c 1
 538.020507812 299.046875 537.224609375 273.060546875 540 277 c 1
 496.788085938 259.651367188 467.388671875 199.064453125 469 145 c 0
 471.575195312 58.57421875 583.971679688 -3 670 -3 c 0
 689.140625 -3 731.09375 -2 751 0 c 1
 752 -13.8125 751 -36 748 -51 c 1
 652 -50 l 2
 507.426757812 -48.494140625 416.883789062 52.9033203125 416 142 c 0
 414.920898438 250.748046875 493.083984375 319.967773438 553 330 c 1
 580 295 l 1
 570.546875 274.734375 557.91796875 243.596679688 558.38671875 213 c 0
 559.034179688 170.651367188 592.361328125 125 636 125 c 0
 691.368164062 125 723.685546875 220.064453125 724 314 c 0
 724.48828125 459.868164062 603.366210938 578.186523438 427 579 c 0
 246.033203125 579.817382812 113.34765625 470.998046875 110 294 c 0
 108.793085102 230.187719508 155.629882812 174.958007812 216 175 c 0
 264.248046875 175.033203125 289.52734375 216.14453125 290 254 c 0
 290.407226562 286.625 258.887695312 325.23828125 210 325.82421875 c 0
 165.298828125 326.40234375 123.73046875 291.111328125 105 242 c 1
 87 279 l 5
 113.600585938 342.911132812 179.006835938 379.983398438 228 379.948242188 c 0
 303.22265625 379.881835938 357 324.076171875 357 260 c 0
 357 184.837890625 305.039925275 123.544440391 220 123 c 4
 130.15625 122.424804688 59.9112483945 189.05597621 61 298 c 0
EndSplineSet
Colour: ffff00
EndChar

StartChar: tml_Ka
Encoding: 270 2965 14
GlifName: tml_K_a
Width: 957
VWidth: 0
GlyphClass: 2
Flags: HW
AnchorPoint: "Anchor-0" 467 801 basechar 0
LayerCount: 4
Back
SplineSet
55.533203125 164 m 4
 57.0556640625 268.076171875 127.479539176 322.36006236 242 325 c 4
 308.728588693 326.538228428 385.811523438 326.807617188 498 326.026367188 c 4
 532.889648438 325.784179688 582.560995081 325.459561642 626 325 c 4
 756.153320312 323.623046875 800.750976562 243.732421875 802 176 c 0
 804.060546875 64.240234375 735.24727015 -24.9411127555 571.473632812 -22.26953125 c 1
 569.694021377 -16.9140385757 568.315429688 11.5322265625 570.518554688 19.2958984375 c 1
 670.172851562 19.091796875 707.9609375 93.9873046875 708 164 c 0
 708.03515625 227.705078125 673.975585938 273 591 273 c 6
 495 273 l 5
 469 273 l 5
 235 273 l 6
 150.853515625 273 110 231.600585938 110 167 c 4
 110 98.21875 177.62109375 33.623046875 285 34 c 4
 386.583984375 34.3564453125 452.670898438 99.4140625 454 223 c 6
 454.787109375 283 l 5
 454.934570312 301 l 5
 456 370 l 5
 456 511 l 5
 374.008789062 511.69140625 306.984375 511.171875 263.607421875 511 c 5
 263.98828125 458.611328125 266 417 266 364 c 6
 266 291 l 5
 204 291 l 5
 204 291 211.213761861 320.028525395 211 370 c 4
 210.696289063 440.999023438 208.577148438 505.514648438 206 561 c 5
 372.477539062 561.265625 567.112304688 560.47265625 708 570 c 5
 713.4296875 559.666992188 720.404296875 528.333007812 722 511 c 5
 682.157017672 511.266601562 590.272460938 510.958984375 548 511 c 5
 548 301 l 5
 549 223 l 5
 546.248046875 84.0673828125 461.107421875 -23 295 -23 c 4
 126.81640625 -23 54.201171875 73.35546875 55.533203125 164 c 4
EndSplineSet
Fore
SplineSet
45.533203125 174 m 0
 47.1373118927 291.004888879 121.331174433 352.322914095 242 355 c 0
 311.335174189 356.538228425 391.427495107 356.52673675 508 356.026367188 c 0
 564.423103334 355.784179688 644.754276348 355.863599363 715 355 c 0
 849.553034347 353.345807991 911.744792597 277.359862053 912 176 c 0
 912.295661507 58.573118236 814.977610126 -35.0758576903 611.473632812 -32.26953125 c 1
 583.607610781 -22.6621576357 589.323500596 28.3684223194 596.518554688 42.2958984375 c 1
 687.474575516 42.1228273318 721.971657412 105.631638833 722 165 c 0
 722.02734375 222.276125287 695.536566841 263 631 263 c 2
 505 263 l 1
 479 263 l 1
 235 263 l 2
 171.048671875 263 140 231.364598689 140 182 c 0
 140 141.836231202 170.650427587 84.8005619993 286 85 c 0
 369.55174399 85.166238977 426.644842369 141.241158639 425 243 c 2
 423.787109375 313 l 1
 425.934570312 331 l 1
 427 390 l 1
 427 498 l 1
 377.397419082 498.69140625 336.849366625 498.171875 310.607421875 498 c 1
 315.46583227 457.372050383 316 425.102040816 316 384 c 2
 316 321 l 1
 204 321 l 1
 204 321 211.31311084 346.354644536 211 390 c 0
 210.453320313 466.203140339 210.638867188 535.447659318 202 595 c 1
 386.385481512 595.265625 601.957054595 594.47265625 758 604 c 1
 763.4296875 585.435613083 770.404296875 529.140658103 772 498 c 1
 742.919202554 498.266601562 675.854037581 497.958984375 645 498 c 1
 645 331 l 1
 649 243 l 1
 645.381289986 92.7720480818 533.424720104 -23 315 -23 c 0
 104.97583524 -23 44.2239939743 78.5053089415 45.533203125 174 c 0
EndSplineSet
Colour: ff00
EndChar

StartChar: tml_Nga
Encoding: 271 2969 15
GlifName: tml_N_ga
Width: 984
VWidth: 0
GlyphClass: 2
Flags: HW
AnchorPoint: "Anchor-0" 520 751 basechar 0
LayerCount: 4
Back
SplineSet
336 56 m 1
 491 56 739 58 801 66 c 1
 802 428.099609375 l 2
 801.620117188 458.930664062 800.35546875 518.805664062 797 562 c 1
 824.444335938 562.692382812 873.196289062 566.69140625 894 570 c 1
 894 0 l 1
 710.333333333 -0 526.666666667 0 343 0 c 1
 336 56 l 1
105 0 m 1
 105 0 113.000976562 136 112 370 c 0
 111.696289062 440.999023438 109.577148438 498.514648438 107 554 c 1
 304.737304688 554.265625 458.709960938 560.47265625 601 570 c 1
 606.4296875 559.666992188 613.404296875 525.333007812 615 508 c 1
 574.286132812 508.266601562 471.196289062 507.958984375 428 508 c 1
 428 160 l 1
 397.455495084 159.846679688 365.86911868 159.013671875 340 159 c 1
 341 370 l 2
 341.70703125 433.681640625 342.791015625 463.51171875 342 508 c 1
 258.677734375 508.69140625 213.689453125 508.171875 169.607421875 508 c 1
 169.98828125 455.611328125 170.000184191 416.990237851 171 364 c 0
 174 205 171 0 171 0 c 1
 105 0 l 1
374 274 m 1
 384.392578125 359.680664062 458.78125 387.879882812 517 387 c 0
 616.962890625 385.564453125 684.044921875 320.358398438 685.0625 223 c 0
 686.059570312 127.608398438 606.927734375 50.3505859375 536 38 c 1
 440 56 l 1
 537.32421875 54.7421875 596.587890625 113.39453125 595.626953125 224 c 0
 595.14453125 284.68359375 557.375 343.11328125 494 344 c 0
 459.760742188 344.4921875 416.471679688 323.19140625 412 275 c 1
 374 274 l 1
EndSplineSet
Fore
SplineSet
336 56 m 1
 491 56 739 58 801 66 c 1
 802 428.099609375 l 2
 801.620117188 458.930664062 800.35546875 518.805664062 797 562 c 1
 824.444335938 562.692382812 873.196289062 566.69140625 894 570 c 1
 894 0 l 1
 710.333333333 -0 526.666666667 0 343 0 c 1
 336 56 l 1
105 0 m 1
 105 0 113.000976562 136 112 370 c 0
 111.696289062 440.999023438 109.577148438 498.514648438 107 554 c 1
 304.737304688 554.265625 458.709960938 560.47265625 601 570 c 1
 606.4296875 559.666992188 613.404296875 525.333007812 615 508 c 1
 574.286132812 508.266601562 471.196289062 507.958984375 428 508 c 1
 428 160 l 1
 397.455495084 159.846679688 365.86911868 159.013671875 340 159 c 1
 341 370 l 2
 341.70703125 433.681640625 342.791015625 463.51171875 342 508 c 1
 258.677734375 508.69140625 213.689453125 508.171875 169.607421875 508 c 1
 169.98828125 455.611328125 170.000184191 416.990237851 171 364 c 0
 174 205 171 0 171 0 c 1
 105 0 l 1
374 274 m 1
 384.392578125 359.680664062 458.78125 387.879882812 517 387 c 0
 616.962890625 385.564453125 684.044921875 320.358398438 685.0625 223 c 0
 686.059570312 127.608398438 606.927734375 50.3505859375 536 38 c 1
 440 56 l 1
 537.32421875 54.7421875 596.587890625 113.39453125 595.626953125 224 c 0
 595.14453125 284.68359375 557.375 343.11328125 494 344 c 0
 459.760742188 344.4921875 416.471679688 323.19140625 412 275 c 1
 374 274 l 1
EndSplineSet
Colour: ffffff
EndChar

StartChar: tml_Ca
Encoding: 272 2970 16
GlifName: tml_C_a
Width: 797
VWidth: 0
GlyphClass: 2
Flags: HW
AnchorPoint: "Anchor-0" 427 751 basechar 0
LayerCount: 4
Back
SplineSet
55.533203125 164 m 0
 57.0556640625 268.076171875 127.479539176 322.36006236 242 325 c 0
 308.728588693 326.538228428 375.811523438 327.807617188 488 327.026367188 c 0
 522.889648438 326.784179688 639.560546875 331.432617188 693 335 c 1
 698.174804688 319.333007812 705.139648438 292.666992188 705 273 c 1
 495 273 l 1
 469 273 l 1
 235 273 l 2
 150.853515625 273 110 231.600585938 110 167 c 0
 110 98.21875 177.62109375 33.623046875 285 34 c 0
 386.583984375 34.3564453125 452.670898438 99.4140625 454 223 c 2
 454.787109375 283 l 1
 454.934570312 301 l 1
 456 370 l 1
 456 511 l 1
 374.008789062 511.69140625 306.984375 511.171875 263.607421875 511 c 1
 263.98828125 458.611328125 266 417 266 364 c 2
 266 291 l 1
 204 291 l 1
 204 291 211.213761861 320.028525395 211 370 c 0
 210.696289063 440.999023438 208.577148438 505.514648438 206 561 c 1
 372.477539062 561.265625 567.112304688 560.47265625 708 570 c 1
 713.4296875 559.666992188 720.404296875 528.333007812 722 511 c 1
 682.157017672 511.266601562 590.272460938 510.958984375 548 511 c 1
 548 301 l 1
 549 223 l 1
 546.248046875 84.0673828125 461.107421875 -23 295 -23 c 0
 126.81640625 -23 54.201171875 73.35546875 55.533203125 164 c 0
EndSplineSet
Fore
SplineSet
55.533203125 164 m 0
 57.0556640625 268.076171875 127.479539176 322.36006236 242 325 c 0
 308.728588693 326.538228428 375.811523438 327.807617188 488 327.026367188 c 0
 522.889648438 326.784179688 639.560546875 331.432617188 693 335 c 1
 698.174804688 319.333007812 705.139648438 292.666992188 705 273 c 1
 495 273 l 1
 469 273 l 1
 235 273 l 2
 150.853515625 273 110 231.600585938 110 167 c 0
 110 98.21875 177.62109375 33.623046875 285 34 c 0
 386.583984375 34.3564453125 452.670898438 99.4140625 454 223 c 2
 454.787109375 283 l 1
 454.934570312 301 l 1
 456 370 l 1
 456 511 l 1
 374.008789062 511.69140625 306.984375 511.171875 263.607421875 511 c 1
 263.98828125 458.611328125 266 417 266 364 c 2
 266 291 l 1
 204 291 l 1
 204 291 211.213761861 320.028525395 211 370 c 0
 210.696289063 440.999023438 208.577148438 505.514648438 206 561 c 1
 372.477539062 561.265625 567.112304688 560.47265625 708 570 c 1
 713.4296875 559.666992188 720.404296875 528.333007812 722 511 c 1
 682.157017672 511.266601562 590.272460938 510.958984375 548 511 c 1
 548 301 l 1
 549 223 l 1
 546.248046875 84.0673828125 461.107421875 -23 295 -23 c 0
 126.81640625 -23 54.201171875 73.35546875 55.533203125 164 c 0
EndSplineSet
Colour: ffffff
EndChar

StartChar: tml_Tta
Encoding: 275 2975 19
GlifName: tml_T_ta
Width: 898
VWidth: 0
GlyphClass: 2
Flags: HW
AnchorPoint: "Anchor-0" 503 682 basechar 0
LayerCount: 4
Back
SplineSet
88 0 m 1
 90.556640625 25.4814453125 94 103.978515625 94 147 c 2
 94 554 l 1
 112.333984375 557.639648438 158.322265625 561.139648438 184 561 c 1
 184 56 l 1
 397 56 l 2
 535.815429688 56.99609375 685.483398438 54.47265625 844 66 c 1
 850.4296875 53.6904296875 857.404296875 21 858 0 c 1
 817.286132812 0.2666015625 697.196289062 -0.041015625 654 0 c 2
 88 0 l 1
EndSplineSet
Fore
SplineSet
88 0 m 1
 90.556640625 25.4814453125 94 103.978515625 94 147 c 2
 94 554 l 1
 112.333984375 557.639648438 158.322265625 561.139648438 184 561 c 1
 184 56 l 1
 397 56 l 2
 535.815429688 56.99609375 685.483398438 54.47265625 844 66 c 1
 850.4296875 53.6904296875 857.404296875 21 858 0 c 1
 817.286132812 0.2666015625 697.196289062 -0.041015625 654 0 c 2
 88 0 l 1
EndSplineSet
Colour: ffffff
EndChar

StartChar: tml_Nna
Encoding: 276 2979 20
GlifName: tml_N_na
Width: 1809
VWidth: 0
GlyphClass: 2
Flags: HW
AnchorPoint: "Anchor-0" 860.001 751 basechar 0
LayerCount: 4
Back
SplineSet
962.052734375 527.098632812 m 0
 798.827148438 528.340820312 637.279296875 419.869140625 637.000976562 198 c 0
 636.875 97.47265625 680.627929688 37.9677734375 739.000976562 38 c 0
 797.104492188 38.0322265625 836.538085938 101.765625 837.000976562 186 c 0
 838.09375 384.9765625 657.0078125 525.447265625 461.000976562 529 c 0
 282.00390625 532.244140625 113.6953125 411.41015625 115 229 c 0
 115.910828167 101.655859593 205.891601562 31.974609375 309 32 c 0
 384.802734375 32.0185546875 419.669921875 79.4541015625 420 132 c 0
 420.323242188 183.50390625 380.131835938 221.834960938 326 222 c 0
 277.694335938 222.147460938 224.918945312 187.979492188 222 120 c 0
 220.03125 71.490234375 225.935546875 50.80078125 241 25 c 1
 224 9 l 1
 203.970703125 31.0234375 180.15234375 51.91796875 181.252929688 118 c 0
 182.935546875 219.059570312 252.18359375 297.713867188 353 297 c 0
 435.931640625 296.413085938 503.66015625 238.987304688 503 149 c 0
 502.455078125 74.751953125 450.380859375 -25.8095703125 320 -26 c 0
 156.833984375 -26.23828125 60.0994650552 83.0573435931 61 224 c 0
 62.4267578125 447.301757812 252.950195312 583.55859375 464.000976562 586 c 0
 700.002929688 588.73046875 924.307617188 436.872070312 924.000976562 206 c 0
 923.838867188 83.927734375 846.472676227 -19.791199438 740.000976562 -20 c 0
 633.435546875 -20.208984375 575.829101562 72.1533203125 576.000976562 190 c 0
 576.323242188 410.555664062 735.790039062 582.766601562 967.0625 584.40234375 c 0
 1193 586 1347.31054688 432.419921875 1347.00097656 208 c 0
 1346.85644531 102.927734375 1283.47264364 -20.7809497794 1178.00097656 -21 c 0
 1076.43554688 -21.2109375 1027.8125 57.1533203125 1028.00097656 175 c 0
 1028.32714844 382.309570312 1192.16894531 560.274414062 1404 561 c 1
 1541.31152344 561.265625 1612.04492188 560.47265625 1765 570 c 1
 1770.4296875 558.673828125 1777.40429688 527 1779 508 c 1
 1739.375 508.266601562 1644.04101562 507.958984375 1602 508 c 1
 1602 0 l 1
 1571.80273438 -0.12890625 1535.57519531 -0.1416015625 1510 0 c 1
 1512 370 l 2
 1512.70703125 433.681640625 1513.79101562 463.51171875 1513 508 c 1
 1413.20214844 508.69140625 1464.40527344 508.171875 1411.60742188 508 c 1
 1270.07128906 512.415039062 1081.31054688 399.869140625 1082.00097656 176 c 0
 1082.30859375 79.3740234375 1124.24707031 38.970703125 1174.00097656 39 c 0
 1228.68652344 39.033203125 1261.40429688 112.02734375 1261.00097656 202 c 0
 1260.07821229 407.850163558 1139.12304688 525.750976562 962.052734375 527.098632812 c 0
EndSplineSet
Fore
SplineSet
962.052734375 527.098632812 m 0
 798.827148438 528.340820312 637.279296875 419.869140625 637.000976562 198 c 0
 636.875 97.47265625 680.627929688 37.9677734375 739.000976562 38 c 0
 797.104492188 38.0322265625 836.538085938 101.765625 837.000976562 186 c 0
 838.09375 384.9765625 657.0078125 525.447265625 461.000976562 529 c 0
 282.00390625 532.244140625 113.6953125 411.41015625 115 229 c 0
 115.910828167 101.655859593 205.891601562 31.974609375 309 32 c 0
 384.802734375 32.0185546875 419.669921875 79.4541015625 420 132 c 0
 420.323242188 183.50390625 380.131835938 221.834960938 326 222 c 0
 277.694335938 222.147460938 224.918945312 187.979492188 222 120 c 0
 220.03125 71.490234375 225.935546875 50.80078125 241 25 c 1
 224 9 l 1
 203.970703125 31.0234375 180.15234375 51.91796875 181.252929688 118 c 0
 182.935546875 219.059570312 252.18359375 297.713867188 353 297 c 0
 435.931640625 296.413085938 503.66015625 238.987304688 503 149 c 0
 502.455078125 74.751953125 450.380859375 -25.8095703125 320 -26 c 0
 156.833984375 -26.23828125 60.0994650552 83.0573435931 61 224 c 0
 62.4267578125 447.301757812 252.950195312 583.55859375 464.000976562 586 c 0
 700.002929688 588.73046875 924.307617188 436.872070312 924.000976562 206 c 0
 923.838867188 83.927734375 846.472676227 -19.791199438 740.000976562 -20 c 0
 633.435546875 -20.208984375 575.829101562 72.1533203125 576.000976562 190 c 0
 576.323242188 410.555664062 735.790039062 582.766601562 967.0625 584.40234375 c 0
 1193 586 1347.31054688 432.419921875 1347.00097656 208 c 0
 1346.85644531 102.927734375 1283.47264364 -20.7809497794 1178.00097656 -21 c 0
 1076.43554688 -21.2109375 1027.8125 57.1533203125 1028.00097656 175 c 0
 1028.32714844 382.309570312 1192.16894531 560.274414062 1404 561 c 1
 1541.31152344 561.265625 1612.04492188 560.47265625 1765 570 c 1
 1770.4296875 558.673828125 1777.40429688 527 1779 508 c 1
 1739.375 508.266601562 1644.04101562 507.958984375 1602 508 c 1
 1602 0 l 1
 1571.80273438 -0.12890625 1535.57519531 -0.1416015625 1510 0 c 1
 1512 370 l 2
 1512.70703125 433.681640625 1513.79101562 463.51171875 1513 508 c 1
 1413.20214844 508.69140625 1464.40527344 508.171875 1411.60742188 508 c 1
 1270.07128906 512.415039062 1081.31054688 399.869140625 1082.00097656 176 c 0
 1082.30859375 79.3740234375 1124.24707031 38.970703125 1174.00097656 39 c 0
 1228.68652344 39.033203125 1261.40429688 112.02734375 1261.00097656 202 c 0
 1260.07821229 407.850163558 1139.12304688 525.750976562 962.052734375 527.098632812 c 0
EndSplineSet
Colour: ffffff
EndChar

StartChar: tml_Ta
Encoding: 277 2980 21
GlifName: tml_T_a
Width: 940
VWidth: 0
GlyphClass: 2
Flags: HW
AnchorPoint: "Anchor-3" 443 568 basechar 0
AnchorPoint: "Anchor-0" 464 751 basechar 0
LayerCount: 4
Back
SplineSet
588 273 m 2
 508 273 l 1
 482 273 l 1
 248 273 l 2
 163.853515625 273 123 231.600585938 123 167 c 0
 123 98.736328125 187.712890625 34.603515625 306 35 c 0
 402.775390625 35.32421875 465.387695312 100.072265625 467 223 c 2
 467.787109375 283 l 1
 467.934570312 301 l 1
 469 370 l 1
 469 511 l 1
 387.008789062 511.69140625 319.984375 511.171875 276.607421875 511 c 1
 277.147460938 458.611328125 280.725585938 416.990234375 280 364 c 2
 279 291 l 1
 217 291 l 1
 217 291 224.213867188 320.028320312 224 370 c 0
 223.696289062 440.999023438 221.577148438 505.514648438 219 561 c 1
 385.477539062 561.265625 580.112304688 560.47265625 721 570 c 1
 726.4296875 559.666992188 733.404296875 528.333007812 735 511 c 1
 695.157226562 511.266601562 603.272460938 510.958984375 561 511 c 1
 561 301 l 1
 562 219 l 2
 564 80 480.837890625 -23 308 -23 c 0
 136.3046875 -23 67.20703125 73.3544921875 68.533203125 164 c 0
 70.0556640625 268.076171875 140.479492188 322.360351562 255 325 c 0
 321.728515625 326.538085938 398.811523438 326.8046875 511 326.026367188 c 0
 545.889648438 325.784179688 577.561523438 325.502929688 621 325 c 0
 775.721679688 323.208007812 852.551757812 231.612304688 854 107 c 0
 855.110351562 11.4208984375 810.762695312 -176.1796875 530 -175 c 2
 284 -174 l 2
 223.729492188 -173.750976562 161.284179688 -195.05078125 160 -242 c 0
 159.44921875 -261.686523438 169.62109375 -278.833007812 192.15234375 -280 c 0
 206.560546875 -280.826171875 224.495117188 -277.59765625 244 -256 c 1
 251.703125 -263.1328125 260.173828125 -279.317382812 261 -287 c 1
 259.516601562 -327.208007812 230.016601562 -353.887695312 179 -353.887695312 c 1
 104.259765625 -354.947265625 79.7255859375 -299.75 79 -263 c 0
 77.09375 -165.590820312 168.564453125 -116.33203125 307 -117 c 2
 527 -118 l 2
 708.423828125 -118.798828125 754.020507812 5.2314453125 753 109 c 0
 751.98828125 211.87109375 681.328125 273 588 273 c 2
EndSplineSet
Fore
SplineSet
920 117 m 0
 918.078125 257.815429688 810.829101562 334.5859375 684 334 c 1
 612.129882812 335.717773438 530.990234375 335.741210938 474 336.026367188 c 0
 366.192947388 336.615234375 292.121932983 336.538085938 228 335 c 4
 113.475585938 332.360351562 43.0556640625 274.541015625 41.533203125 164 c 4
 40.3332566964 73.3525390625 96.5636101528 -23 291 -23 c 0
 502.884765625 -23 611.489257812 84.0673828125 615 223 c 1
 614 311 l 1
 614 478 l 1
 644.125 477.958984375 709.606445312 478.266601562 738 478 c 1
 736.404296875 511.197265625 729.4296875 571.209960938 724 591 c 1
 570.763671875 581.47265625 359.069335938 582.265625 178 582 c 1
 186.638671875 520.4140625 186.434570312 448.8046875 187 370 c 0
 187.313476562 326.354492188 180 301 180 301 c 1
 292 301 l 1
 292 364 l 2
 292 404.741210938 291.465820312 436.728515625 286.607421875 477 c 1
 317.1328125 477.171875 364.299804688 477.69140625 422 477 c 1
 422 370 l 1
 420.934570312 311 l 1
 420.787109375 293 l 1
 420 223 l 2
 418.93359375 129.479492188 360.5625 77.17578125 271 77 c 0
 180.619615709 76.810546875 133 122.870117188 133 172 c 4
 133 215.270507812 161.760742188 243 221 243 c 6
 445 243 l 1
 471 243 l 1
 592 243 l 1
 682.046875 241.80859375 704 151.295898438 704 89 c 0
 704 21.083984375 663.565429688 -88.587890625 499 -88 c 2
 279 -87 l 2
 124.776367188 -86.5146484375 25.9111328125 -163.370117188 25 -283 c 0
 24.4619140625 -351.700195312 73.431640625 -426.987304688 180 -425.887695312 c 0
 258.59375 -425.127929688 310.59375 -386.444335938 313 -327 c 1
 311.202148438 -309.404296875 292.765625 -272.336914062 276 -256 c 1
 248.971679688 -277.59765625 224.137695312 -280.540039062 204.15234375 -280 c 0
 169.708007812 -278.833007812 154.5703125 -261.69921875 155 -242 c 0
 156.045898438 -201.955078125 206.908203125 -183.895507812 256 -184 c 2
 552 -185 l 2
 870.892578125 -185.814453125 921.600585938 14.646484375 920 117 c 0
EndSplineSet
Colour: ff00
EndChar

StartChar: tml_Na
Encoding: 278 2984 22
GlifName: tml_N_a
Width: 819
VWidth: 0
GlyphClass: 2
Flags: HW
AnchorPoint: "Anchor-0" 409 751 basechar 0
LayerCount: 4
Back
SplineSet
662 122 m 0
 662 226 617.032226562 296.926757812 559 298 c 0
 492.6875 299.219726562 453.7734375 247.642578125 449 207 c 1
 414 202 l 1
 417.389648438 293.595703125 489.428710938 348.313476562 575 348 c 0
 673.874023438 347.637695312 753.02734375 272.951171875 754 136 c 0
 755.098632812 -18.70703125 650.756835938 -155.459960938 326 -162.15234375 c 0
 185.493164062 -165.047851562 124.482421875 -160.306640625 80 -246 c 1
 106.15234375 -174 l 1
 116.229492188 -208 113.649414062 -226 122 -260 c 1
 100.735351562 -267.627929688 91.498046875 -267.370117188 67 -266.887695312 c 0
 43.6572265625 -266.427734375 35.2373046875 -245.458007812 35 -229 c 0
 33.609375 -132.537109375 167.583984375 -117.859375 347 -114.868164062 c 0
 578.40234375 -111.07421875 662 13 662 122 c 0
110 0 m 1
 110 0 117.974609375 136 117 370 c 0
 116.696289062 442.938476562 114.577148438 503.999023438 112 561 c 1
 251.075195312 561.265625 469.080078125 558.47265625 624 568 c 1
 629.4296875 556.673828125 636.404296875 527 638 508 c 1
 598.375 508.266601562 498.041015625 507.958984375 456 508 c 1
 456 0 l 1
 423.373046875 -0.12890625 389.6328125 -0.1416015625 362 0 c 1
 364 370 l 2
 364.34375 433.68359375 365.791015625 463.51171875 365 508 c 1
 265.202148438 508.69140625 221.405273438 508.171875 168.607421875 508 c 1
 168.98828125 455.611328125 170 416.990234375 171 364 c 0
 174 205 171 0 171 0 c 1
 110 0 l 1
EndSplineSet
Fore
SplineSet
662 122 m 0
 662 226 617.032226562 296.926757812 559 298 c 0
 492.6875 299.219726562 453.7734375 247.642578125 449 207 c 1
 414 202 l 1
 417.389648438 293.595703125 489.428710938 348.313476562 575 348 c 0
 673.874023438 347.637695312 753.02734375 272.951171875 754 136 c 0
 755.098632812 -18.70703125 650.756835938 -155.459960938 326 -162.15234375 c 0
 185.493164062 -165.047851562 124.482421875 -160.306640625 80 -246 c 1
 106.15234375 -174 l 1
 116.229492188 -208 113.649414062 -226 122 -260 c 1
 100.735351562 -267.627929688 91.498046875 -267.370117188 67 -266.887695312 c 0
 43.6572265625 -266.427734375 35.2373046875 -245.458007812 35 -229 c 0
 33.609375 -132.537109375 167.583984375 -117.859375 347 -114.868164062 c 0
 578.40234375 -111.07421875 662 13 662 122 c 0
110 0 m 1
 110 0 117.974609375 136 117 370 c 0
 116.696289062 442.938476562 114.577148438 503.999023438 112 561 c 1
 251.075195312 561.265625 469.080078125 558.47265625 624 568 c 1
 629.4296875 556.673828125 636.404296875 527 638 508 c 1
 598.375 508.266601562 498.041015625 507.958984375 456 508 c 1
 456 0 l 1
 423.373046875 -0.12890625 389.6328125 -0.1416015625 362 0 c 1
 364 370 l 2
 364.34375 433.68359375 365.791015625 463.51171875 365 508 c 1
 265.202148438 508.69140625 221.405273438 508.171875 168.607421875 508 c 1
 168.98828125 455.611328125 170 416.990234375 171 364 c 0
 174 205 171 0 171 0 c 1
 110 0 l 1
EndSplineSet
Colour: ffffff
EndChar

StartChar: tml_Nnna
Encoding: 279 2985 23
GlifName: tml_N_nna
Width: 1552
VWidth: 0
GlyphClass: 2
Flags: HW
AnchorPoint: "Anchor-0" 726.001 751 basechar 0
LayerCount: 4
Back
SplineSet
972 561 m 5
 736.793945312 560.260742188 579.323242188 405.555664062 579.000976562 185 c 4
 578.829101562 67.1533203125 630.435546875 -19.1904296875 739.000976562 -19 c 4
 855.47265625 -18.7958984375 923.838867188 83.927734375 924.000976562 206 c 4
 924.307617188 436.872070312 692.002929688 587.73046875 456.000976562 585 c 4
 244.950195312 582.55859375 62.4267578125 447.301757812 61 234 c 4
 60.0576171875 93.0576171875 156.833984375 -26.23828125 320 -26 c 4
 450.380859375 -25.8095703125 502.455078125 74.751953125 503 149 c 4
 503.66015625 238.987304688 435.931640625 296.413085938 353 297 c 4
 252.18359375 297.713867188 182.935546875 219.059570312 181.252929688 118 c 4
 180.15234375 51.91796875 203.970703125 31.0234375 224 9 c 5
 241 25 l 5
 225.935546875 50.80078125 220.03125 71.490234375 222 120 c 4
 224.918945312 187.979492188 278.694335938 223.147460938 327 223 c 4
 381.131835938 222.834960938 421.323242188 184.50390625 421 133 c 4
 420.669921875 80.4541015625 384.802734375 32.0185546875 309 32 c 4
 205.891601562 31.974609375 115.963867188 111.65625 115 239 c 4
 113.6953125 411.41015625 274.00390625 528.244140625 453.000976562 525 c 4
 649.0078125 521.447265625 838.09375 384.9765625 837.000976562 186 c 4
 836.538085938 101.765625 794.104492188 38.0322265625 736.000976562 38 c 4
 677.627929688 37.9677734375 636.875 97.47265625 637.000976562 198 c 4
 637.279296875 419.869140625 802.828125 509.415039062 979.607421875 508 c 5
 1032.40527344 508.171875 981.202148438 508.69140625 1081 508 c 1
 1081.79101562 463.51171875 1080.70703125 433.681640625 1080 370 c 2
 1078 0 l 1
 1103.57519531 -0.1416015625 1139.80273438 -0.12890625 1170 0 c 1
 1170 508 l 1
 1212.04101562 507.958984375 1307.375 508.266601562 1347 508 c 1
 1345.40429688 527 1338.4296875 558.673828125 1333 570 c 1
 1180.04492188 560.47265625 1109.31152344 561.265625 972 561 c 5
EndSplineSet
Fore
SplineSet
40.2021484375 225.9765625 m 1
 42.5965482098 466.905300105 272.643999784 602.479949814 516.000976562 605 c 0
 781.877160276 607.802734375 1024.33975061 462.963857752 1024.00097656 226 c 0
 1023.81152344 98.501953125 948.589843752 -18.8173828125 793.000976562 -19 c 0
 651.187521016 -19.1664487625 588.815958551 71.3759772317 589.000976562 195 c 0
 589.33984375 421.421875 764.824141793 580.241081076 1012 581 c 1
 1191.15159984 581.472222222 1283.43811137 580.0625 1483 597 c 1
 1488.4296875 573.616935484 1495.40429688 508.225806452 1497 469 c 1
 1461.85240113 469.266601562 1377.29061837 468.958984375 1340 469 c 1
 1340 0 l 1
 1260.56806217 -0.12890625 1165.27388332 -0.1416015625 1098 0 c 1
 1100 350 l 2
 1100.31380571 404.915998815 1101.79101562 430.636916893 1101 469 c 1
 1020.88758368 469.69140625 1061.99073373 469.171875 1019.60742188 469 c 1
 858.307632106 470.237018018 697.22979169 401.956120812 697.000976562 208 c 0
 696.92585542 144.323242187 721.213321419 102.97678008 756.000976562 103 c 0
 785.340019852 103.019583103 806.706182325 154.640702379 807.000976562 206 c 0
 807.910712664 375.276953125 685.521971973 483.058416254 513.000976562 486 c 0
 333.26335823 488.950018699 158.011694801 406.410228096 156.93359375 241.416992188 c 0
 156.455773448 170.288692503 190.757977553 125.385517779 251.287109375 121.999023438 c 0
 298.188076737 119.207329724 344.372844984 155.511600487 345.002929688 221.8984375 c 0
 345.7517159 292.409682311 306.691512445 338.00390625 252.340820312 338.00390625 c 0
 171.20465238 338.00390625 147.489135274 298.343086258 123.921875 269.821289062 c 1
 115.991210938 356.840820312 l 1
 152.700284515 376.68897947 238.749575396 436.051757812 317.01171875 436.051757812 c 0
 443.993164062 436.051757812 539.006835938 339.570269278 539.006835938 212.5234375 c 0
 539.006835938 68.388671875 443.985351556 -24.2070301653 292.064453125 -25.0595703125 c 0
 139.969726562 -25.9130859375 40.2021484375 82.1481376978 40.2021484375 225.9765625 c 1
EndSplineSet
Colour: ff00
EndChar

StartChar: tml_Pa
Encoding: 280 2986 24
GlifName: tml_P_a
Width: 929
VWidth: 0
GlyphClass: 2
Flags: HW
AnchorPoint: "Anchor-0" 455 733 basechar 0
AnchorPoint: "Anchor-4" 601 0 basechar 0
LayerCount: 4
Fore
SplineSet
70 0 m 1
 72.556640625 25.4814453125 75.1630859375 53.978515625 76 147 c 2
 76 595 l 5
 138.117513023 598.639648438 257.786132812 602.139648438 327 602 c 5
 326 116 l 1
 428 116 l 2
 486.615248897 116 558.8828125 116.287109375 601 124.690429688 c 1
 601 460.099609375 l 6
 600.620117188 490.930664062 599.35546875 550.805664062 596 594 c 5
 673.397460938 595.154296875 798.331157485 601.819010417 857 604 c 5
 857 77 l 1
 856.503785094 51.9280485611 857.778320312 26.71484375 859 0 c 1
 70 0 l 1
EndSplineSet
Layer: 2
SplineSet
60 -1 m 1
 62.556640625 24.4814453125 76 63.978515625 76 177 c 2
 76 564 l 5
 102.362304688 566.639648438 209.083007812 570.139648438 224 570 c 5
 224 61 l 1
 368 61 l 2
 471.298828125 61 528.961914062 62.287109375 667 76.6904296875 c 1
 668 410.099609375 l 6
 667.620117188 440.930664062 661.35546875 522.805664062 658 566 c 5
 685.74609375 566.692382812 773.967773438 569.69140625 795 571 c 5
 795 0 l 1
 60 -1 l 1
EndSplineSet
Colour: ff00
EndChar

StartChar: tml_Ma
Encoding: 281 2990 25
GlifName: tml_M_a
Width: 961
VWidth: 0
GlyphClass: 2
Flags: HW
AnchorPoint: "Anchor-0" 490 763 basechar 0
LayerCount: 4
Back
SplineSet
96 0 m 1
 98.556640625 25.4814453125 101.163085938 53.978515625 102 147 c 2
 102 554 l 1
 124.362304688 557.639648438 167.083007812 561.139648438 192 561 c 1
 192 56 l 1
 594 61 l 2
 726.915039062 62.7080078125 779.590820312 148.262695312 782 267 c 0
 784.458007812 388.137695312 703.979492188 508.006835938 603 509 c 0
 560.90234375 509.4140625 520.740234375 490.0546875 520 399 c 2
 517 35 l 1
 428 35 l 1
 432 404 l 2
 433.440429688 532.958007812 503.2421875 566.409179688 583 567 c 0
 738.997070312 568.155273438 842.071289062 426.197265625 841 267 c 0
 839.890625 102.168945312 757 0 552 0 c 2
 96 0 l 1
EndSplineSet
Fore
SplineSet
46 0 m 1
 50.6875 25.4814453125 57 53.978515625 57 147 c 2
 57 596 l 1
 120.360351562 599.639648438 241.401367188 603.139648438 312 603 c 1
 312 113 l 1
 624 120 l 2
 776.886945707 123.098891028 810.225260417 199.197380837 812 307 c 0
 813.634160005 396.10093246 760.131184896 484.207960559 693 485 c 0
 666.118164062 485.286051432 640.573242188 471.909667969 640 409 c 2
 637 80 l 1
 428 80 l 1
 432 437 l 6
 433.581149739 577.86785547 517.39600824 626.303968439 613 627 c 0
 805.275410287 628.274391613 932.55782255 471.646270078 931 296 c 0
 929.737409203 124.352089185 835.374059365 0 602 0 c 2
 46 0 l 1
EndSplineSet
Colour: ff00
EndChar

StartChar: tml_Ya
Encoding: 282 2991 26
GlifName: tml_Y_a
Width: 1086
VWidth: 0
GlyphClass: 2
Flags: HW
AnchorPoint: "Anchor-4" 796 0 basechar 0
AnchorPoint: "Anchor-0" 534 702 basechar 0
LayerCount: 4
Back
SplineSet
90 554 m 1
 119.080078125 557.068359375 169.397460938 561.466796875 185 561 c 1
 188 125 l 2
 188.477539062 58.3388671875 231.150390625 40.6650390625 280 41 c 0
 356.692382812 41.5927734375 422.556640625 114.935546875 423 181 c 5
 457 179 l 1
 457.924804688 98.953125 395.344563048 -14.2590788032 260 -15 c 0
 170.626953125 -15.4892578125 95.1220703125 23.28515625 94 138 c 2
 90 554 l 1
418 554 m 5
 447.05859375 557.639648438 490.557617188 561.139648438 507 561 c 1
 507 56 l 1
 614 56 l 2
 644.51953125 56 747.901367188 59.89453125 804 65.6904296875 c 1
 804 446.099609375 l 2
 803.620117188 470.125 801.35546875 520.340820312 799 554 c 1
 828.25390625 554.692382812 873.825195312 557.69140625 896 560 c 1
 896 0 l 1
 438 -1 l 1
 440.158203125 27.798828125 440.68359375 86.9375 440.930664062 122 c 1
 421.993164062 120.428710938 421 118.764648438 421 117 c 6
 421 448 l 6
 421 465.28515625 420.205078125 520.166015625 418 554 c 5
EndSplineSet
Fore
SplineSet
60 594 m 1
 128.873869243 597.068359375 248.046618011 601.466796875 285 601 c 1
 288 195 l 6
 288.202762777 128.336831512 317.079328161 110.615495664 350 111 c 4
 402.483699341 111.423409598 433.739565122 163.811104911 434 211 c 1
 467 179 l 1
 468.065637889 94.8269974227 395.956711403 -24.4241603917 240 -25 c 0
 145.243034639 -25.5212354473 64.9575271644 15.7847146564 64 138 c 2
 60 594 l 1
428 594 m 1
 499.503730688 597.639648438 606.54065353 601.139648438 647 601 c 1
 647 114 l 1
 704 114 l 2
 718.456620066 114 767.426963405 117.492636662 794 122.690429688 c 1
 794 486.099609375 l 2
 794 510.125 791.35546875 560.340820312 789 594 c 1
 854.444305734 594.692382812 956.392447244 597.69140625 1006 600 c 1
 1006 0 l 1
 448 -1 l 1
 450.158203125 27.798828125 450.68359375 86.9375 450.930664062 122 c 1
 431.993164062 120.428710938 431 117 431 117 c 2
 431 488 l 2
 431 505.28515625 430.205078125 560.166015625 428 594 c 1
EndSplineSet
Colour: ff00
EndChar

StartChar: tml_Ra
Encoding: 283 2992 27
GlifName: tml_R_a
Width: 744
VWidth: 0
GlyphClass: 2
Flags: HW
AnchorPoint: "Anchor-0" 360 811 basechar 0
LayerCount: 4
Back
SplineSet
111 -200 m 5
 214.1171875 -112.583007812 337.13671875 -4.611328125 381 34 c 5
 472 0 l 5
 466 -17 l 5
 344.944335938 -92.5556640625 239.20703125 -159.13671875 125 -233 c 5
 122.453125 -229.26171875 113.39453125 -218.456054688 111 -200 c 5
EndSplineSet
Refer: 37 3006 S 1 0 0 1 0 0 2
Fore
SplineSet
91 -175 m 1
 187.242708333 -96.9224300542 302.0609375 -0.486186231304 343 34 c 1
 572 0 l 1
 566 -27 l 1
 409.444141198 -109.551558883 272.69882927 -182.297526042 125 -263 c 1
 118.814732142 -253.03125 96.8152901782 -224.216145835 91 -175 c 1
EndSplineSet
Refer: 37 3006 N 1 0 0 1 0 0 2
Substitution2: "Single Substitution lookup 23 subtable" tml_MatraAa
Colour: ff00
EndChar

StartChar: tml_Rra
Encoding: 284 2993 28
GlifName: tml_R_ra
Width: 836
VWidth: 0
GlyphClass: 2
Flags: HW
AnchorPoint: "Anchor-0" 402.001 751 basechar 0
LayerCount: 4
Back
SplineSet
679 255 m 0
 677.695900247 433.673077502 621.761949323 527.867145168 538 526 c 4
 493.883789062 525.016601562 444.641601562 486.362304688 439 437 c 1
 425 405 l 1
 425.294921875 417.466796875 403.422851562 462.041992188 406.498046875 474 c 4
 415.725585938 511.201171875 464.272535974 583.662435762 557 586 c 0
 660.509765625 588.609375 779.930664062 527.956054688 781 246 c 0
 781.586914062 91.2900390625 707.76953125 -152.127929688 383 -158.15234375 c 0
 282.492230641 -160.016744073 181.482421875 -157.306640625 137 -243 c 1
 163.15234375 -176 l 1
 170.229492188 -210 172.649414062 -228 179 -262 c 1
 161.735351562 -270.627929688 129.479492188 -275.81640625 109 -272.887695312 c 0
 96.76953125 -271.138671875 91.74609375 -250.458007812 92 -234 c 0
 93.6103515625 -129.537109375 215.586605377 -110.993963445 385 -107.868164062 c 0
 606.3984375 -103.783203125 680.328427128 72.9938592207 679 255 c 0
106 0 m 1
 106.787109375 16.5615234375 110.446289062 38.3916015625 109.926757812 139 c 1
 111.700195312 422.177734375 l 2
 112.3203125 518.915039062 180.768554688 583.8203125 272 585 c 0
 334.228515625 585.8046875 398.560546875 550.559570312 426.092773438 490 c 1
 441.369140625 453 l 1
 441 443.249023438 l 1
 441 0 l 1
 411.919921875 -3.068359375 384.602539062 -5.466796875 349 -5 c 1
 349 401.926757812 l 1
 350.302734375 507.208984375 306.801757812 527.807617188 259 527 c 0
 213.789040613 526.236154704 170.756835938 492.826171875 172.091796875 416.826171875 c 1
 169 0 l 1
 106 0 l 1
EndSplineSet
Fore
SplineSet
679 255 m 0
 677.695900247 433.673077502 621.761949323 527.867145168 538 526 c 4
 493.883789062 525.016601562 444.641601562 486.362304688 439 437 c 1
 425 405 l 1
 425.294921875 417.466796875 403.422851562 462.041992188 406.498046875 474 c 4
 415.725585938 511.201171875 464.272535974 583.662435762 557 586 c 0
 660.509765625 588.609375 779.930664062 527.956054688 781 246 c 0
 781.586914062 91.2900390625 707.76953125 -152.127929688 383 -158.15234375 c 0
 282.492230641 -160.016744073 181.482421875 -157.306640625 137 -243 c 1
 163.15234375 -176 l 1
 170.229492188 -210 172.649414062 -228 179 -262 c 1
 161.735351562 -270.627929688 129.479492188 -275.81640625 109 -272.887695312 c 0
 96.76953125 -271.138671875 91.74609375 -250.458007812 92 -234 c 0
 93.6103515625 -129.537109375 215.586605377 -110.993963445 385 -107.868164062 c 0
 606.3984375 -103.783203125 680.328427128 72.9938592207 679 255 c 0
106 0 m 1
 106.787109375 16.5615234375 110.446289062 38.3916015625 109.926757812 139 c 1
 111.700195312 422.177734375 l 2
 112.3203125 518.915039062 180.768554688 583.8203125 272 585 c 0
 334.228515625 585.8046875 398.560546875 550.559570312 426.092773438 490 c 1
 441.369140625 453 l 1
 441 443.249023438 l 1
 441 0 l 1
 411.919921875 -3.068359375 384.602539062 -5.466796875 349 -5 c 1
 349 401.926757812 l 1
 350.302734375 507.208984375 306.801757812 527.807617188 259 527 c 0
 213.789040613 526.236154704 170.756835938 492.826171875 172.091796875 416.826171875 c 1
 169 0 l 1
 106 0 l 1
EndSplineSet
Colour: ffffff
EndChar

StartChar: tml_La
Encoding: 285 2994 29
GlifName: tml_L_a
Width: 1102
VWidth: 0
GlyphClass: 2
Flags: HW
AnchorPoint: "Anchor-0" 560 751 basechar 0
LayerCount: 4
Back
SplineSet
393 583 m 0
 459.388671875 583 527.079101562 559.1328125 577 517.716796875 c 0
 633.899414062 470.51171875 668.303710938 398.162109375 687 277 c 0
 704.921875 151.138671875 728.716796875 48.8046875 831 49 c 0
 949.432617188 49.2255859375 972.829101562 164.912109375 974 248 c 0
 975.208007812 333.708007812 938.32421875 445.86328125 872 488.159179688 c 0
 842.555664062 506.936523438 802.120117188 523.932617188 779.12109375 528.540039062 c 1
 774.450195312 558.10546875 802.040039062 588.568359375 840 590.418945312 c 1
 906.790039062 563.440429688 1031.59082031 447.717773438 1032.07128906 247 c 0
 1032.31933594 143.33984375 984.505859375 -17.197265625 814.140625 -19 c 0
 734.129882812 -19.8466796875 673.060546875 14.86328125 641.459960938 70 c 0
 616.420898438 113.688476562 604.2578125 174.948242188 591 255 c 0
 564.609375 411.658203125 492 518 357 517 c 0
 209.990428316 515.91104021 117.0546875 409.700195312 118 255 c 0
 118.84765625 117.655273438 225.31640625 29.978515625 314 30 c 0
 401.336914062 30.021484375 437.682617188 83.4541015625 438 137 c 0
 438.30078125 185.03125 397.341796875 219.845703125 346 220 c 0
 297.694335938 220.139648438 236.918945312 180.250976562 232 115 c 0
 228.546875 66.5732421875 239.935546875 48.80078125 250 23 c 1
 233 7 l 1
 212.970703125 29.0234375 187.391601562 46.970703125 190.252929688 113 c 0
 194.935546875 221.059570312 271.18359375 296.76953125 371 296 c 0
 447.931640625 295.407226562 516.66015625 238.987304688 516 148 c 0
 515.4609375 73.751953125 465.381835938 -24.8681640625 325 -26 c 0
 157.83984375 -27.34765625 59.7142501222 108.054682745 60 249 c 0
 60.4306640625 461.423828125 202.815429688 586.826171875 393 583 c 0
EndSplineSet
Fore
SplineSet
393 583 m 0
 459.388671875 583 527.079101562 559.1328125 577 517.716796875 c 0
 633.899414062 470.51171875 668.303710938 398.162109375 687 277 c 0
 704.921875 151.138671875 728.716796875 48.8046875 831 49 c 0
 949.432617188 49.2255859375 972.829101562 164.912109375 974 248 c 0
 975.208007812 333.708007812 938.32421875 445.86328125 872 488.159179688 c 0
 842.555664062 506.936523438 802.120117188 523.932617188 779.12109375 528.540039062 c 1
 774.450195312 558.10546875 802.040039062 588.568359375 840 590.418945312 c 1
 906.790039062 563.440429688 1031.59082031 447.717773438 1032.07128906 247 c 0
 1032.31933594 143.33984375 984.505859375 -17.197265625 814.140625 -19 c 0
 734.129882812 -19.8466796875 673.060546875 14.86328125 641.459960938 70 c 0
 616.420898438 113.688476562 604.2578125 174.948242188 591 255 c 0
 564.609375 411.658203125 492 518 357 517 c 0
 209.990428316 515.91104021 117.0546875 409.700195312 118 255 c 0
 118.84765625 117.655273438 225.31640625 29.978515625 314 30 c 0
 401.336914062 30.021484375 437.682617188 83.4541015625 438 137 c 0
 438.30078125 185.03125 397.341796875 219.845703125 346 220 c 0
 297.694335938 220.139648438 236.918945312 180.250976562 232 115 c 0
 228.546875 66.5732421875 239.935546875 48.80078125 250 23 c 1
 233 7 l 1
 212.970703125 29.0234375 187.391601562 46.970703125 190.252929688 113 c 0
 194.935546875 221.059570312 271.18359375 296.76953125 371 296 c 0
 447.931640625 295.407226562 516.66015625 238.987304688 516 148 c 0
 515.4609375 73.751953125 465.381835938 -24.8681640625 325 -26 c 0
 157.83984375 -27.34765625 59.7142501222 108.054682745 60 249 c 0
 60.4306640625 461.423828125 202.815429688 586.826171875 393 583 c 0
EndSplineSet
Layer: 2
SplineSet
85 251 m 4
 85.4320948401 449.296128931 213.074478301 568 387 568 c 4
 442.069835197 568 500.555226639 555.538759505 554 520.716796875 c 4
 621.40012429 475.20719596 673.092523342 392.027324441 689 264 c 4
 706.523830935 152.913636598 722.944985441 60.76586359 821 61 c 4
 922.363498601 61.2558670832 962.2497969 199.092301896 962 283 c 4
 961.630545535 397.410391201 922.010394077 470.586363126 862 513.159179688 c 4
 842.055167351 527.59331571 789.738872663 539.96476205 768.12109375 539.540039062 c 5
 771.262522724 559.10546875 793.457371752 596.568359375 821 607.418945312 c 5
 901.289691319 596.31511266 1016.33260933 479.589898078 1018.07128906 290 c 4
 1019.17308456 166.579872427 965.381785971 -7.26564718478 798.140625 -9 c 4
 723.960490087 -9.7692754886 671.036697625 20.6281989733 642.459960938 79 c 4
 623.535558114 119.205143661 613.254161274 177.743305418 602 253 c 4
 575.831670532 409.658284806 505.857547613 506 367 506 c 4
 238.254663409 506 138.069227733 401.817844212 139 260 c 4
 139.897460938 122.655273438 228.31640626 32.9784715321 320 33 c 4
 407.336914062 33.0205078125 445.664685608 88.454210851 446 142 c 4
 446.30078125 190.03125 405.341814184 224.851574256 354 225 c 4
 305.694335938 225.139648438 244.654179753 185.270395863 240 120 c 4
 236.546875 71.5732421875 247.935546875 53.80078125 258 28 c 5
 241 12 l 5
 220.970703125 34.0234375 195.391638208 51.970701537 198.252929688 118 c 4
 202.935546875 226.059570312 281.183590465 301.769105088 381 301 c 4
 457.931640625 300.407226562 524.660594376 247.987301508 524 157 c 4
 523.4609375 82.751953125 474.380848401 -15.8034208203 337 -21 c 4
 178.947265625 -26.978515625 84.6938917711 110.054696881 85 251 c 4
EndSplineSet
Layer: 3
SplineSet
85 251 m 4
 85.4278025073 449.296128931 211.802215272 568 384 568 c 4
 437.421037736 568 493.571700684 554.875072117 546 520.716796875 c 4
 612.40160393 475.20719596 655.950436222 390.889226189 679 264 c 4
 699.178956835 152.913636598 729.603516378 60.6932254913 831 61 c 4
 925.174525975 61.2849245152 962.325144832 199.092619896 962 283 c 4
 961.556654643 397.410391201 909.666986927 464.188375532 842 513.159179688 c 4
 822.055167351 527.59331571 769.738872663 539.96476205 748.12109375 539.540039062 c 5
 751.262522724 559.10546875 773.457371752 596.568359375 801 607.418945312 c 5
 889.437980367 596.31511266 1016.56371533 479.593473187 1018.07128906 290 c 4
 1019.08290924 167.818201467 969.698020555 -4.65253902187 816.140625 -6 c 4
 731.462216152 -6.74305018785 686.009517268 27.386510473 647.459960938 79 c 4
 627.744050962 109.205143661 602.465759646 176.420319976 592 253 c 4
 566.611152687 409.658284806 498.721365343 506 364 506 c 4
 236.948680995 506 138.105126732 401.818005187 139 260 c 4
 139.897460938 122.655273438 228.31640626 32.9784715321 320 33 c 4
 407.336914062 33.0205078125 445.664685608 88.454210851 446 142 c 4
 446.30078125 190.03125 405.341814184 224.851574256 354 225 c 4
 305.694335938 225.139648438 244.654179753 185.270395863 240 120 c 4
 236.546875 71.5732421875 247.935546875 53.80078125 258 28 c 5
 241 12 l 5
 220.970703125 34.0234375 195.391638208 51.970701537 198.252929688 118 c 4
 202.935546875 226.059570312 281.183590465 301.769105088 381 301 c 4
 457.931640625 300.407226562 524.660594376 247.987301508 524 157 c 4
 523.4609375 82.751953125 474.380848401 -15.8034208203 337 -21 c 4
 178.947265625 -26.978515625 84.6877899756 110.054710265 85 251 c 4
EndSplineSet
Colour: ffffff
EndChar

StartChar: tml_Lla
Encoding: 286 2995 30
GlifName: tml_L_la
Width: 1271
VWidth: 0
GlyphClass: 2
Flags: HW
AnchorPoint: "Anchor-0" 636 751 basechar 0
LayerCount: 4
Back
SplineSet
415 583 m 4
 550.259765625 583 666.181640625 493.908203125 702 393 c 9
 676 337 664.479492188 180.985351562 651 261 c 0
 624.609375 417.658203125 541 518 396 517 c 0
 248.989697979 515.986135848 153.0546875 409.700195312 154 255 c 0
 154.84765625 117.655273438 264.31640625 29.978515625 353 30 c 0
 440.336914062 30.021484375 476.682617188 83.4541015625 477 137 c 0
 477.30078125 185.03125 436.341796875 219.845703125 385 220 c 0
 336.694335938 220.139648438 275.918945312 180.250976562 271 115 c 0
 267.546875 66.5732421875 278.935546875 48.80078125 289 23 c 1
 272 7 l 1
 251.970703125 29.0234375 226.391601562 46.970703125 229.252929688 113 c 0
 233.935546875 221.059570312 310.18359375 296.76953125 410 296 c 0
 486.931640625 295.407226562 555.66015625 238.987304688 555 148 c 0
 554.4609375 73.751953125 504.381835938 -24.8681640625 364 -26 c 0
 196.83984375 -27.34765625 98.7101567756 115.054695081 99 256 c 0
 99.4306640625 465.423828125 234.77734375 583 415 583 c 4
630 0 m 1
 630 0 629.872070312 158.272460938 630 364 c 0
 630.008789062 378.879882812 673.067382812 354.216796875 673 370 c 0
 672.696289062 443.326860272 673.577148438 501.695456584 671 559 c 1
 808.815429688 559.265625 1058.48339844 559.47265625 1212 569 c 1
 1217.4296875 557.474722056 1224.40429688 530.332970252 1226 511 c 1
 1186.5924601 511.266601562 1086.81031187 510.958984375 1045 511 c 1
 1045 0 l 1
 1012.02581856 -0.12890625 977.926889484 -0.1416015625 950 0 c 1
 952 370 l 2
 952.70703125 433.681640625 953.791015625 466.51171875 953 511 c 1
 855.75678184 511.69140625 776.053749802 511.171875 724.607421875 511 c 1
 724.98828125 458.611328125 724 409.990234375 725 347 c 2
 725 0 l 1
 630 0 l 1
EndSplineSet
Fore
SplineSet
415 583 m 4
 550.259765625 583 666.181640625 493.908203125 702 393 c 9
 676 337 664.479492188 180.985351562 651 261 c 0
 624.609375 417.658203125 541 518 396 517 c 0
 248.989697979 515.986135848 153.0546875 409.700195312 154 255 c 0
 154.84765625 117.655273438 264.31640625 29.978515625 353 30 c 0
 440.336914062 30.021484375 476.682617188 83.4541015625 477 137 c 0
 477.30078125 185.03125 436.341796875 219.845703125 385 220 c 0
 336.694335938 220.139648438 275.918945312 180.250976562 271 115 c 0
 267.546875 66.5732421875 278.935546875 48.80078125 289 23 c 1
 272 7 l 1
 251.970703125 29.0234375 226.391601562 46.970703125 229.252929688 113 c 0
 233.935546875 221.059570312 310.18359375 296.76953125 410 296 c 0
 486.931640625 295.407226562 555.66015625 238.987304688 555 148 c 0
 554.4609375 73.751953125 504.381835938 -24.8681640625 364 -26 c 0
 196.83984375 -27.34765625 98.7101567756 115.054695081 99 256 c 0
 99.4306640625 465.423828125 234.77734375 583 415 583 c 4
630 0 m 1
 630 0 629.872070312 158.272460938 630 364 c 0
 630.008789062 378.879882812 673.067382812 354.216796875 673 370 c 0
 672.696289062 443.326860272 673.577148438 501.695456584 671 559 c 1
 808.815429688 559.265625 1058.48339844 559.47265625 1212 569 c 1
 1217.4296875 557.474722056 1224.40429688 530.332970252 1226 511 c 1
 1186.5924601 511.266601562 1086.81031187 510.958984375 1045 511 c 1
 1045 0 l 1
 1012.02581856 -0.12890625 977.926889484 -0.1416015625 950 0 c 1
 952 370 l 2
 952.70703125 433.681640625 953.791015625 466.51171875 953 511 c 1
 855.75678184 511.69140625 776.053749802 511.171875 724.607421875 511 c 1
 724.98828125 458.611328125 724 409.990234375 725 347 c 2
 725 0 l 1
 630 0 l 1
EndSplineSet
Colour: ffffff
EndChar

StartChar: tml_Llla
Encoding: 287 2996 31
GlifName: tml_L_lla
Width: 1015
VWidth: 0
GlyphClass: 2
Flags: HW
AnchorPoint: "Anchor-0" 511 751 basechar 0
LayerCount: 4
Back
SplineSet
60 -228 m 0
 59.328125 -122.344726562 157.180664062 -62 244 -62 c 1
 254.040039062 -69.4990234375 268.916015625 -101.586914062 266 -116 c 1
 175.051757812 -118.106445312 114 -155.491210938 114 -218 c 0
 114 -258.272460938 146.647460938 -293.5703125 208 -294 c 0
 247.674804688 -294.27734375 274.747070312 -270.116210938 294 -242 c 1
 344.93359375 -162.956054688 378.55859375 -125.540039062 485 -123 c 1
 514 -113 l 1
 591 -172 l 1
 557.965820312 -172.267578125 524.772460938 -171.67578125 501 -172 c 1
 397.96484375 -179.415039062 390.5390625 -350.859375 213 -354 c 0
 109.401367188 -355.833007812 60.4156674829 -293.365524186 60 -228 c 0
432 16 m 1
 519 15 l 1
 519 -30 l 2
 519 -90.0546875 566.219726562 -115 603 -115 c 0
 628 -115 668 -113 694 -111 c 1
 695 -124.8125 694 -157 691 -172 c 1
 599 -172 l 2
 534.12890625 -171.6015625 432 -134.01953125 432 -49 c 2
 432 16 l 1
EndSplineSet
Refer: 25 2990 N 1 0 0 1 10 13 2
Fore
SplineSet
59 -227 m 0
 58.2879585598 -99.412943419 161.990377674 -42 254 -42 c 1
 268.603693181 -53.6651475694 290.241477273 -103.579644096 286 -126 c 1
 213.00206877 -127.899931066 164 -161.619523591 164 -218 c 0
 164 -247.674444902 186.228097666 -273.619510781 228 -274 c 0
 258.448105923 -274.27734375 279.224495821 -250.116210938 294 -222 c 1
 339.600233148 -149.598403034 369.70429074 -115.326590401 465 -113 c 1
 544 -113 l 1
 751 -192 l 1
 699.613498263 -192.267578125 647.979383681 -191.67578125 611 -192 c 1
 481.490532769 -199.822458791 450.084808016 -380.453101437 249 -384 c 4
 107.595074131 -386.494215915 59.4451764795 -308.448236999 59 -227 c 0
472 16 m 1
 679 15 l 1
 679 -20 l 2
 679 -72.9894301471 709.355538504 -95 733 -95 c 0
 763.494505495 -95 812.285714286 -93 844 -91 c 1
 845 -113.869877049 844 -167.163934426 841 -192 c 1
 749 -192 l 2
 681.458085223 -192 589.870037123 -167.221142204 530 -114 c 1
 513.556813052 -106.920024846 499.249820975 -98.9122152833 488 -89.947265625 c 1
 477.950907906 -72.4739696029 472 -52.2010928074 472 -29 c 2
 472 16 l 1
EndSplineSet
Refer: 25 2990 N 1 0 0 1 40 13 2
Layer: 3
SplineSet
66 -228 m 4
 65.328125 -118.344726562 175.180664062 -65 252 -65 c 5
 262.040039062 -72.4990234375 272.916015625 -95.5869140625 270 -110 c 5
 179.051757812 -112.106445312 112 -152.491210938 112 -221 c 4
 112 -261.272460938 143.64719579 -300.55963917 205 -301 c 4
 243.674713975 -301.277588439 275.747070312 -275.116210938 295 -247 c 5
 345.93359375 -167.956054688 378.55859375 -124.540039062 485 -122 c 5
 514 -122 l 5
 591 -172 l 5
 557.965820312 -172.267578125 514.772460938 -171.67578125 491 -172 c 5
 387.96484375 -179.415039062 369.537823882 -350.797650617 222 -354 c 4
 120.408203125 -356.205078125 66.400390625 -293.365234375 66 -228 c 4
442 16 m 5
 519 15 l 5
 519 -39 l 6
 519 -99.0546875 566.219726562 -124 603 -124 c 4
 628 -124 668 -122 694 -120 c 5
 695 -133.8125 694 -157 691 -172 c 5
 599 -172 l 6
 534.12890625 -171.6015625 442 -134.01953125 442 -49 c 6
 442 16 l 5
EndSplineSet
Refer: 25 2990 S 1 0 0 1 10 13 2
Colour: ff00
EndChar

StartChar: tml_Va
Encoding: 288 2997 32
GlifName: tml_V_a
Width: 1102
VWidth: 0
GlyphClass: 2
Flags: HW
AnchorPoint: "Anchor-4" 924 0 basechar 0
AnchorPoint: "Anchor-0" 521 751 basechar 0
LayerCount: 4
Back
SplineSet
922 65.6904296875 m 1
 859.708984375 58.7001953125 709.637695312 55.654296875 617 56 c 1
 613.213867188 45.427734375 675.459960938 22.21875 671.517578125 9 c 1
 699.012695312 75.56640625 725.790039062 158.431640625 725 250 c 0
 723.408203125 453.870117188 585.759765625 581.239257812 399 584 c 0
 207.815429688 586.826171875 57.4306640625 458.423828125 57 244 c 0
 56.7169154084 103.054685296 163.83984375 -27.3876953125 331 -26 c 0
 467.381406628 -24.8678172901 512.4609375 77.751953125 513 152 c 0
 513.66015625 242.987304688 444.931640625 295.407226562 368 296 c 0
 268.18359375 296.76953125 191.935546875 221.059570312 187.252929688 113 c 0
 184.391601562 46.970703125 209.970703125 29.0234375 230 7 c 1
 247 23 l 1
 236.935546875 48.80078125 225.546875 66.5732421875 229 115 c 0
 233.918945312 180.250976562 294.694335938 220.139648438 343 220 c 0
 394.341796875 219.845703125 435.30078125 185.03125 435 137 c 0
 434.682617188 83.4541015625 398.336913907 29.02115813 311 29 c 0
 222.31640625 28.978515625 115.84765625 112.655273438 115 250 c 0
 114.0546875 404.700195312 218.822265625 522.969726562 378 522 c 0
 532 521.073242188 633.522824949 400.067457887 632 246 c 0
 631.018554688 146.705078125 605.951171875 79.9873046875 574 18 c 1
 588 0 l 1
 1014 0 l 1
 1012.77832031 26.71484375 1011.50390625 51.927734375 1012 77 c 1
 1012 560 l 1
 990.967773438 558.69140625 944.74609375 554.692382812 917 554 c 1
 920.35546875 510.805664062 922 451 922 420.099609375 c 2
 922 65.6904296875 l 1
EndSplineSet
Fore
SplineSet
922 65.6904296875 m 1
 859.708984375 58.7001953125 709.637695312 55.654296875 617 56 c 1
 613.213867188 45.427734375 675.459960938 22.21875 671.517578125 9 c 1
 699.012695312 75.56640625 725.790039062 158.431640625 725 250 c 0
 723.408203125 453.870117188 585.759765625 581.239257812 399 584 c 0
 207.815429688 586.826171875 57.4306640625 458.423828125 57 244 c 0
 56.7169154084 103.054685296 163.83984375 -27.3876953125 331 -26 c 0
 467.381406628 -24.8678172901 512.4609375 77.751953125 513 152 c 0
 513.66015625 242.987304688 444.931640625 295.407226562 368 296 c 0
 268.18359375 296.76953125 191.935546875 221.059570312 187.252929688 113 c 0
 184.391601562 46.970703125 209.970703125 29.0234375 230 7 c 1
 247 23 l 1
 236.935546875 48.80078125 225.546875 66.5732421875 229 115 c 0
 233.918945312 180.250976562 294.694335938 220.139648438 343 220 c 0
 394.341796875 219.845703125 435.30078125 185.03125 435 137 c 0
 434.682617188 83.4541015625 398.336913907 29.02115813 311 29 c 0
 222.31640625 28.978515625 115.84765625 112.655273438 115 250 c 0
 114.0546875 404.700195312 218.822265625 522.969726562 378 522 c 0
 532 521.073242188 633.522824949 400.067457887 632 246 c 0
 631.018554688 146.705078125 605.951171875 79.9873046875 574 18 c 1
 588 0 l 1
 1014 0 l 1
 1012.77832031 26.71484375 1011.50390625 51.927734375 1012 77 c 1
 1012 560 l 1
 990.967773438 558.69140625 944.74609375 554.692382812 917 554 c 1
 920.35546875 510.805664062 922 451 922 420.099609375 c 2
 922 65.6904296875 l 1
EndSplineSet
Colour: ffffff
EndChar

StartChar: tml_Sha
Encoding: 289 2998 33
GlifName: tml_S_ha
Width: 1089
VWidth: 0
GlyphClass: 2
Flags: HW
AnchorPoint: "Anchor-0" 536 751 basechar 0
LayerCount: 4
Back
SplineSet
90 554 m 1
 94 146 l 2
 95.0751953125 36.2841796875 192.474609375 -12.5185546875 268 -13 c 0
 411.250976562 -13.9140625 459.657226562 76.47265625 459.657226562 184.810546875 c 2
 460 508 l 1
 747 508 l 2
 898.056640625 508 962.5 401.826171875 963 282 c 0
 963.474609375 170.385742188 914.705078125 49.9970703125 816 49 c 0
 773.90234375 48.57421875 716.75 67.1171875 716 159 c 2
 713 526 l 1
 627 526 l 1
 631 163 l 2
 632.432617188 33.2919921875 712.2421875 -9.3837890625 802 -10 c 0
 947.998046875 -11.001953125 1025.07128906 117.942382812 1024 289 c 0
 1022.96484375 452.624023438 924.641601562 561 758 561 c 2
 399 561 l 1
 401.556640625 535.865234375 405.447265625 449.994140625 405 415 c 2
 401.913085938 187.233398438 l 2
 400.806640625 100.918945312 360.997070312 45.4970703125 299 45 c 0
 226.405273438 44.41796875 184.596679688 89.619140625 184 168 c 2
 181 561 l 1
 165.397460938 561.466796875 119.080078125 557.068359375 90 554 c 1
EndSplineSet
Fore
SplineSet
90 554 m 1
 94 146 l 2
 95.0751953125 36.2841796875 192.474609375 -12.5185546875 268 -13 c 0
 411.250976562 -13.9140625 459.657226562 76.47265625 459.657226562 184.810546875 c 2
 460 508 l 1
 747 508 l 2
 898.056640625 508 962.5 401.826171875 963 282 c 0
 963.474609375 170.385742188 914.705078125 49.9970703125 816 49 c 0
 773.90234375 48.57421875 716.75 67.1171875 716 159 c 2
 713 526 l 1
 627 526 l 1
 631 163 l 2
 632.432617188 33.2919921875 712.2421875 -9.3837890625 802 -10 c 0
 947.998046875 -11.001953125 1025.07128906 117.942382812 1024 289 c 0
 1022.96484375 452.624023438 924.641601562 561 758 561 c 2
 399 561 l 1
 401.556640625 535.865234375 405.447265625 449.994140625 405 415 c 2
 401.913085938 187.233398438 l 2
 400.806640625 100.918945312 360.997070312 45.4970703125 299 45 c 0
 226.405273438 44.41796875 184.596679688 89.619140625 184 168 c 2
 181 561 l 1
 165.397460938 561.466796875 119.080078125 557.068359375 90 554 c 1
EndSplineSet
Colour: ffffff
EndChar

StartChar: tml_Ssa
Encoding: 290 2999 34
GlifName: tml_S_sa
Width: 1459
VWidth: 0
GlyphClass: 2
Flags: HW
AnchorPoint: "Anchor-0" 512 751 basechar 0
LayerCount: 4
Back
SplineSet
617 56 m 1
 613.213867188 45.427734375 675.459960938 22.21875 671.517578125 9 c 1
 699.012695312 75.56640625 725.790039062 158.431640625 725 250 c 0
 723.408203125 453.870117188 585.759765625 581.239257812 399 584 c 0
 207.815429688 586.826171875 57.4306640625 458.423828125 57 244 c 0
 56.7169154084 103.054685296 163.83984375 -27.3876953125 331 -26 c 0
 467.381406628 -24.8678172901 512.4609375 77.751953125 513 152 c 0
 513.66015625 242.987304688 444.931640625 295.407226562 368 296 c 0
 268.18359375 296.76953125 191.935546875 221.059570312 187.252929688 113 c 0
 184.391601562 46.970703125 209.970703125 29.0234375 230 7 c 1
 247 23 l 1
 236.935546875 48.80078125 225.546875 66.5732421875 229 115 c 0
 233.918945312 180.250976562 294.694335938 220.139648438 343 220 c 0
 394.341796875 219.845703125 435.30078125 185.03125 435 137 c 0
 434.682617188 83.4541015625 398.336913907 29.02115813 311 29 c 0
 222.31640625 28.978515625 115.84765625 112.655273438 115 250 c 0
 114.0546875 404.700195312 218.822265625 522.969726562 378 522 c 0
 532 521.073242188 633.522824949 400.067457887 632 246 c 0
 631.018554688 146.705078125 605.951171875 79.9873046875 574 18 c 1
 588 0 l 1
 1375 0 l 1
 1375 312 l 2
 1375 329.002929688 1375.6328125 381.870117188 1378.35742188 416 c 1
 1357 414 l 1
 1321.01464844 374.255859375 1250.1953125 266.387695312 1072 260.70703125 c 0
 964.169921875 257.26953125 858 317.676757812 858 408 c 0
 858 467.858398438 897.594726562 500.40625 942 501.37890625 c 0
 981.497070312 502.244140625 1020 484.05859375 1020 401 c 2
 1020 -250 l 1
 1106 -250 l 1
 1106 417.685546875 l 1
 1104 518.651367188 1035.65039062 567.075195312 950 565.569335938 c 0
 877.436523438 564.293945312 792.181640625 515.838867188 792.181640625 405.494140625 c 0
 792.181640625 304.6171875 895.557617188 198.4921875 1073 198.5078125 c 4
 1192.58496094 198.518554688 1276.27636719 246.471679688 1310 298 c 1
 1273.34179688 301 l 1
 1274.04492188 66.0673828125 l 1
 1168.17578125 57.51171875 819.224609375 53.369140625 617 56 c 1
EndSplineSet
Fore
SplineSet
617 56 m 1
 613.213867188 45.427734375 675.459960938 22.21875 671.517578125 9 c 1
 699.012695312 75.56640625 725.790039062 158.431640625 725 250 c 0
 723.408203125 453.870117188 585.759765625 581.239257812 399 584 c 0
 207.815429688 586.826171875 57.4306640625 458.423828125 57 244 c 0
 56.7169154084 103.054685296 163.83984375 -27.3876953125 331 -26 c 0
 467.381406628 -24.8678172901 512.4609375 77.751953125 513 152 c 0
 513.66015625 242.987304688 444.931640625 295.407226562 368 296 c 0
 268.18359375 296.76953125 191.935546875 221.059570312 187.252929688 113 c 0
 184.391601562 46.970703125 209.970703125 29.0234375 230 7 c 1
 247 23 l 1
 236.935546875 48.80078125 225.546875 66.5732421875 229 115 c 0
 233.918945312 180.250976562 294.694335938 220.139648438 343 220 c 0
 394.341796875 219.845703125 435.30078125 185.03125 435 137 c 0
 434.682617188 83.4541015625 398.336913907 29.02115813 311 29 c 0
 222.31640625 28.978515625 115.84765625 112.655273438 115 250 c 0
 114.0546875 404.700195312 218.822265625 522.969726562 378 522 c 0
 532 521.073242188 633.522824949 400.067457887 632 246 c 0
 631.018554688 146.705078125 605.951171875 79.9873046875 574 18 c 1
 588 0 l 1
 1375 0 l 1
 1375 312 l 2
 1375 329.002929688 1375.6328125 381.870117188 1378.35742188 416 c 1
 1357 414 l 1
 1321.01464844 374.255859375 1250.1953125 266.387695312 1072 260.70703125 c 0
 964.169921875 257.26953125 858 317.676757812 858 408 c 0
 858 467.858398438 897.594726562 500.40625 942 501.37890625 c 0
 981.497070312 502.244140625 1020 484.05859375 1020 401 c 2
 1020 -250 l 1
 1106 -250 l 1
 1106 417.685546875 l 1
 1104 518.651367188 1035.65039062 567.075195312 950 565.569335938 c 0
 877.436523438 564.293945312 792.181640625 515.838867188 792.181640625 405.494140625 c 0
 792.181640625 304.6171875 895.557617188 198.4921875 1073 198.5078125 c 4
 1192.58496094 198.518554688 1276.27636719 246.471679688 1310 298 c 1
 1273.34179688 301 l 1
 1274.04492188 66.0673828125 l 1
 1168.17578125 57.51171875 819.224609375 53.369140625 617 56 c 1
EndSplineSet
Colour: ffffff
EndChar

StartChar: tml_Sa
Encoding: 291 3000 35
GlifName: tml_S_a
Width: 1130
VWidth: 0
GlyphClass: 2
Flags: HW
AnchorPoint: "Anchor-0" 532 751 basechar 0
LayerCount: 4
Back
SplineSet
85 246 m 0
 85.4306640625 447.423828125 212.650390625 568 386 568 c 0
 442.388873166 568 509.615234375 558.001953125 563 522.716796875 c 0
 628.90234375 479.157226562 676.853758681 399.156132916 695 277 c 0
 713.452781346 152.780313337 724.745068096 49.7584241142 828 50 c 0
 931.944406323 50.2431889845 977.129660738 177.643567573 977 261 c 0
 976.778320312 403.513671875 910.239257812 463.055664062 852 499.159179688 c 1
 826.190429688 512.870117188 759.732421875 506.868164062 735.12109375 510.540039062 c 1
 729.62890625 529.10546875 761.477539062 585.568359375 801 587.418945312 c 1
 876.768554688 557.440429688 1031.95214844 484.721679688 1034.07128906 256 c 0
 1035.12267579 142.522425719 976.966811456 -15.961656249 821.140625 -18 c 0
 750.314993006 -18.9264616408 683.475585938 6.9912109375 647.459960938 68 c 0
 621.862304688 111.36328125 612.258029277 172.948719512 599 253 c 0
 573.054379719 409.658284806 503.67578125 506 366 506 c 0
 237.819335938 506 138.0546875 399.700195312 139 255 c 0
 139.897460938 117.655273438 228.31640625 27.978515625 320 28 c 0
 407.336914062 28.0205078125 445.682617188 83.4541015625 446 137 c 0
 446.30078125 185.03125 405.341796875 219.845703125 354 220 c 0
 305.694335938 220.139648438 244.918945312 180.250976562 240 115 c 0
 236.546875 66.5732421875 247.935546875 48.80078125 258 23 c 1
 241 7 l 1
 220.970703125 29.0234375 195.391601562 46.970703125 198.252929688 113 c 0
 202.935546875 221.059570312 281.18359375 296.76953125 381 296 c 0
 457.931640625 295.407226562 524.66015625 242.987304688 524 152 c 0
 523.4609375 77.751953125 474.380859375 -20.8037109375 337 -26 c 0
 178.947265625 -31.978515625 84.6982421875 105.0546875 85 246 c 0
EndSplineSet
Fore
SplineSet
85 246 m 0
 85.4306640625 447.423828125 212.650390625 568 386 568 c 0
 442.388873166 568 509.615234375 558.001953125 563 522.716796875 c 0
 628.90234375 479.157226562 676.853758681 399.156132916 695 277 c 0
 713.452781346 152.780313337 724.745068096 49.7584241142 828 50 c 0
 931.944406323 50.2431889845 977.129660738 177.643567573 977 261 c 0
 976.778320312 403.513671875 910.239257812 463.055664062 852 499.159179688 c 1
 826.190429688 512.870117188 759.732421875 506.868164062 735.12109375 510.540039062 c 1
 729.62890625 529.10546875 761.477539062 585.568359375 801 587.418945312 c 1
 876.768554688 557.440429688 1031.95214844 484.721679688 1034.07128906 256 c 0
 1035.12267579 142.522425719 976.966811456 -15.961656249 821.140625 -18 c 0
 750.314993006 -18.9264616408 683.475585938 6.9912109375 647.459960938 68 c 0
 621.862304688 111.36328125 612.258029277 172.948719512 599 253 c 0
 573.054379719 409.658284806 503.67578125 506 366 506 c 0
 237.819335938 506 138.0546875 399.700195312 139 255 c 0
 139.897460938 117.655273438 228.31640625 27.978515625 320 28 c 0
 407.336914062 28.0205078125 445.682617188 83.4541015625 446 137 c 0
 446.30078125 185.03125 405.341796875 219.845703125 354 220 c 0
 305.694335938 220.139648438 244.918945312 180.250976562 240 115 c 0
 236.546875 66.5732421875 247.935546875 48.80078125 258 23 c 1
 241 7 l 1
 220.970703125 29.0234375 195.391601562 46.970703125 198.252929688 113 c 0
 202.935546875 221.059570312 281.18359375 296.76953125 381 296 c 0
 457.931640625 295.407226562 524.66015625 242.987304688 524 152 c 0
 523.4609375 77.751953125 474.380859375 -20.8037109375 337 -26 c 0
 178.947265625 -31.978515625 84.6982421875 105.0546875 85 246 c 0
EndSplineSet
Colour: ffffff
EndChar

StartChar: tml_Ha
Encoding: 292 3001 36
GlifName: tml_H_a
Width: 1647
VWidth: 0
GlyphClass: 2
Flags: HW
AnchorPoint: "Anchor-0" 869 751 basechar 0
LayerCount: 4
Back
SplineSet
935 64 m 9
 935 64 967.463867188 35.1611328125 970 0 c 1
 596 0 l 1
 582 18 l 1
 613.951171875 79.9873046875 639.018554688 146.705078125 640 246 c 0
 641.522460938 400.067382812 540 521.073242188 386 522 c 0
 226.822265625 522.969726562 122.0546875 404.700195312 123 250 c 0
 123.84765625 112.655273438 230.31640625 28.978515625 319 29 c 0
 406.336914062 29.021484375 442.682617188 83.4541015625 443 137 c 0
 443.30078125 185.03125 402.341796875 219.845703125 351 220 c 0
 302.694335938 220.139648438 241.918945312 180.250976562 237 115 c 0
 233.546875 66.5732421875 244.935546875 48.80078125 255 23 c 1
 238 7 l 1
 217.970703125 29.0234375 192.391601562 46.970703125 195.252929688 113 c 0
 199.935546875 221.059570312 276.18359375 296.76953125 376 296 c 0
 452.931640625 295.407226562 521.66015625 242.987304688 521 152 c 0
 520.4609375 77.751953125 475.381835938 -24.8681640625 339 -26 c 0
 171.83984375 -27.3876953125 64.716796875 103.0546875 65 244 c 0
 65.4306640625 458.423828125 215.815429688 586.826171875 407 584 c 0
 593.759765625 581.239257812 731.408203125 453.870117188 733 250 c 0
 733.790039062 158.431640625 707.012695312 75.56640625 679.517578125 9 c 1
 683.459960938 22.21875 621.213867188 45.427734375 625 56 c 1
 717.637695312 55.654296875 872.708984375 57.7001953125 935 64 c 9
371 -171.15234375 m 21
 270.491210938 -173.9609375 179.482421875 -171.306640625 135 -257 c 5
 161.15234375 -190 l 5
 168.229492188 -224 170.649414062 -242 177 -276 c 5
 159.735351562 -284.627929688 127.479492188 -289.81640625 107 -286.887695312 c 4
 94.76953125 -285.138671875 89.74609375 -264.458007812 90 -248 c 4
 91.6103515625 -143.537109375 203.58203125 -124.735351562 373 -120.868164062 c 13
 691 -124 1019.58886719 -112.141601562 1199 -108.868164062 c 0
 1468.234375 -104.74609375 1496.85546875 63.041015625 1498 255 c 0
 1499.17871094 452.678710938 1440.75878906 528.00390625 1357 526 c 0
 1315.88378906 525.016601562 1263.64160156 486.362304688 1258 437 c 1
 1244 405 l 1
 1244.29492188 417.466796875 1214.42285156 460.041992188 1217.49804688 472 c 0
 1226.72558594 509.201171875 1283.27246094 583.662109375 1376 586 c 0
 1479.50976562 588.609375 1598.93066406 517.956054688 1600 271 c 0
 1600.54003906 146.290039062 1578.1796875 -149.30078125 1213 -162.15234375 c 1
 1071.50195312 -165.454101562 371 -171.15234375 371 -171.15234375 c 21
925 0 m 1
 925.787109375 16.5615234375 929.446289062 38.3916015625 928.926757812 139 c 1
 930.700195312 422.177734375 l 2
 931.3203125 518.915039062 999.768554688 583.8203125 1091 585 c 0
 1153.22851562 585.8046875 1217.56054688 550.559570312 1245.09277344 490 c 1
 1260.36914062 453 l 1
 1260 443.249023438 l 1
 1260 0 l 1
 1230.91992188 -3.068359375 1203.60253906 -5.466796875 1168 -5 c 1
 1168 401.926757812 l 1
 1169.30273438 507.208984375 1125.80175781 527.807617188 1078 527 c 0
 1032.7890625 526.236328125 989.756835938 493.826171875 991.091796875 417.826171875 c 1
 988 0 l 1
 925 0 l 1
EndSplineSet
Fore
SplineSet
935 64 m 9
 935 64 967.463867188 35.1611328125 970 0 c 1
 596 0 l 1
 582 18 l 1
 613.951171875 79.9873046875 639.018554688 146.705078125 640 246 c 0
 641.522460938 400.067382812 540 521.073242188 386 522 c 0
 226.822265625 522.969726562 122.0546875 404.700195312 123 250 c 0
 123.84765625 112.655273438 230.31640625 28.978515625 319 29 c 0
 406.336914062 29.021484375 442.682617188 83.4541015625 443 137 c 0
 443.30078125 185.03125 402.341796875 219.845703125 351 220 c 0
 302.694335938 220.139648438 241.918945312 180.250976562 237 115 c 0
 233.546875 66.5732421875 244.935546875 48.80078125 255 23 c 1
 238 7 l 1
 217.970703125 29.0234375 192.391601562 46.970703125 195.252929688 113 c 0
 199.935546875 221.059570312 276.18359375 296.76953125 376 296 c 0
 452.931640625 295.407226562 521.66015625 242.987304688 521 152 c 0
 520.4609375 77.751953125 475.381835938 -24.8681640625 339 -26 c 0
 171.83984375 -27.3876953125 64.716796875 103.0546875 65 244 c 0
 65.4306640625 458.423828125 215.815429688 586.826171875 407 584 c 0
 593.759765625 581.239257812 731.408203125 453.870117188 733 250 c 0
 733.790039062 158.431640625 707.012695312 75.56640625 679.517578125 9 c 1
 683.459960938 22.21875 621.213867188 45.427734375 625 56 c 1
 717.637695312 55.654296875 872.708984375 57.7001953125 935 64 c 9
371 -171.15234375 m 21
 270.491210938 -173.9609375 179.482421875 -171.306640625 135 -257 c 5
 161.15234375 -190 l 5
 168.229492188 -224 170.649414062 -242 177 -276 c 5
 159.735351562 -284.627929688 127.479492188 -289.81640625 107 -286.887695312 c 4
 94.76953125 -285.138671875 89.74609375 -264.458007812 90 -248 c 4
 91.6103515625 -143.537109375 203.58203125 -124.735351562 373 -120.868164062 c 13
 691 -124 1019.58886719 -112.141601562 1199 -108.868164062 c 0
 1468.234375 -104.74609375 1496.85546875 63.041015625 1498 255 c 0
 1499.17871094 452.678710938 1440.75878906 528.00390625 1357 526 c 0
 1315.88378906 525.016601562 1263.64160156 486.362304688 1258 437 c 1
 1244 405 l 1
 1244.29492188 417.466796875 1214.42285156 460.041992188 1217.49804688 472 c 0
 1226.72558594 509.201171875 1283.27246094 583.662109375 1376 586 c 0
 1479.50976562 588.609375 1598.93066406 517.956054688 1600 271 c 0
 1600.54003906 146.290039062 1578.1796875 -149.30078125 1213 -162.15234375 c 1
 1071.50195312 -165.454101562 371 -171.15234375 371 -171.15234375 c 21
925 0 m 1
 925.787109375 16.5615234375 929.446289062 38.3916015625 928.926757812 139 c 1
 930.700195312 422.177734375 l 2
 931.3203125 518.915039062 999.768554688 583.8203125 1091 585 c 0
 1153.22851562 585.8046875 1217.56054688 550.559570312 1245.09277344 490 c 1
 1260.36914062 453 l 1
 1260 443.249023438 l 1
 1260 0 l 1
 1230.91992188 -3.068359375 1203.60253906 -5.466796875 1168 -5 c 1
 1168 401.926757812 l 1
 1169.30273438 507.208984375 1125.80175781 527.807617188 1078 527 c 0
 1032.7890625 526.236328125 989.756835938 493.826171875 991.091796875 417.826171875 c 1
 988 0 l 1
 925 0 l 1
EndSplineSet
Colour: ffffff
EndChar

StartChar: tml_MatraAa
Encoding: 293 3006 37
GlifName: tml_M_atraA_a
Width: 749
VWidth: 0
GlyphClass: 2
Flags: HW
LayerCount: 4
Back
SplineSet
88 0 m 5
 88 0 96 136 95 370 c 4
 94.6962890625 442.938476562 92.5771484375 503.999023438 90 561 c 5
 227.311523438 561.265625 482.044921875 560.47265625 635 570 c 5
 640.4296875 558.673828125 647.404296875 527 649 508 c 5
 609.375 508.266601562 514.041015625 507.958984375 472 508 c 5
 472 0 l 5
 441.802734375 -0.12890625 405.575195312 -0.1416015625 380 0 c 5
 382 370 l 6
 382.70703125 433.681640625 383.791015625 463.51171875 383 508 c 5
 283.202148438 508.69140625 204.405273438 508.171875 151.607421875 508 c 5
 151.98828125 455.611328125 153 416.990234375 154 364 c 4
 157 205 154 0 154 0 c 5
 88 0 l 5
EndSplineSet
Fore
SplineSet
48 0 m 1
 48 0 55.9258859152 144.821296849 55 394 c 4
 54.6962890625 470.757244968 52.5771484375 535.014679115 50 595 c 5
 215.025775875 595.265625 521.173254731 594.47265625 705 604 c 5
 710.4296875 581.713016633 717.404296875 519.387096774 719 482 c 5
 686.091101695 482.266601562 606.915419756 481.958984375 572 482 c 5
 572 0 l 1
 495.850373641 -0.12890625 404.493970787 -0.1416015625 340 0 c 1
 342 374 l 6
 342.348305671 438.436549109 342 459.959295743 337 492 c 5
 265.236151966 492 208.573940561 492 170.607421875 492 c 5
 173.625015944 446.887532552 174.699532747 413.633313899 177 368 c 4
 180 207.252747253 177 0 177 0 c 1
 48 0 l 1
EndSplineSet
Colour: ff00
EndChar

StartChar: tml_MatraI
Encoding: 294 3007 38
GlifName: tml_M_atraI_
Width: 206
Flags: HW
LayerCount: 4
Back
SplineSet
-331 657 m 0
 -333.209834432 763.334367486 -244.190271101 850 -131 850 c 0
 18.6179339497 850 125 727.02599651 125 527 c 2
 122.825195312 146 l 1
 120 0 l 1
 60 0 l 1
 62.1618121455 51.5452287722 63.6085691803 105.674669623 64 150 c 1
 67 496 l 2
 68.8227135279 707.035419384 -24.4130319203 775 -140 775 c 0
 -226.080566407 775 -283 729.343280507 -283 657 c 0
 -283 609.037813576 -256.126474514 550.256018535 -198 547 c 1
 -234 520 l 1
 -284.396648045 520 -329.010420613 578.594102949 -331 657 c 0
EndSplineSet
Fore
SplineSet
-331 657 m 0
 -333.209834432 763.334367486 -244.190271101 850 -131 850 c 0
 18.6179339497 850 125 727.02599651 125 527 c 2
 122.825195312 146 l 1
 120 0 l 1
 60 0 l 1
 62.1618121455 51.5452287722 63.6085691803 105.674669623 64 150 c 1
 67 496 l 2
 68.8227135279 707.035419384 -24.4130319203 775 -140 775 c 0
 -226.080566407 775 -283 729.343280507 -283 657 c 0
 -283 609.037813576 -256.126474514 550.256018535 -198 547 c 1
 -234 520 l 1
 -284.396648045 520 -329.010420613 578.594102949 -331 657 c 0
EndSplineSet
Substitution2: "Single Substitution lookup 24 subtable" tml_MatraI.stylalt1
Substitution2: "Single Substitution lookup 23 subtable" tml_MatraI.alt7
Substitution2: "Single Substitution lookup 22 subtable" tml_MatraI.alt6
Substitution2: "Single Substitution lookup 21 subtable" tml_MatraI.alt5
Substitution2: "Single Substitution lookup 20 subtable" tml_MatraI.alt4
Substitution2: "Single Substitution lookup 19 subtable" tml_MatraI.alt3
Substitution2: "Single Substitution lookup 18 subtable" tml_MatraI.alt2
Substitution2: "Single Substitution lookup 17 subtable" tml_MatraI.alt1
Colour: ffffff
EndChar

StartChar: tml_MatraIi
Encoding: 295 3008 39
GlifName: tml_M_atraI_i
Width: 1
GlyphClass: 4
Flags: HW
LayerCount: 4
Back
SplineSet
-28 648 m 0
 -30.3359375 623.346679688 -2.880859375 593.403320312 39 594 c 0
 66.8349609375 594.489257812 82.80859375 620.78125 84 645 c 0
 86.4326171875 678.0390625 49.888671875 717.930664062 -5 717 c 256
 -19.7373046875 715.868164062 -27.203125 679.44921875 -28 648 c 0
-297 508 m 0
 -298.23046875 679.228515625 -168.830078125 773 -35 773 c 0
 73.2936467778 773 166.038121357 728.598632812 168 642 c 4
 169.434004934 562.965909091 116.205866228 512.701704545 44 512 c 0
 -24.54296875 511.275716146 -70.6337890625 561.76515997 -72 637 c 0
 -72.357421875 674.446289062 -63.4892578125 706.008789062 -50 722 c 1
 -148.083984375 727.625 -244.83203125 642.631835938 -245 517 c 0
 -245.09765625 441.58203125 -197.565429688 368.471679688 -118 363 c 1
 -118 310 l 1
 -249.59375 320.44921875 -296.422851562 434.96484375 -297 508 c 0
EndSplineSet
Fore
SplineSet
-28 648 m 0
 -30.3359375 623.346679688 -2.880859375 593.403320312 39 594 c 0
 66.8349609375 594.489257812 82.80859375 620.78125 84 645 c 0
 86.4326171875 678.0390625 49.888671875 717.930664062 -5 717 c 256
 -19.7373046875 715.868164062 -27.203125 679.44921875 -28 648 c 0
-297 508 m 0
 -298.23046875 679.228515625 -168.830078125 773 -35 773 c 0
 73.2936467778 773 166.038121357 728.598632812 168 642 c 4
 169.434004934 562.965909091 116.205866228 512.701704545 44 512 c 0
 -24.54296875 511.275716146 -70.6337890625 561.76515997 -72 637 c 0
 -72.357421875 674.446289062 -63.4892578125 706.008789062 -50 722 c 1
 -148.083984375 727.625 -244.83203125 642.631835938 -245 517 c 0
 -245.09765625 441.58203125 -197.565429688 368.471679688 -118 363 c 1
 -118 310 l 1
 -249.59375 320.44921875 -296.422851562 434.96484375 -297 508 c 0
EndSplineSet
Substitution2: "Single Substitution lookup 24 subtable" tml_MatraIi.stylalt1
Substitution2: "Single Substitution lookup 17 subtable" tml_MatraIi.alt1
Colour: ffffff
EndChar

StartChar: tml_MatraU
Encoding: 296 3009 40
GlifName: tml_M_atraU_
Width: 299
Flags: HW
LayerCount: 4
Back
SplineSet
-135 528 m 1
 -135 564 l 1
 284 564 l 5
 271.054273701 524.517512375 276.345582366 509.349737615 274 484 c 5
 275.55481455 430.977098086 220.660385112 388.109647667 167 390 c 0
 114.026645011 388.197358522 61.4138114479 431.378953776 63 484 c 1
 63 528 l 1
 -135 528 l 1
103 484 m 1
 101.422015 450.377394439 128.111196002 419.563040685 159 420 c 0
 182.792290364 419.923122034 199.720805656 453.553700097 199 485 c 2
 199 528 l 1
 103 528 l 1
 103 484 l 1
EndSplineSet
Fore
SplineSet
-135 528 m 1
 -135 564 l 1
 284 564 l 5
 271.054273701 524.517512375 276.345582366 509.349737615 274 484 c 5
 275.55481455 430.977098086 220.660385112 388.109647667 167 390 c 0
 114.026645011 388.197358522 61.4138114479 431.378953776 63 484 c 1
 63 528 l 1
 -135 528 l 1
103 484 m 1
 101.422015 450.377394439 128.111196002 419.563040685 159 420 c 0
 182.792290364 419.923122034 199.720805656 453.553700097 199 485 c 2
 199 528 l 1
 103 528 l 1
 103 484 l 1
EndSplineSet
Substitution2: "Single Substitution lookup 23 subtable" tml_MatraU.alt1
Colour: ffffff
EndChar

StartChar: tml_MatraUu
Encoding: 297 3010 41
GlifName: tml_M_atraU_u
Width: 593
Flags: HW
LayerCount: 4
Back
SplineSet
-135 370 m 1
 -135 400 l 1
 166 400 l 1
 166 438.666666667 181.666666667 471.333333333 213 498 c 0
 244.333333333 525.333333333 282 539 326 539 c 0
 394.666666667 539 449.666666667 516.333333333 491 471 c 0
 532.333333333 425 553 364.333333333 553 289 c 0
 553 213.666666667 528.666666667 153 480 107 c 0
 430.666666667 61.6666666667 365.333333333 39 284 39 c 0
 214 39 158 59 116 99 c 256
 74 139 53 192.333333333 53 259 c 1
 89 259 l 1
 89 201.666666667 106.666666667 155.666666667 142 121 c 256
 177.333333333 86.3333333333 224.333333333 69 283 69 c 256
 341.666666667 69 389 89 425 129 c 0
 460.333333333 169 478 222 478 288 c 0
 478 354.666666667 464 408.333333333 436 449 c 0
 408 489 370.666666667 509 324 509 c 0
 289.333333333 509 260 498.333333333 236 477 c 0
 211.333333333 455.666666667 199 430 199 400 c 1
 374 400 l 1
 374 320 l 2
 374 294 363.666666667 271.666666667 343 253 c 256
 322.333333333 234.333333333 297.333333333 225 268 225 c 0
 239.333333333 225 215 234.333333333 195 253 c 0
 175 272.333333333 165 295.333333333 165 322 c 2
 165 370 l 1
 -135 370 l 1
195 320 m 2
 195 302 200.333333333 286.666666667 211 274 c 256
 221.666666667 261.333333333 234.666666667 255 250 255 c 0
 263.333333333 255 275 261.333333333 285 274 c 0
 294.333333333 287.333333333 299 303 299 321 c 2
 299 370 l 1
 195 370 l 1
 195 320 l 2
EndSplineSet
Fore
SplineSet
-135 370 m 1
 -135 400 l 1
 166 400 l 1
 166 438.666666667 181.666666667 471.333333333 213 498 c 0
 244.333333333 525.333333333 282 539 326 539 c 0
 394.666666667 539 449.666666667 516.333333333 491 471 c 0
 532.333333333 425 553 364.333333333 553 289 c 0
 553 213.666666667 528.666666667 153 480 107 c 0
 430.666666667 61.6666666667 365.333333333 39 284 39 c 0
 214 39 158 59 116 99 c 256
 74 139 53 192.333333333 53 259 c 1
 89 259 l 1
 89 201.666666667 106.666666667 155.666666667 142 121 c 256
 177.333333333 86.3333333333 224.333333333 69 283 69 c 256
 341.666666667 69 389 89 425 129 c 0
 460.333333333 169 478 222 478 288 c 0
 478 354.666666667 464 408.333333333 436 449 c 0
 408 489 370.666666667 509 324 509 c 0
 289.333333333 509 260 498.333333333 236 477 c 0
 211.333333333 455.666666667 199 430 199 400 c 1
 374 400 l 1
 374 320 l 2
 374 294 363.666666667 271.666666667 343 253 c 256
 322.333333333 234.333333333 297.333333333 225 268 225 c 0
 239.333333333 225 215 234.333333333 195 253 c 0
 175 272.333333333 165 295.333333333 165 322 c 2
 165 370 l 1
 -135 370 l 1
195 320 m 2
 195 302 200.333333333 286.666666667 211 274 c 256
 221.666666667 261.333333333 234.666666667 255 250 255 c 0
 263.333333333 255 275 261.333333333 285 274 c 0
 294.333333333 287.333333333 299 303 299 321 c 2
 299 370 l 1
 195 370 l 1
 195 320 l 2
EndSplineSet
Colour: ffffff
EndChar

StartChar: tml_MatraE
Encoding: 298 3014 42
GlifName: tml_M_atraE_
Width: 979
VWidth: 0
Flags: HW
LayerCount: 4
Back
SplineSet
65.2021484375 398.9765625 m 4
 65.2021484375 154.883789062 195.08203125 -29.1748046875 444.064453125 -27.0595703125 c 4
 559.827148438 -26.1103515625 659.006835938 52.6220703125 659.006835938 175.5234375 c 4
 659.006835938 266.795898438 586.450195312 329.051757812 497.01171875 329.051757812 c 4
 387.57421875 329.051757812 309.3203125 239.734375 310.991210938 136.840820312 c 4
 312.328125 54.548828125 359.196289062 4.2890625 411.1328125 -26.8681640625 c 5
 429 10 l 5
 388.638671875 32.7705078125 361.798828125 79.1611328125 363.921875 137.821289062 c 4
 366.361328125 205.219726562 403.840820312 258.00390625 472.340820312 258.00390625 c 4
 536.71484375 258.00390625 571.715820312 212.830078125 571.002929688 155.8984375 c 4
 570.124023438 85.6884765625 513.508515427 36.4827934234 431.287109375 38.9990234375 c 4
 216.592773438 45.5693359375 125.130824155 220.487416226 127.93359375 399.416992188 c 4
 131.683385173 637.338707535 269.794500061 769.121053465 454.521484375 771.466796875 c 4
 651.559861124 773.968875689 784 654.663952622 784 447 c 6
 784 137 l 6
 784.323567708 66.8727654926 779.591959636 12.8751489672 777 -1 c 5
 850 -1 l 5
 850.012695312 480.40234375 l 6
 850.851677552 706.763457585 691.053199175 866.194335938 473.116210938 866.194335938 c 4
 208.411944795 866.194335938 65.2021484375 642.708914645 65.2021484375 398.9765625 c 4
EndSplineSet
Fore
SplineSet
60.2021484375 413.9765625 m 4
 60.2021484375 161.289702037 195.565886088 -29.1032194693 455.064453125 -27.0595703125 c 0
 592.908742796 -25.9088716522 711.006835938 69.5351894525 711.006835938 218.5234375 c 0
 711.006835938 338.926358388 617.847071423 421.051757812 503.01171875 421.051757812 c 4
 364.158779213 421.051757812 264.200615271 316.838063649 266.991210938 176.840820312 c 0
 268.937633399 74.4398948877 342.152961742 11.9018949129 423.1328125 -26.8681640625 c 1
 441 10 l 1
 394.436691083 38.1148071808 363.754446344 95.3718119908 365.921875 167.821289062 c 0
 367.888822923 231.854925275 398.108796641 282.00390625 453.340820312 282.00390625 c 0
 510.537678551 282.00390625 541.611270344 239.484956622 541.002929688 185.8984375 c 0
 540.262418198 129.502310571 492.56691968 90.1175147988 423.287109375 91.9990234375 c 0
 276.728280176 97.1291894062 192.611048286 233.710810897 194.93359375 373.416992188 c 0
 198.143744231 569.792967875 321.677461275 681.3898814 474.521484375 683.466796875 c 0
 649.287246206 685.96783797 778 561.927641132 778 370 c 2
 778 147 l 2
 778 111.791081833 770.443359376 13.8805945445 766 -1 c 1
 909 -1 l 1
 909.012695312 477.40234375 l 2
 909.019480936 740.141607664 754.419844746 925.194335938 496.116210938 925.194335938 c 0
 228.913107398 925.194335938 60.2021484375 713.5799416 60.2021484375 413.9765625 c 4
EndSplineSet
Colour: ff00
EndChar

StartChar: tml_MatraEe
Encoding: 299 3015 43
GlifName: tml_M_atraE_e
Width: 790
Flags: HW
LayerCount: 4
Back
SplineSet
65 397 m 0
 63.5453752964 178.274726919 225.322936324 -28.6276684461 491.064453125 -27.0595703125 c 0
 628.457844193 -26.2488339146 713.006835938 44.0487702225 713.006835938 159.5234375 c 0
 713.006835938 253.711423909 640.245233002 321.051757812 548.01171875 321.051757812 c 0
 441.469076596 321.051757812 362.389384813 235.967976805 363.991210938 136.840820312 c 0
 365.328125 54.548828125 415.196289062 4.2890625 467.1328125 -26.8681640625 c 1
 485 10 l 1
 444.638671875 32.7705078125 417.313592341 79.1807048151 419.921875 137.821289062 c 0
 422.293789509 191.147738217 461.736218968 242.00390625 525.340820312 242.00390625 c 0
 587.549739607 242.00390625 627.61330608 201.165158031 627.002929688 152.8984375 c 0
 626.124023437 78.4482582382 567.513702165 41.7228512817 487.287109375 41.9990234375 c 0
 268.1953125 42.7489250824 134.871851024 221.81754661 132 400 c 0
 127.888671875 655.085144043 305.076236292 795.756558853 495 790 c 0
 586.024370797 787.241065903 647.40319473 750.366752575 648 680 c 0
 648.384778145 634.632457386 620.628690792 608.137786035 575 608 c 4
 512.416992188 607.811016614 485.481322344 647.83970986 484 686 c 256
 481.728515625 744.515625 519.724609375 792.346679688 558 809 c 1
 507.83984375 830.323242188 l 1
 469.438476562 812.75390625 426.149218667 746.036209336 425 671 c 0
 423.686865545 585.261197917 486.473850256 524.986726262 580 526 c 0
 691.41015625 527.20703125 738.102626077 607.550015873 737 689 c 0
 735.814774525 776.551526372 656.88592349 857 502 857 c 0
 279.872070312 857 66.9650462929 692.475036254 65 397 c 0
EndSplineSet
Fore
SplineSet
65 397 m 0
 63.5453752964 178.274726919 225.322936324 -28.6276684461 491.064453125 -27.0595703125 c 0
 628.457844193 -26.2488339146 713.006835938 44.0487702225 713.006835938 159.5234375 c 0
 713.006835938 253.711423909 640.245233002 321.051757812 548.01171875 321.051757812 c 0
 441.469076596 321.051757812 362.389384813 235.967976805 363.991210938 136.840820312 c 0
 365.328125 54.548828125 415.196289062 4.2890625 467.1328125 -26.8681640625 c 1
 485 10 l 1
 444.638671875 32.7705078125 417.313592341 79.1807048151 419.921875 137.821289062 c 0
 422.293789509 191.147738217 461.736218968 242.00390625 525.340820312 242.00390625 c 0
 587.549739607 242.00390625 627.61330608 201.165158031 627.002929688 152.8984375 c 0
 626.124023437 78.4482582382 567.513702165 41.7228512817 487.287109375 41.9990234375 c 0
 268.1953125 42.7489250824 134.871851024 221.81754661 132 400 c 0
 127.888671875 655.085144043 305.076236292 795.756558853 495 790 c 0
 586.024370797 787.241065903 647.40319473 750.366752575 648 680 c 0
 648.384778145 634.632457386 620.628690792 608.137786035 575 608 c 4
 512.416992188 607.811016614 485.481322344 647.83970986 484 686 c 256
 481.728515625 744.515625 519.724609375 792.346679688 558 809 c 1
 507.83984375 830.323242188 l 1
 469.438476562 812.75390625 426.149218667 746.036209336 425 671 c 0
 423.686865545 585.261197917 486.473850256 524.986726262 580 526 c 0
 691.41015625 527.20703125 738.102626077 607.550015873 737 689 c 0
 735.814774525 776.551526372 656.88592349 857 502 857 c 0
 279.872070312 857 66.9650462929 692.475036254 65 397 c 0
EndSplineSet
Layer: 2
SplineSet
73 399 m 5
 73.2042815675 154.883344058 204.453577375 -29.100521857 456.064453125 -27.0595703125 c 4
 571.827492131 -26.110645076 669.006835938 48.6220703125 669.006835938 171.5234375 c 4
 669.006835938 262.795898438 598.450450175 328.051757812 509.01171875 328.051757812 c 4
 399.574269569 328.051757812 325.320139241 239.734688471 326.991210938 136.840820312 c 4
 328.327700922 54.5483462543 371.196770525 4.28861348098 423.1328125 -26.8681640625 c 5
 441 10 l 5
 400.638272493 32.7704350035 373.798503889 79.1612346694 375.921875 137.821289062 c 4
 378.361572311 205.220141869 415.840905273 261.00390625 484.340820312 261.00390625 c 4
 548.714462823 261.00390625 583.715504074 212.830354369 583.002929688 155.8984375 c 4
 582.124159364 85.6881128067 525.513214398 36.6413382685 443.287109375 38.9990234375 c 4
 218.592773437 45.441728017 131.201171875 216.961500722 133.93359375 392.416992188 c 5
 134.997596154 660.890698242 276.592562141 794.196652815 466 789 c 4
 559.999023438 786.42100788 626.50817377 741.774385562 627 676 c 4
 627.442892007 616.769833151 595.503757715 582.186620499 543 582 c 4
 485.578125 581.795898438 455.532825682 635.753916453 454 677 c 260
 451.790039063 736.466796875 488.758789062 785.076171875 526 802 c 5
 478.83984375 823.323242188 l 5
 440.438476562 805.533203125 397.081403089 737.97955686 396 662 c 4
 394.678710938 569.166015625 450.870116704 503.948288675 552 505 c 4
 664.12109375 506.166015625 711.147278743 589.5527319 710 674 c 4
 708.75390625 765.720703125 625.794921875 850 463 850 c 4
 246.42485341 850 75.8750338937 711.030545869 73 399 c 5
EndSplineSet
Colour: ffffff
EndChar

StartChar: tml_MatraAi
Encoding: 300 3016 44
GlifName: tml_M_atraA_i
Width: 1325
VWidth: 0
Flags: HW
LayerCount: 4
Back
SplineSet
927 583.5 m 4
 731.793945312 582.713867188 578.322265625 425.555664062 578.000976562 205 c 0
 577.829101562 87.1533203125 624.435546875 -19.1904296875 738.000976562 -19 c 0
 854.47265625 -18.8046875 922.838867188 83.927734375 923.000976562 206 c 0
 923.307617188 436.872070312 692.002929688 587.73046875 456.000976562 585 c 0
 244.950195312 582.55859375 66.4267578125 452.301757812 65 239 c 0
 64.0576171875 98.0576171875 155.833984375 -26.23828125 319 -26 c 0
 449.380859375 -25.8095703125 501.455078125 74.751953125 502 149 c 0
 502.66015625 238.987304688 437.931640625 296.413085938 355 297 c 0
 254.18359375 297.713867188 181.935546875 219.059570312 180.252929688 118 c 0
 179.15234375 51.91796875 202.970703125 31.0234375 223 9 c 1
 240 25 l 1
 224.935546875 50.80078125 219.03125 71.490234375 221 120 c 0
 223.918945312 187.979492188 277.694335938 223.147460938 326 223 c 0
 380.131835938 222.834960938 420.323242188 184.50390625 420 133 c 0
 419.669921875 80.4541015625 383.802734375 32.0185546875 308 32 c 0
 204.891601562 31.974609375 119.963867188 116.65625 119 244 c 0
 117.6953125 416.41015625 274.00390625 531.244140625 453.000976562 528 c 0
 649.0078125 524.447265625 837.09375 384.9765625 836.000976562 186 c 0
 835.538085938 101.765625 793.104492188 42.0302734375 735.000976562 42 c 0
 673.627929688 41.9677734375 635.862304688 117.47265625 636.000976562 218 c 0
 636.279296875 419.869140625 780.953125 522.202148438 907 522.099609375 c 0
 1060 521.975585938 1158.05566406 413.287109375 1159.00097656 266 c 0
 1159.62011719 169.590820312 1122.48632812 74.78515625 1078.00097656 4 c 1
 1085.16308594 -7.4189453125 1105.27441406 -20.38671875 1123.00097656 -25 c 1
 1167.85351562 14.8486328125 1254.85449219 141.978515625 1255.00097656 274 c 0
 1255.25195312 499.984375 1085.73242188 584.138671875 927 583.5 c 4
EndSplineSet
Fore
SplineSet
927 583.5 m 4
 731.793945312 582.713867188 578.322265625 425.555664062 578.000976562 205 c 0
 577.829101562 87.1533203125 624.435546875 -19.1904296875 738.000976562 -19 c 0
 854.47265625 -18.8046875 922.838867188 83.927734375 923.000976562 206 c 0
 923.307617188 436.872070312 692.002929688 587.73046875 456.000976562 585 c 0
 244.950195312 582.55859375 66.4267578125 452.301757812 65 239 c 0
 64.0576171875 98.0576171875 155.833984375 -26.23828125 319 -26 c 0
 449.380859375 -25.8095703125 501.455078125 74.751953125 502 149 c 0
 502.66015625 238.987304688 437.931640625 296.413085938 355 297 c 0
 254.18359375 297.713867188 181.935546875 219.059570312 180.252929688 118 c 0
 179.15234375 51.91796875 202.970703125 31.0234375 223 9 c 1
 240 25 l 1
 224.935546875 50.80078125 219.03125 71.490234375 221 120 c 0
 223.918945312 187.979492188 277.694335938 223.147460938 326 223 c 0
 380.131835938 222.834960938 420.323242188 184.50390625 420 133 c 0
 419.669921875 80.4541015625 383.802734375 32.0185546875 308 32 c 0
 204.891601562 31.974609375 119.963867188 116.65625 119 244 c 0
 117.6953125 416.41015625 274.00390625 531.244140625 453.000976562 528 c 0
 649.0078125 524.447265625 837.09375 384.9765625 836.000976562 186 c 0
 835.538085938 101.765625 793.104492188 42.0302734375 735.000976562 42 c 0
 673.627929688 41.9677734375 635.862304688 117.47265625 636.000976562 218 c 0
 636.279296875 419.869140625 780.953125 522.202148438 907 522.099609375 c 0
 1060 521.975585938 1158.05566406 413.287109375 1159.00097656 266 c 0
 1159.62011719 169.590820312 1122.48632812 74.78515625 1078.00097656 4 c 1
 1085.16308594 -7.4189453125 1105.27441406 -20.38671875 1123.00097656 -25 c 1
 1167.85351562 14.8486328125 1254.85449219 141.978515625 1255.00097656 274 c 0
 1255.25195312 499.984375 1085.73242188 584.138671875 927 583.5 c 4
EndSplineSet
Substitution2: "Single Substitution lookup 24 subtable" tml_MatraAi.alt
Colour: ffffff
EndChar

StartChar: tml_MatraAu
Encoding: 303 3020 47
GlifName: tml_M_atraA_u
Width: 1271
VWidth: 0
Flags: HW
LayerCount: 4
Back
SplineSet
630 0 m 1
 630 0 629.872070312 138.272460938 630 344 c 0
 630.008789062 358.879882812 673.067382812 334.216796875 673 350 c 0
 672.696289062 420.999023438 673.577148438 497.514648438 671 553 c 1
 808.815429688 553.265625 1058.48339844 553.47265625 1212 563 c 1
 1217.4296875 552.666992188 1224.40429688 528.333007812 1226 511 c 1
 1185.28613281 511.266601562 1082.19628906 510.958984375 1039 511 c 1
 1039 0 l 1
 1008.10839844 -0.12890625 976.163085938 -0.1416015625 950 0 c 1
 952 370 l 2
 952.70703125 433.681640625 953.791015625 466.51171875 953 511 c 1
 853.202148438 511.69140625 771.405273438 511.171875 718.607421875 511 c 1
 718.98828125 458.611328125 718 409.990234375 719 347 c 2
 719 0 l 1
 630 0 l 1
62 238 m 0
 62.4267578125 439.301757812 204.153320312 576 389 576 c 0
 575 576 687.668945312 458.885742188 714 342 c 1
 637 296 l 1
 628.583007812 416.264648438 521.70703125 519.577148438 376 521 c 0
 230.002929688 522.42578125 108.763671875 407.411132812 110 241 c 0
 110.998046875 106.65625 207.891601562 28.9775390625 311 29 c 0
 395.802734375 29.0185546875 436.669921875 83.4541015625 437 136 c 0
 437.323242188 187.50390625 395.131835938 226.834960938 341 227 c 0
 292.694335938 227.147460938 233.918945312 187.979492188 231 120 c 0
 229.03125 71.490234375 234.935546875 50.80078125 250 25 c 1
 233 9 l 1
 212.970703125 31.0234375 191.15234375 51.91796875 192.252929688 118 c 0
 193.935546875 219.059570312 261.18359375 297.688476562 362 297 c 0
 447.931640625 296.413085938 511.66015625 237.987304688 511 148 c 0
 510.455078125 73.751953125 459.380845855 -27.8107567464 329 -28 c 0
 164.833984375 -28.23828125 61.701171875 97.0546875 62 238 c 0
EndSplineSet
Fore
SplineSet
630 0 m 1
 630 0 629.872070312 138.272460938 630 344 c 0
 630.008789062 358.879882812 673.067382812 334.216796875 673 350 c 0
 672.696289062 420.999023438 673.577148438 497.514648438 671 553 c 1
 808.815429688 553.265625 1058.48339844 553.47265625 1212 563 c 1
 1217.4296875 552.666992188 1224.40429688 528.333007812 1226 511 c 1
 1185.28613281 511.266601562 1082.19628906 510.958984375 1039 511 c 1
 1039 0 l 1
 1008.10839844 -0.12890625 976.163085938 -0.1416015625 950 0 c 1
 952 370 l 2
 952.70703125 433.681640625 953.791015625 466.51171875 953 511 c 1
 853.202148438 511.69140625 771.405273438 511.171875 718.607421875 511 c 1
 718.98828125 458.611328125 718 409.990234375 719 347 c 2
 719 0 l 1
 630 0 l 1
62 238 m 0
 62.4267578125 439.301757812 204.153320312 576 389 576 c 0
 575 576 687.668945312 458.885742188 714 342 c 1
 637 296 l 1
 628.583007812 416.264648438 521.70703125 519.577148438 376 521 c 0
 230.002929688 522.42578125 108.763671875 407.411132812 110 241 c 0
 110.998046875 106.65625 207.891601562 28.9775390625 311 29 c 0
 395.802734375 29.0185546875 436.669921875 83.4541015625 437 136 c 0
 437.323242188 187.50390625 395.131835938 226.834960938 341 227 c 0
 292.694335938 227.147460938 233.918945312 187.979492188 231 120 c 0
 229.03125 71.490234375 234.935546875 50.80078125 250 25 c 1
 233 9 l 1
 212.970703125 31.0234375 191.15234375 51.91796875 192.252929688 118 c 0
 193.935546875 219.059570312 261.18359375 297.688476562 362 297 c 0
 447.931640625 296.413085938 511.66015625 237.987304688 511 148 c 0
 510.455078125 73.751953125 459.380845855 -27.8107567464 329 -28 c 0
 164.833984375 -28.23828125 61.701171875 97.0546875 62 238 c 0
EndSplineSet
Colour: ffffff
EndChar

StartChar: tml_Virama
Encoding: 304 3021 48
GlifName: tml_V_irama
Width: 0
VWidth: 0
GlyphClass: 4
Flags: HW
AnchorPoint: "Anchor-0" -0.0576172 713.235 mark 0
LayerCount: 4
Back
SplineSet
-69.0576171875 715.1953125 m 4
 -70.248046875 752.036132812 -35.5927734375 780.979492188 1.5029296875 782.39453125 c 4
 35.0615234375 783.67578125 65.24609375 754.127929688 66.1826171875 721.075195312 c 4
 67.23828125 683.797851562 36.345703125 652.73046875 -1.017578125 651.35546875 c 4
 -37.53125 650.010742188 -67.9140625 679.80859375 -69.0576171875 715.1953125 c 4
EndSplineSet
Fore
SplineSet
-97.37109375 716.505859375 m 4
 -99.0495973028 768.450923462 -50.1857289043 809.260673216 2.119140625 811.255859375 c 4
 49.4366970106 813.062415549 91.9968864624 771.400090725 93.3173828125 724.795898438 c 4
 94.8058640781 672.234911628 51.2474770704 628.429958434 -1.4345703125 626.491210938 c 4
 -52.9188843413 624.595136611 -95.7586804917 666.610326107 -97.37109375 716.505859375 c 4
EndSplineSet
Colour: ff00
EndChar

StartChar: tml_TtI
Encoding: 328 -1 72
GlifName: tml_T_tI_
Width: 1084
VWidth: 0
Flags: HW
LayerCount: 4
Back
SplineSet
88 0 m 1
 90.556640625 25.4814453125 94 103.978515625 94 147 c 2
 94 554 l 1
 112.333984375 557.639648438 158.322265625 561.139648438 184 561 c 1
 184 56 l 1
 397 56 l 2
 535.815429688 56.99609375 795.483398438 54.47265625 954 66 c 1
 960.4296875 53.6904296875 967.404296875 21 968 0 c 1
 927.286132812 0.2666015625 697.196289062 -0.041015625 654 0 c 2
 88 0 l 1
395.9609375 305.596679688 m 0
 397.680855947 425.76422718 478.129535693 519.30859375 591.955078125 519.30859375 c 0
 694.412109375 519.30859375 763 459.360351562 763 339 c 2
 763 -194 l 1
 676 -194 l 1
 675 339 l 2
 674.284438473 407.934570312 645.764720425 461.494140625 572.181640625 461.494140625 c 0
 517.703925341 461.494140625 453.384765625 409.884274648 453.384765625 298.685546875 c 0
 453.384765625 181.987825093 546.162394089 53.6498194939 668 53 c 1
 643 21 l 1
 639.7265625 20.85546875 636.449160722 20.8847204489 633.174804688 20.7841796875 c 0
 484.720035826 16.1478300049 393.985620973 166.350501547 395.9609375 305.596679688 c 0
EndSplineSet
Fore
SplineSet
324 115 m 1
 418 115 l 2
 586.946140036 115 902.332604564 111.9453125 1095 135 c 1
 1101.4296875 109.821333452 1108.40429688 42.9545454546 1109 0 c 1
 1052.72669313 0.2666015625 734.43312102 0 675 0 c 2
 70 0 l 1
 72.556640625 25.4814453125 76 53.978515625 76 147 c 2
 76 575 l 1
 138.117513023 578.639648438 256.786132811 582.139648438 326 582 c 1
 324 115 l 1
441.9609375 292.596679688 m 0
 444.128399125 461.814315014 545.510779512 556.30859375 688.955078125 556.30859375 c 0
 829.748529586 556.30859375 924 487.383505227 924 349 c 6
 924 -194 l 1
 697 -194 l 1
 696 339 l 2
 695.916346179 391.052631423 678.13828435 431.494140625 633.181640625 431.494140625 c 0
 598.422809001 431.494140625 557.384765625 388.443198654 557.384765625 295.685546875 c 0
 557.384765625 192.28749311 622.927651829 78.5757616339 709 78 c 1
 684 26 l 1
 680.7265625 25.85546875 677.450338495 25.7352494915 674.174804688 25.7841796875 c 0
 519.018507334 28.1156270833 440.253527984 162.14567091 441.9609375 292.596679688 c 0
EndSplineSet
LCarets2: 1 0
Ligature2: "'abvs' Above Base Substitutions lookup 1 subtable" tml_Tta tml_MatraI
Colour: ff00
EndChar

StartChar: tml_KU
Encoding: 329 -1 73
GlifName: tml_K_U_
Width: 1198
VWidth: 0
Flags: HW
LayerCount: 4
Back
SplineSet
886 325 m 0
 842.560546875 325.459960938 792.889648438 325.784179688 758 326.026367188 c 0
 645.811523438 326.807617188 568.728515625 326.538085938 502 325 c 0
 387.479492188 322.360351562 317.055664062 268.076171875 315.533203125 164 c 0
 314.201171875 73.35546875 386.81640625 -23 555 -23 c 0
 721.107421875 -23 806.248046875 84.0673828125 809 223 c 1
 808 301 l 1
 808 511 l 1
 850.272460938 510.958984375 942.157226562 511.266601562 982 511 c 1
 980.404296875 528.333007812 973.4296875 559.666992188 968 570 c 1
 827.112304688 560.47265625 632.477539062 561.265625 466 561 c 1
 468.577148438 505.514648438 470.696289062 440.999023438 471 370 c 0
 471.213867188 320.028320312 464 291 464 291 c 1
 526 291 l 1
 526 364 l 2
 526 417 523.98828125 458.611328125 523.607421875 511 c 1
 566.984375 511.171875 634.008789062 511.69140625 716 511 c 1
 716 370 l 1
 714.934570312 301 l 1
 714.787109375 283 l 1
 714 223 l 2
 712.670898438 99.4140625 646.583984375 34.3564453125 545 34 c 0
 437.62109375 33.623046875 370 98.21875 370 167 c 0
 370 231.600585938 410.853515625 273 495 273 c 2
 729 273 l 1
 755 273 l 1
 851 273 l 1
 968.474609375 271.482421875 1023.30078125 189.735351562 1024 84 c 5
 1023.12988281 -131.036132812 864.920898438 -259.823242188 625 -258 c 4
 325.5546875 -255.724609375 142.495117188 -59.2333984375 144.772460938 174 c 4
 146.37109375 337.745117188 236.083007812 472.669921875 363 556 c 5
 349.844726562 575.758789062 332.510742188 594.452148438 314 602 c 5
 214.415039062 534.927734375 95.2529296875 377.166992188 92.8232421875 170 c 4
 89.79296875 -88.4169921875 270.818359375 -316 637 -316 c 4
 961.436523438 -316 1133.41503906 -107.442382812 1133 83 c 4
 1132.65153305 242.895493415 1011.50195312 322.958984375 886 325 c 0
EndSplineSet
Fore
SplineSet
886 325 m 0
 842.560546875 325.459960938 792.889648438 325.784179688 758 326.026367188 c 0
 645.811523438 326.807617188 568.728515625 326.538085938 502 325 c 0
 387.479492188 322.360351562 317.055664062 268.076171875 315.533203125 164 c 0
 314.201171875 73.35546875 386.81640625 -23 555 -23 c 0
 721.107421875 -23 806.248046875 84.0673828125 809 223 c 1
 808 301 l 1
 808 511 l 1
 850.272460938 510.958984375 942.157226562 511.266601562 982 511 c 1
 980.404296875 528.333007812 973.4296875 559.666992188 968 570 c 1
 827.112304688 560.47265625 632.477539062 561.265625 466 561 c 1
 468.577148438 505.514648438 470.696289062 440.999023438 471 370 c 0
 471.213867188 320.028320312 464 291 464 291 c 1
 526 291 l 1
 526 364 l 2
 526 417 523.98828125 458.611328125 523.607421875 511 c 1
 566.984375 511.171875 634.008789062 511.69140625 716 511 c 1
 716 370 l 1
 714.934570312 301 l 1
 714.787109375 283 l 1
 714 223 l 2
 712.670898438 99.4140625 646.583984375 34.3564453125 545 34 c 0
 437.62109375 33.623046875 370 98.21875 370 167 c 0
 370 231.600585938 410.853515625 273 495 273 c 2
 729 273 l 1
 755 273 l 1
 851 273 l 1
 968.474609375 271.482421875 1023.30078125 189.735351562 1024 84 c 5
 1023.12988281 -131.036132812 864.920898438 -259.823242188 625 -258 c 4
 325.5546875 -255.724609375 142.495117188 -59.2333984375 144.772460938 174 c 4
 146.37109375 337.745117188 236.083007812 472.669921875 363 556 c 5
 349.844726562 575.758789062 332.510742188 594.452148438 314 602 c 5
 214.415039062 534.927734375 95.2529296875 377.166992188 92.8232421875 170 c 4
 89.79296875 -88.4169921875 270.818359375 -316 637 -316 c 4
 961.436523438 -316 1133.41503906 -107.442382812 1133 83 c 4
 1132.65153305 242.895493415 1011.50195312 322.958984375 886 325 c 0
EndSplineSet
LCarets2: 1 0
Ligature2: "'psts' Post Base Substitutions lookup 3 subtable" tml_Ka tml_MatraU
Colour: ffffff
EndChar

StartChar: tml_CU
Encoding: 330 -1 74
GlifName: tml_C_U_
Width: 901
VWidth: 0
Flags: HW
AnchorPoint: "Anchor-0" 487 751 basechar 0
LayerCount: 4
Back
SplineSet
655 0 m 9
 740 0 l 21
 741 307 l 5
 716.78125 307.139648438 678.291992188 305.639648438 661 302 c 1
 661 147 l 2
 661 103.978515625 657.556640625 25.4814453125 655 0 c 9
55.533203125 159 m 0
 54.2072468364 68.3552526414 131.81615096 -23 290 -23 c 0
 453.44966443 -23 533.291873884 84.067357513 536 223 c 1
 535 301 l 1
 535 511 l 1
 578.196289062 510.958984375 681.286132812 511.266601562 722 511 c 1
 720.404296875 528.333007812 713.4296875 552.666992188 708 563 c 1
 567.112734946 553.47265625 332.477780079 553.265625 206 553 c 1
 208.577148438 497.514648438 210.696289063 440.999023438 211 370 c 0
 211.213761861 320.028525395 204 291 204 291 c 1
 260 291 l 1
 260 364 l 2
 260 416.999669236 258.98828125 458.611328125 258.607421875 511 c 1
 301.984798997 511.171875 370.008613701 511.69140625 452 511 c 1
 452 370 l 1
 450.934570312 301 l 1
 452.787109375 283 l 1
 452 226 l 2
 450.670898438 102.4140625 386.583562389 30.3447931823 285 30 c 0
 174.620922008 29.6253532297 98 85.2187199279 98 164 c 0
 98 234.600355833 150.85316643 283 235 283 c 2
 465 283 l 1
 491 282 l 1
 542.743148396 281.958984375 817.23046875 279.266601562 866 278 c 1
 866.404296875 295.333007812 862.4296875 322.666992188 859 333 c 1
 667.344726562 324.459960938 394.923768997 327.602002783 242 325 c 0
 127.464994166 323.092735837 57.0556318279 263.075953586 55.533203125 159 c 0
EndSplineSet
Fore
SplineSet
655 0 m 9
 740 0 l 21
 741 307 l 5
 716.78125 307.139648438 678.291992188 305.639648438 661 302 c 1
 661 147 l 2
 661 103.978515625 657.556640625 25.4814453125 655 0 c 9
55.533203125 159 m 0
 54.2072468364 68.3552526414 131.81615096 -23 290 -23 c 0
 453.44966443 -23 533.291873884 84.067357513 536 223 c 1
 535 301 l 1
 535 511 l 1
 578.196289062 510.958984375 681.286132812 511.266601562 722 511 c 1
 720.404296875 528.333007812 713.4296875 552.666992188 708 563 c 1
 567.112734946 553.47265625 332.477780079 553.265625 206 553 c 1
 208.577148438 497.514648438 210.696289063 440.999023438 211 370 c 0
 211.213761861 320.028525395 204 291 204 291 c 1
 260 291 l 1
 260 364 l 2
 260 416.999669236 258.98828125 458.611328125 258.607421875 511 c 1
 301.984798997 511.171875 370.008613701 511.69140625 452 511 c 1
 452 370 l 1
 450.934570312 301 l 1
 452.787109375 283 l 1
 452 226 l 2
 450.670898438 102.4140625 386.583562389 30.3447931823 285 30 c 0
 174.620922008 29.6253532297 98 85.2187199279 98 164 c 0
 98 234.600355833 150.85316643 283 235 283 c 2
 465 283 l 1
 491 282 l 1
 542.743148396 281.958984375 817.23046875 279.266601562 866 278 c 1
 866.404296875 295.333007812 862.4296875 322.666992188 859 333 c 1
 667.344726562 324.459960938 394.923768997 327.602002783 242 325 c 0
 127.464994166 323.092735837 57.0556318279 263.075953586 55.533203125 159 c 0
EndSplineSet
LCarets2: 1 0
Ligature2: "'psts' Post Base Substitutions lookup 3 subtable" tml_Ca tml_MatraU
Colour: ffffff
EndChar

StartChar: tml_TtU
Encoding: 332 -1 76
GlifName: tml_T_tU_
Width: 1185
VWidth: 0
Flags: HW
LayerCount: 4
Back
SplineSet
502 0 m 1
 504.556640625 25.4814453125 508 103.978515625 508 147 c 2
 508 552 l 1
 527.375688033 555.639648438 573.863303445 560.139648438 601 560 c 1
 601 3 l 1
 502 0 l 1
127 272 m 1
 127 41.5632312648 252.598828573 -167.760838375 524 -170 c 0
 690.672265625 -171.271218794 793.412670899 -84.4463886553 794 95 c 1
 793.432250691 151.78504192 783.682301 264.350538534 691 265.227539062 c 0
 657.099007697 265.603689064 616.829699061 259.979689672 570 163 c 1
 556 222 l 1
 575.779674758 286.284538092 654.43102216 315.896235405 706 315 c 0
 809.698647709 313.212002841 900.719920066 243.074241221 901 103 c 0
 901.323561065 -71.1546223958 787.519901945 -242 519 -242 c 0
 197.179862634 -242 65.7295305337 13.8487219393 65 263 c 1
 63.0559283548 590.312951553 266.396675197 846.194335938 610.116210938 846.194335938 c 0
 876.952051676 846.194335938 1108.16194843 652.463204673 1107.01269531 377.40234375 c 6
 1107 -1 l 5
 1035 -1 l 5
 1037.22167969 10.8642578125 1041.27734375 57.0361328125 1041 117 c 6
 1041 310 l 6
 1041.71657466 566.610154893 873.646390612 750.540738289 569.521484375 747.466796875 c 0
 297.606883315 744.559708924 136.046164027 574.599316233 127 272 c 1
EndSplineSet
Fore
SplineSet
502 0 m 1
 504.556640625 25.4814453125 508 103.978515625 508 147 c 2
 508 552 l 1
 527.375688033 555.639648438 573.863303445 560.139648438 601 560 c 1
 601 3 l 1
 502 0 l 1
127 272 m 1
 127 41.5632312648 252.598828573 -167.760838375 524 -170 c 0
 690.672265625 -171.271218794 793.412670899 -84.4463886553 794 95 c 1
 793.432250691 151.78504192 783.682301 264.350538534 691 265.227539062 c 0
 657.099007697 265.603689064 616.829699061 259.979689672 570 163 c 1
 556 222 l 1
 575.779674758 286.284538092 654.43102216 315.896235405 706 315 c 0
 809.698647709 313.212002841 900.719920066 243.074241221 901 103 c 0
 901.323561065 -71.1546223958 787.519901945 -242 519 -242 c 0
 197.179862634 -242 65.7295305337 13.8487219393 65 263 c 1
 63.0559283548 590.312951553 266.396675197 846.194335938 610.116210938 846.194335938 c 0
 876.952051676 846.194335938 1108.16194843 652.463204673 1107.01269531 377.40234375 c 6
 1107 -1 l 5
 1035 -1 l 5
 1037.22167969 10.8642578125 1041.27734375 57.0361328125 1041 117 c 6
 1041 310 l 6
 1041.71657466 566.610154893 873.646390612 750.540738289 569.521484375 747.466796875 c 0
 297.606883315 744.559708924 136.046164027 574.599316233 127 272 c 1
EndSplineSet
LCarets2: 1 0
Ligature2: "'psts' Post Base Substitutions lookup 3 subtable" tml_Tta tml_MatraU
Colour: ffff00
EndChar

StartChar: tml_NnU
Encoding: 333 -1 77
GlifName: tml_N_nU_
Width: 2149
VWidth: 0
Flags: HW
LayerCount: 4
Back
SplineSet
1440.00097656 586 m 0
 1227.49854601 586 1088.31280136 427.885409116 1088.00097656 189 c 0
 1087.83890991 62.1197769218 1138.80904866 -21.1826975128 1255.00097656 -21 c 0
 1384.69512844 -20.7995455936 1436.82307909 102.466924681 1437.00097656 208 c 0
 1437.32439832 404.419921875 1276.10906561 586.042410451 1040.0625 584.40234375 c 0
 810.564228905 582.745864589 652.320181113 408.3517394 652.000976562 185 c 0
 651.829101562 71.0548203656 702.260515264 -20.1852177593 816.000976562 -20 c 0
 932.89173969 -19.7968937655 1000.83796095 85.0080199445 1001.00097656 206 c 0
 1001.30561736 436.872070312 788.398568878 585.730243544 544.000976562 586 c 0
 332.936523438 586.231445312 142.426531939 447.301759256 141 224 c 0
 140.099609375 83.0576171875 236.833984424 -26.238314531 400 -26 c 0
 530.380859375 -25.8095703125 582.455308574 74.751951434 583 149 c 0
 583.66015625 238.987304688 515.931638406 296.412772408 433 297 c 0
 332.18359375 297.713867188 262.936060947 219.059561752 261.252929688 118 c 0
 260.15234375 51.91796875 283.970703125 31.0234375 304 9 c 1
 321 25 l 1
 305.935546875 50.80078125 299.917262201 71.4949946828 302 120 c 0
 304.918945312 187.979492188 357.694335373 222.147276025 406 222 c 0
 460.131835938 221.834960938 500.32353262 183.503904426 500 132 c 0
 499.669921875 79.4541015625 464.802734348 32.0186665571 389 32 c 0
 285.891601562 31.974609375 195.91082539 101.656247801 195 229 c 0
 193.6953125 411.41015625 362.003911362 532.244422693 541.000976562 529 c 0
 737.0078125 525.447265625 918.093635971 394.976563096 917.000976562 186 c 0
 916.542570153 102.903927365 875.47606434 40.0316442766 815.000976562 40 c 0
 756.627929688 39.9691833496 712.874871591 96.870727693 713.000976562 193 c 0
 713.276728174 418.240001493 873.332483072 528.204160617 1035.05273438 527.098632812 c 0
 1232.19233275 525.750976562 1349.94883641 369.850224254 1351.00097656 202 c 0
 1351.59162528 112.028065564 1314.60078644 39.0359020415 1253.00097656 39 c 0
 1198.37984035 38.968564667 1152.31688867 82.3209668103 1152.00097656 186 c 0
 1151.32952776 403.59829635 1270.21642814 534.261217716 1435.00097656 533 c 0
 1580.90332415 531.881835938 1673 419.034179688 1673 239 c 0
 1673 -127.677734375 1297.27507393 -303.441020457 829 -305.549804688 c 0
 481.381835938 -307.115234375 149.355538988 -254.432542874 144 -179 c 0
 142.59765625 -159.248046875 159.365234375 -146 196 -146 c 2
 1444 -146 l 1
 2059 -146 l 1
 2053.78125 -111.540039062 2053 -32.5419921875 2053 18 c 2
 2053 560 l 1
 2028.78125 560.139648438 1971.29199219 555.639648438 1954 552 c 1
 1954 58 l 2
 1954 20.77734375 1957.46484375 -51.373046875 1960 -84 c 1
 1932.08984375 -88.779296875 1752.30011441 -91.0575699992 1708 -91 c 2
 169 -89 l 2
 120.082195085 -88.9364291034 70 -123.814453125 70 -175 c 0
 70 -318.538085938 487.01274845 -372.81457609 827 -371.498046875 c 0
 1313.9837267 -369.612304687 1764.37898713 -144.624929275 1766 243 c 0
 1766.89601152 452.000976562 1623.50313392 586 1440.00097656 586 c 0
EndSplineSet
Fore
SplineSet
1440.00097656 586 m 0
 1227.49854601 586 1088.31280136 427.885409116 1088.00097656 189 c 0
 1087.83890991 62.1197769218 1138.80904866 -21.1826975128 1255.00097656 -21 c 0
 1384.69512844 -20.7995455936 1436.82307909 102.466924681 1437.00097656 208 c 0
 1437.32439832 404.419921875 1276.10906561 586.042410451 1040.0625 584.40234375 c 0
 810.564228905 582.745864589 652.320181113 408.3517394 652.000976562 185 c 0
 651.829101562 71.0548203656 702.260515264 -20.1852177593 816.000976562 -20 c 0
 932.89173969 -19.7968937655 1000.83796095 85.0080199445 1001.00097656 206 c 0
 1001.30561736 436.872070312 788.398568878 585.730243544 544.000976562 586 c 0
 332.936523438 586.231445312 142.426531939 447.301759256 141 224 c 0
 140.099609375 83.0576171875 236.833984424 -26.238314531 400 -26 c 0
 530.380859375 -25.8095703125 582.455308574 74.751951434 583 149 c 0
 583.66015625 238.987304688 515.931638406 296.412772408 433 297 c 0
 332.18359375 297.713867188 262.936060947 219.059561752 261.252929688 118 c 0
 260.15234375 51.91796875 283.970703125 31.0234375 304 9 c 1
 321 25 l 1
 305.935546875 50.80078125 299.917262201 71.4949946828 302 120 c 0
 304.918945312 187.979492188 357.694335373 222.147276025 406 222 c 0
 460.131835938 221.834960938 500.32353262 183.503904426 500 132 c 0
 499.669921875 79.4541015625 464.802734348 32.0186665571 389 32 c 0
 285.891601562 31.974609375 195.91082539 101.656247801 195 229 c 0
 193.6953125 411.41015625 362.003911362 532.244422693 541.000976562 529 c 0
 737.0078125 525.447265625 918.093635971 394.976563096 917.000976562 186 c 0
 916.542570153 102.903927365 875.47606434 40.0316442766 815.000976562 40 c 0
 756.627929688 39.9691833496 712.874871591 96.870727693 713.000976562 193 c 0
 713.276728174 418.240001493 873.332483072 528.204160617 1035.05273438 527.098632812 c 0
 1232.19233275 525.750976562 1349.94883641 369.850224254 1351.00097656 202 c 0
 1351.59162528 112.028065564 1314.60078644 39.0359020415 1253.00097656 39 c 0
 1198.37984035 38.968564667 1152.31688867 82.3209668103 1152.00097656 186 c 0
 1151.32952776 403.59829635 1270.21642814 534.261217716 1435.00097656 533 c 0
 1580.90332415 531.881835938 1673 419.034179688 1673 239 c 0
 1673 -127.677734375 1297.27507393 -303.441020457 829 -305.549804688 c 0
 481.381835938 -307.115234375 149.355538988 -254.432542874 144 -179 c 0
 142.59765625 -159.248046875 159.365234375 -146 196 -146 c 2
 1444 -146 l 1
 2059 -146 l 1
 2053.78125 -111.540039062 2053 -32.5419921875 2053 18 c 2
 2053 560 l 1
 2028.78125 560.139648438 1971.29199219 555.639648438 1954 552 c 1
 1954 58 l 2
 1954 20.77734375 1957.46484375 -51.373046875 1960 -84 c 1
 1932.08984375 -88.779296875 1752.30011441 -91.0575699992 1708 -91 c 2
 169 -89 l 2
 120.082195085 -88.9364291034 70 -123.814453125 70 -175 c 0
 70 -318.538085938 487.01274845 -372.81457609 827 -371.498046875 c 0
 1313.9837267 -369.612304687 1764.37898713 -144.624929275 1766 243 c 0
 1766.89601152 452.000976562 1623.50313392 586 1440.00097656 586 c 0
EndSplineSet
LCarets2: 1 0
Ligature2: "'psts' Post Base Substitutions lookup 3 subtable" tml_Nna tml_MatraU
Colour: ffffff
EndChar

StartChar: tml_TU
Encoding: 334 -1 78
GlifName: tml_T_U_
Width: 1234
VWidth: 0
Flags: HW
LayerCount: 4
Back
SplineSet
41 -167 m 0
 41 -290 251 -343 416 -343 c 0
 773.223632812 -343 913.39453125 -127.5390625 913 87 c 0
 911.96875 219.166992188 820.360351562 323.262695312 676 325 c 0
 504.8203125 326.852539062 403.3359375 326.897460938 322 325 c 0
 207.479492188 322.328125 137.090820312 262.329101562 135.533203125 157 c 0
 134.20703125 67.3515625 211.81640625 -23 370 -23 c 0
 536.771484375 -23 618.237304688 84.0673828125 621 223 c 1
 620 301 l 1
 620 511 l 1
 662.041015625 510.958984375 762.375 511.266601562 802 511 c 1
 800.404296875 528.333007812 793.4296875 552.666992188 788 563 c 1
 647.112304688 553.47265625 412.477539062 553.265625 286 553 c 1
 288.577148438 497.514648438 290.696289062 440.999023438 291 370 c 0
 291.227539062 316.866210938 284 286 284 286 c 1
 340 286 l 1
 340 364 l 2
 340 395.841796875 339.634765625 423.573242188 339.260742188 452 c 0
 339.01171875 470.889648438 335.759765625 500.0859375 335.607421875 521 c 1
 337.997070312 521.009765625 323.461914062 511.01953125 326 511.03125 c 0
 369.5234375 511.225585938 454.526367188 511.653320312 532 511 c 1
 532 370 l 1
 530.934570312 301 l 1
 532.787109375 278 l 1
 532 223 l 2
 530.703125 97.4931640625 468.150390625 27.3505859375 369 27 c 0
 259.801757812 26.6142578125 181 83.455078125 181 164 c 0
 181 231.633789062 232.538085938 280 313 280 c 2
 545 278 l 1
 571 278 l 1
 642 279 l 1
 777.438476562 277.7421875 819 180.932617188 819 84 c 0
 819 -121 740.422851562 -293.083007812 423 -293 c 0
 210.611328125 -292.944335938 97.5712890625 -222.075195312 95 -177 c 0
 93.8720703125 -157.23046875 107.365234375 -137 144 -137 c 2
 1144 -137 l 1
 1144 560 l 1
 1119.78125 560.139648438 1071.29199219 555.639648438 1054 552 c 1
 1054 23 l 2
 1054 -20.021484375 1050.55664062 -58.5185546875 1048 -84 c 1
 137 -91 l 2
 88.0810546875 -92.013671875 41 -115.814453125 41 -167 c 0
EndSplineSet
Fore
SplineSet
41 -167 m 0
 41 -290 251 -343 416 -343 c 0
 773.223632812 -343 913.39453125 -127.5390625 913 87 c 0
 911.96875 219.166992188 820.360351562 323.262695312 676 325 c 0
 504.8203125 326.852539062 403.3359375 326.897460938 322 325 c 0
 207.479492188 322.328125 137.090820312 262.329101562 135.533203125 157 c 0
 134.20703125 67.3515625 211.81640625 -23 370 -23 c 0
 536.771484375 -23 618.237304688 84.0673828125 621 223 c 1
 620 301 l 1
 620 511 l 1
 662.041015625 510.958984375 762.375 511.266601562 802 511 c 1
 800.404296875 528.333007812 793.4296875 552.666992188 788 563 c 1
 647.112304688 553.47265625 412.477539062 553.265625 286 553 c 1
 288.577148438 497.514648438 290.696289062 440.999023438 291 370 c 0
 291.227539062 316.866210938 284 286 284 286 c 1
 340 286 l 1
 340 364 l 2
 340 395.841796875 339.634765625 423.573242188 339.260742188 452 c 0
 339.01171875 470.889648438 335.759765625 500.0859375 335.607421875 521 c 1
 337.997070312 521.009765625 323.461914062 511.01953125 326 511.03125 c 0
 369.5234375 511.225585938 454.526367188 511.653320312 532 511 c 1
 532 370 l 1
 530.934570312 301 l 1
 532.787109375 278 l 1
 532 223 l 2
 530.703125 97.4931640625 468.150390625 27.3505859375 369 27 c 0
 259.801757812 26.6142578125 181 83.455078125 181 164 c 0
 181 231.633789062 232.538085938 280 313 280 c 2
 545 278 l 1
 571 278 l 1
 642 279 l 1
 777.438476562 277.7421875 819 180.932617188 819 84 c 0
 819 -121 740.422851562 -293.083007812 423 -293 c 0
 210.611328125 -292.944335938 97.5712890625 -222.075195312 95 -177 c 0
 93.8720703125 -157.23046875 107.365234375 -137 144 -137 c 2
 1144 -137 l 1
 1144 560 l 1
 1119.78125 560.139648438 1071.29199219 555.639648438 1054 552 c 1
 1054 23 l 2
 1054 -20.021484375 1050.55664062 -58.5185546875 1048 -84 c 1
 137 -91 l 2
 88.0810546875 -92.013671875 41 -115.814453125 41 -167 c 0
EndSplineSet
LCarets2: 1 0
Ligature2: "'psts' Post Base Substitutions lookup 3 subtable" tml_Ta tml_MatraU
Colour: ffffff
EndChar

StartChar: tml_NU
Encoding: 335 -1 79
GlifName: tml_N_U_
Width: 1233
VWidth: 0
Flags: HW
AnchorPoint: "Anchor-0" 657 751 basechar 0
LayerCount: 4
Back
SplineSet
40 -167 m 4
 40 -115.814453125 87.0810546875 -92.013671875 136 -91 c 6
 1047 -84 l 5
 1049.55664062 -58.5185546875 1053 -20.021484375 1053 23 c 6
 1053 552 l 5
 1070.29199219 555.639648438 1118.78125 560.139648438 1143 560 c 5
 1143 -137 l 5
 143 -137 l 6
 106.365234375 -137 92.8720703125 -157.23046875 94 -177 c 4
 96.5712890625 -222.075195312 209.611328125 -292.946289062 422 -293 c 4
 749.422851562 -293.083007812 819 -69 819 111 c 4
 819 238.20703125 770.03125 293.881835938 710 295 c 4
 646.687545893 296.179280973 610.7734375 252.642578125 609 209 c 1
 572 196 l 1
 575.389648438 287.595703125 648.4296875 347.432617188 734 347 c 4
 807.635742188 346.627929688 917 289 916 110 c 4
 914.54296875 -150.860351562 772.223632812 -343 415 -343 c 4
 250 -343 40 -290 40 -167 c 4
277 0 m 1
 277 0 285 136 284 370 c 0
 283.696289062 442.938476562 281.577148438 500.999023438 279 558 c 1
 418.075195312 558.265625 636.080078125 558.47265625 791 568 c 1
 796.4296875 556.673828125 803.404296875 530 805 511 c 1
 765.375 511.266601562 665.041015625 510.958984375 623 511 c 1
 623 0 l 1
 590.373046875 -0.12890625 556.6328125 -0.1416015625 529 0 c 1
 531 370 l 2
 531.70703125 433.681640625 532.791015625 466.51171875 532 511 c 1
 432.202148438 511.69140625 388.405273438 511.171875 335.607421875 511 c 1
 335.98828125 458.611328125 337 416.990234375 338 364 c 0
 341 205 338 0 338 0 c 1
 277 0 l 1
EndSplineSet
Fore
SplineSet
40 -167 m 4
 40 -115.814453125 87.0810546875 -92.013671875 136 -91 c 6
 1047 -84 l 5
 1049.55664062 -58.5185546875 1053 -20.021484375 1053 23 c 6
 1053 552 l 5
 1070.29199219 555.639648438 1118.78125 560.139648438 1143 560 c 5
 1143 -137 l 5
 143 -137 l 6
 106.365234375 -137 92.8720703125 -157.23046875 94 -177 c 4
 96.5712890625 -222.075195312 209.611328125 -292.946289062 422 -293 c 4
 749.422851562 -293.083007812 819 -69 819 111 c 4
 819 238.20703125 770.03125 293.881835938 710 295 c 4
 646.687545893 296.179280973 610.7734375 252.642578125 609 209 c 1
 572 196 l 1
 575.389648438 287.595703125 648.4296875 347.432617188 734 347 c 4
 807.635742188 346.627929688 917 289 916 110 c 4
 914.54296875 -150.860351562 772.223632812 -343 415 -343 c 4
 250 -343 40 -290 40 -167 c 4
277 0 m 1
 277 0 285 136 284 370 c 0
 283.696289062 442.938476562 281.577148438 500.999023438 279 558 c 1
 418.075195312 558.265625 636.080078125 558.47265625 791 568 c 1
 796.4296875 556.673828125 803.404296875 530 805 511 c 1
 765.375 511.266601562 665.041015625 510.958984375 623 511 c 1
 623 0 l 1
 590.373046875 -0.12890625 556.6328125 -0.1416015625 529 0 c 1
 531 370 l 2
 531.70703125 433.681640625 532.791015625 466.51171875 532 511 c 1
 432.202148438 511.69140625 388.405273438 511.171875 335.607421875 511 c 1
 335.98828125 458.611328125 337 416.990234375 338 364 c 0
 341 205 338 0 338 0 c 1
 277 0 l 1
EndSplineSet
LCarets2: 1 0
Ligature2: "'psts' Post Base Substitutions lookup 3 subtable" tml_Na tml_MatraU
Colour: ffffff
EndChar

StartChar: tml_NnnU
Encoding: 336 -1 80
GlifName: tml_N_nnU_
Width: 1377
VWidth: 0
Flags: HW
AnchorPoint: "Anchor-0" 858.001 751 basechar 0
LayerCount: 4
Back
SplineSet
970.000976562 532 m 0
 817.487372065 533.164416331 637.27118258 437.046106351 637.000976562 198 c 0
 636.883933013 97.4726454524 677.627929688 37.9677734375 736.000976562 38 c 0
 794.10449227 38.0320777599 836.538085938 101.765625 837.000976562 186 c 0
 838.094406456 384.976558894 649.0078125 521.447265625 453.000976562 525 c 0
 274.003911362 528.244422693 113.6953125 411.41015625 115 239 c 0
 115.963654372 111.656248389 205.891601562 31.974609375 309 32 c 0
 384.802734348 32.0186665571 420.669921875 80.4541015625 421 133 c 0
 421.32353262 184.503904426 381.131835938 222.834960938 327 223 c 0
 278.694335373 223.147276025 224.918945313 187.979492188 222 120 c 0
 219.917262201 71.4949946828 225.935546875 50.80078125 241 25 c 1
 224 9 l 1
 203.970703125 31.0234375 180.15234375 51.91796875 181.252929688 118 c 0
 182.936060947 219.059561752 252.18359375 297.713867188 353 297 c 0
 435.931638406 296.412772408 503.66015625 238.987304688 503 149 c 0
 502.455308574 74.751951434 450.380859375 -25.8095703125 320 -26 c 0
 156.833984424 -26.238314531 60.0576171875 93.0576171875 61 234 c 0
 62.4261992025 447.301761548 244.950195312 582.55859375 456.000976562 585 c 0
 692.002934671 587.730038013 924.307617188 436.872070312 924.000976562 206 c 0
 923.838842114 83.9277344083 855.47265625 -18.7958984375 739.000976562 -19 c 0
 630.435546555 -19.190246882 578.829101562 67.1533203125 579.000976562 185 c 0
 579.351888518 419.633656468 737.427456067 585 982.000976562 585 c 0
 1182.5780794 585 1345.01971836 431.807909605 1344 211 c 0
 1342.70308002 -50.3322450559 1213.04761905 -344 640 -344 c 0
 356.757082685 -344 50 -290.698863636 50 -167 c 0
 50 -112.446982936 97.0771159034 -86.270163186 146 -86 c 2
 1557 -79 l 1
 1559.55664062 -54.7092764311 1563 -18.0111346379 1563 23 c 2
 1563 552 l 1
 1580.29199219 555.639648438 1628.78125 560.139648438 1653 560 c 1
 1653 -137 l 1
 153 -137 l 2
 116.365234375 -137 103.217773438 -150.213867188 104 -170 c 0
 106.696850183 -232.429809209 360.128185791 -287.960044838 647 -288 c 4
 1098.77647882 -288.063366021 1247 -87.97265625 1247 219 c 0
 1247 410.982093066 1125.99113827 530.809040725 970.000976562 532 c 0
EndSplineSet
Fore
SplineSet
970.000976562 532 m 0
 817.487372065 533.164416331 637.27118258 437.046106351 637.000976562 198 c 0
 636.883933013 97.4726454524 677.627929688 37.9677734375 736.000976562 38 c 0
 794.10449227 38.0320777599 836.538085938 101.765625 837.000976562 186 c 0
 838.094406456 384.976558894 649.0078125 521.447265625 453.000976562 525 c 0
 274.003911362 528.244422693 113.6953125 411.41015625 115 239 c 0
 115.963654372 111.656248389 205.891601562 31.974609375 309 32 c 0
 384.802734348 32.0186665571 420.669921875 80.4541015625 421 133 c 0
 421.32353262 184.503904426 381.131835938 222.834960938 327 223 c 0
 278.694335373 223.147276025 224.918945313 187.979492188 222 120 c 0
 219.917262201 71.4949946828 225.935546875 50.80078125 241 25 c 1
 224 9 l 1
 203.970703125 31.0234375 180.15234375 51.91796875 181.252929688 118 c 0
 182.936060947 219.059561752 252.18359375 297.713867188 353 297 c 0
 435.931638406 296.412772408 503.66015625 238.987304688 503 149 c 0
 502.455308574 74.751951434 450.380859375 -25.8095703125 320 -26 c 0
 156.833984424 -26.238314531 60.0576171875 93.0576171875 61 234 c 0
 62.4261992025 447.301761548 244.950195312 582.55859375 456.000976562 585 c 0
 692.002934671 587.730038013 924.307617188 436.872070312 924.000976562 206 c 0
 923.838842114 83.9277344083 855.47265625 -18.7958984375 739.000976562 -19 c 0
 630.435546555 -19.190246882 578.829101562 67.1533203125 579.000976562 185 c 0
 579.351888518 419.633656468 737.427456067 585 982.000976562 585 c 0
 1182.5780794 585 1345.01971836 431.807909605 1344 211 c 0
 1342.70308002 -50.3322450559 1213.04761905 -344 640 -344 c 0
 356.757082685 -344 50 -290.698863636 50 -167 c 0
 50 -112.446982936 97.0771159034 -86.270163186 146 -86 c 2
 1557 -79 l 1
 1559.55664062 -54.7092764311 1563 -18.0111346379 1563 23 c 2
 1563 552 l 1
 1580.29199219 555.639648438 1628.78125 560.139648438 1653 560 c 1
 1653 -137 l 1
 153 -137 l 2
 116.365234375 -137 103.217773438 -150.213867188 104 -170 c 0
 106.696850183 -232.429809209 360.128185791 -287.960044838 647 -288 c 4
 1098.77647882 -288.063366021 1247 -87.97265625 1247 219 c 0
 1247 410.982093066 1125.99113827 530.809040725 970.000976562 532 c 0
EndSplineSet
LCarets2: 1 0
Ligature2: "'psts' Post Base Substitutions lookup 3 subtable" tml_Nnna tml_MatraU
Colour: ffffff
EndChar

StartChar: tml_MU
Encoding: 337 -1 81
GlifName: tml_M_U_
Width: 1358
VWidth: 0
Flags: HW
LayerCount: 4
Back
SplineSet
788 12 m 5
 876 13 l 21
 876.297054168 -134.008155154 753.20759238 -295 521 -295 c 4
 214.034384154 -295 61.7391948433 -86.1428702938 64.8232421875 151 c 4
 67.4286940869 367.278503418 195.211029967 531.977796766 302 602 c 5
 320.510742188 594.452148438 337.844726562 575.758789062 351 556 c 5
 218.26719773 468.30709056 124.113725054 326.321050591 122.772460938 154 c 4
 120.926659039 -56.018037019 269.293460838 -233.384173078 512 -235 c 4
 677.960320724 -236.316786024 787.398114427 -143.303873698 788 12 c 5
EndSplineSet
Refer: 25 2990 N 1 0 0 1 365 0 2
Fore
SplineSet
802 12 m 1
 1007 13 l 1
 1007.3807314 -143.554139255 849.618181783 -315 552 -315 c 0
 203.986912432 -315 31.7967163153 -91.6315598838 34.8232421875 162 c 4
 37.4506646369 382.185546875 166.31052883 567.475260416 274 642 c 1
 315.176957113 625.755710769 353.736228476 585.524350372 383 543 c 1
 248.522454705 459.669921875 153.591096219 334.823906486 151.772460938 161 c 4
 149.755635489 -27.9602856119 296.037871884 -187.136645818 535 -189 c 0
 695.548571135 -190.071554619 801.41774113 -114.380885074 802 12 c 1
EndSplineSet
Refer: 25 2990 N 1 0 0 1 386 0 2
LCarets2: 1 0
Ligature2: "'psts' Post Base Substitutions lookup 3 subtable" tml_Ma tml_MatraU
Colour: ff00
EndChar

StartChar: tml_RU
Encoding: 338 -1 82
GlifName: tml_R_U_
Width: 1198
VWidth: 0
Flags: HW
LayerCount: 4
Back
SplineSet
1132 83 m 1
 1133.41503906 -107.442382812 961.436523438 -316 637 -316 c 0
 270.818359375 -316 89.79296875 -88.4169921875 92.8232421875 170 c 0
 95.2529296875 377.166992188 214.415039062 534.927734375 314 602 c 1
 332.510742188 594.452148438 349.844726562 575.758789062 363 556 c 1
 236.083007812 472.669921875 146.37109375 337.745117188 144.772460938 174 c 0
 142.495117188 -59.2333984375 325.5546875 -255.724609375 625 -258 c 0
 864.920898438 -259.823242188 1023.12988281 -131.036132812 1024 84 c 1
 1024.07128906 183.106445312 993.6328125 279.869140625 902 279 c 0
 846.881262923 278.477196735 814.731445312 245.038085938 814 186 c 5
 782 193 l 5
 788.701171875 289.33203125 841.646152324 339.498000692 925 339 c 0
 1028.62988281 338.380859375 1129.69140625 258.359375 1132 83 c 1
EndSplineSet
Refer: 37 3006 N 1 0 0 1 354 0 2
Fore
SplineSet
1132 83 m 1
 1133.41503906 -107.442382812 961.436523438 -316 637 -316 c 0
 270.818359375 -316 89.79296875 -88.4169921875 92.8232421875 170 c 0
 95.2529296875 377.166992188 214.415039062 534.927734375 314 602 c 1
 332.510742188 594.452148438 349.844726562 575.758789062 363 556 c 1
 236.083007812 472.669921875 146.37109375 337.745117188 144.772460938 174 c 0
 142.495117188 -59.2333984375 325.5546875 -255.724609375 625 -258 c 0
 864.920898438 -259.823242188 1023.12988281 -131.036132812 1024 84 c 1
 1024.07128906 183.106445312 993.6328125 279.869140625 902 279 c 0
 846.881262923 278.477196735 814.731445312 245.038085938 814 186 c 5
 782 193 l 5
 788.701171875 289.33203125 841.646152324 339.498000692 925 339 c 0
 1028.62988281 338.380859375 1129.69140625 258.359375 1132 83 c 1
EndSplineSet
Refer: 37 3006 N 1 0 0 1 354 0 2
LCarets2: 1 0
Ligature2: "'psts' Post Base Substitutions lookup 3 subtable" tml_Ra tml_MatraU
Colour: ffffff
EndChar

StartChar: tml_RrU
Encoding: 339 -1 83
GlifName: tml_R_rU_
Width: 1153
VWidth: 0
Flags: HW
LayerCount: 4
Back
SplineSet
70 -172 m 4
 70 -120.814453125 119.081054688 -89.013671875 168 -88 c 5
 855 -88 l 6
 908.520507812 -87.861328125 946.857421875 -82.951171875 968 -80 c 5
 970.556640625 -54.5185546875 973 -20.021484375 973 23 c 6
 973 552 l 5
 990.291992188 555.639648438 1038.78125 560.139648438 1063 560 c 5
 1063 -137 l 5
 168 -137 l 6
 131.365234375 -137 115.872070312 -157.23046875 117 -177 c 4
 119.571289062 -222.075195312 199.611328125 -292.944335938 382 -293 c 4
 699.422851562 -293.096679688 747.963867188 -1.9970703125 749 178 c 4
 750.178710938 382.678710938 707.764648438 507.64453125 610 508 c 0
 559.873046875 508.182617188 514.641601562 466.362304688 509 417 c 1
 495 385 l 1
 495.294921875 397.466796875 465.422851562 440.041992188 468.498046875 452 c 0
 477.725585938 489.201171875 527.265625 557.969726562 620 560 c 0
 693.509765625 561.609375 834 508.703125 834 209 c 4
 834 -53 732.223632812 -343 375 -343 c 4
 230 -343 70 -295 70 -172 c 4
189 -1 m 1
 189.787109375 15.5615234375 193.446289062 38.3916015625 192.926757812 139 c 1
 194.700195312 402.177734375 l 2
 195.3203125 498.915039062 258.768554688 559.8203125 350 561 c 0
 412.228515625 561.8046875 468.560546875 530.559570312 496.092773438 470 c 1
 511.369140625 433 l 1
 511 423.249023438 l 1
 511 1 l 1
 481.919921875 -2.068359375 462.602539062 0.533203125 427 1 c 1
 427 381.926757812 l 1
 428.302734375 487.208984375 384.801757812 512.807617188 333 512 c 0
 287.788085938 511.294921875 242.756835938 473.826171875 244.091796875 397.826171875 c 1
 241 -1 l 1
 189 -1 l 1
EndSplineSet
Fore
SplineSet
70 -172 m 4
 70 -120.814453125 119.081054688 -89.013671875 168 -88 c 5
 855 -88 l 6
 908.520507812 -87.861328125 946.857421875 -82.951171875 968 -80 c 5
 970.556640625 -54.5185546875 973 -20.021484375 973 23 c 6
 973 552 l 5
 990.291992188 555.639648438 1038.78125 560.139648438 1063 560 c 5
 1063 -137 l 5
 168 -137 l 6
 131.365234375 -137 115.872070312 -157.23046875 117 -177 c 4
 119.571289062 -222.075195312 199.611328125 -292.944335938 382 -293 c 4
 699.422851562 -293.096679688 747.963867188 -1.9970703125 749 178 c 4
 750.178710938 382.678710938 707.764648438 507.64453125 610 508 c 0
 559.873046875 508.182617188 514.641601562 466.362304688 509 417 c 1
 495 385 l 1
 495.294921875 397.466796875 465.422851562 440.041992188 468.498046875 452 c 0
 477.725585938 489.201171875 527.265625 557.969726562 620 560 c 0
 693.509765625 561.609375 834 508.703125 834 209 c 4
 834 -53 732.223632812 -343 375 -343 c 4
 230 -343 70 -295 70 -172 c 4
189 -1 m 1
 189.787109375 15.5615234375 193.446289062 38.3916015625 192.926757812 139 c 1
 194.700195312 402.177734375 l 2
 195.3203125 498.915039062 258.768554688 559.8203125 350 561 c 0
 412.228515625 561.8046875 468.560546875 530.559570312 496.092773438 470 c 1
 511.369140625 433 l 1
 511 423.249023438 l 1
 511 1 l 1
 481.919921875 -2.068359375 462.602539062 0.533203125 427 1 c 1
 427 381.926757812 l 1
 428.302734375 487.208984375 384.801757812 512.807617188 333 512 c 0
 287.788085938 511.294921875 242.756835938 473.826171875 244.091796875 397.826171875 c 1
 241 -1 l 1
 189 -1 l 1
EndSplineSet
LCarets2: 1 0
Ligature2: "'psts' Post Base Substitutions lookup 3 subtable" tml_Rra tml_MatraU
Colour: ffffff
EndChar

StartChar: tml_LU
Encoding: 340 -1 84
GlifName: tml_L_U_
Width: 1353
VWidth: 0
Flags: HW
LayerCount: 4
Back
SplineSet
130 -173 m 0
 130 -121.814453125 179.081054688 -89.013671875 228 -88 c 1
 1055 -88 l 2
 1108.52050781 -87.861328125 1146.85742188 -82.951171875 1168 -80 c 1
 1170.55664062 -54.5185546875 1173 -20.021484375 1173 23 c 2
 1173 552 l 1
 1190.29199219 555.639648438 1238.78125 560.139648438 1263 560 c 1
 1263 -137 l 1
 225 -137 l 2
 188.365234375 -137 175.872070312 -157.23046875 177 -177 c 0
 179.571289062 -222.075195312 259.611328125 -295.938476562 442 -296 c 0
 729.422851562 -296.096679688 808.963867188 -99.9970703125 816 79 c 9
 884 85 l 1
 884 -177 716 -341 445 -343 c 0
 308.047851562 -344.010742188 130 -296 130 -173 c 0
EndSplineSet
Refer: 29 2994 N 0.9525 0 0 0.9525 50.1175 37.9075 2
Fore
SplineSet
130 -173 m 0
 130 -121.814453125 179.081054688 -89.013671875 228 -88 c 1
 1055 -88 l 2
 1108.52050781 -87.861328125 1146.85742188 -82.951171875 1168 -80 c 1
 1170.55664062 -54.5185546875 1173 -20.021484375 1173 23 c 2
 1173 552 l 1
 1190.29199219 555.639648438 1238.78125 560.139648438 1263 560 c 1
 1263 -137 l 1
 225 -137 l 2
 188.365234375 -137 175.872070312 -157.23046875 177 -177 c 0
 179.571289062 -222.075195312 259.611328125 -295.938476562 442 -296 c 0
 729.422851562 -296.096679688 808.963867188 -99.9970703125 816 79 c 9
 884 85 l 1
 884 -177 716 -341 445 -343 c 0
 308.047851562 -344.010742188 130 -296 130 -173 c 0
EndSplineSet
Refer: 29 2994 N 0.9525 0 0 0.9525 50.1175 37.9075 2
LCarets2: 1 0
Ligature2: "'psts' Post Base Substitutions lookup 3 subtable" tml_La tml_MatraU
Colour: ffffff
EndChar

StartChar: tml_LllU
Encoding: 342 -1 86
GlifName: tml_L_llU_
Width: 1412
Flags: HWO
LayerCount: 4
Back
SplineSet
1086 -150 m 0
 1086 -282 908.366044074 -360 724 -360 c 1
 256.262563004 -363 61.5307115921 -122.312890482 64.8232421875 151 c 0
 67.4286940869 367.278503418 195.211029967 531.977796766 302 602 c 1
 320.510742188 594.452148438 337.844726562 575.758789062 351 556 c 1
 218.26719773 468.30709056 124.712311239 326.315351745 122.772460938 154 c 0
 120.03723511 -89.5054636586 309.89653233 -295.152672877 704 -299 c 5
 890.726302083 -300.514206978 987.575597113 -239.597114575 989 -152 c 0
 989.439793854 -113.873200822 966.499149133 -81.2502215627 925 -81 c 0
 882.923791493 -80.8221357133 840.971577306 -114.360047271 838 -182 c 1
 815 -124 l 1
 817.201422835 -70.9387478299 880.738599888 -23.8568636222 944 -24 c 0
 1022.26828945 -24.177332261 1086 -74.6178672338 1086 -150 c 0
843 -194 m 1
 757 -194 l 1
 757 10 l 1
 843 10 l 1
 843 -194 l 1
EndSplineSet
Refer: 25 2990 N 1 0 0 1 334 4 2
Fore
SplineSet
1356 -170 m 0
 1356 -369.257142857 1169.98917392 -487 828 -487 c 1
 275.113182699 -490.745596869 44.5440505184 -190.235589009 48.8232421875 151 c 0
 51.6483995862 405.642761231 190.206018598 599.557006835 306 682 c 1
 339.621552137 667.888799254 371.105727837 632.940344768 395 596 c 1
 256.451387648 499.581427929 158.498502005 343.464728847 156.772460938 154 c 0
 153.660759372 -131.971096394 369.652238495 -373.481726204 818 -378 c 1
 1041.41638249 -380.32796447 1157.75848784 -286.685766926 1159 -152 c 0
 1159.23364048 -119.243172537 1147.0466282 -91.1552444242 1125 -91 c 0
 1068.41475408 -90.8045253879 1011.99625914 -127.663022248 1008 -202 c 1
 985 -124 l 1
 988.0546875 -60.3264973959 1076.21858865 -3.83727071406 1164 -4 c 0
 1269.8275463 -4.23362821687 1356 -70.687031435 1356 -170 c 0
1013 -214 m 1
 811 -214 l 1
 811 10 l 1
 1013 10 l 1
 1013 -214 l 1
EndSplineSet
Refer: 25 2990 N 1 0 0 1 374 4 2
LCarets2: 1 0
Ligature2: "'psts' Post Base Substitutions lookup 3 subtable" tml_Llla tml_MatraU
Colour: ffff00
EndChar

StartChar: tml_KUu
Encoding: 343 -1 87
GlifName: tml_K_U_u
Width: 2189
VWidth: 0
Flags: HW
AnchorPoint: "Anchor-3" 1642 587.1 basechar 0
AnchorPoint: "Anchor-2" 1576 645 basechar 0
AnchorPoint: "Anchor-0" 1353 751 basechar 0
LayerCount: 4
Back
SplineSet
993 0 m 1
 980 12 l 1
 1002.92752902 58.2038283818 1013.48796008 107.617458435 1012.96386719 143 c 0
 1011.41001489 247.903624879 946.854210923 309.198845791 857 309 c 0
 774.169322179 308.816697165 678.963548682 236.448279303 680 122 c 0
 680.373139731 80.7967139702 699.950870364 37 745 37 c 0
 785.322033898 37 806.129752245 77.6596730288 806 127 c 0
 805.691750079 244.216869021 698.386106694 273 611.658203125 273 c 0
 495 273 l 1
 469 273 l 1
 235 273 l 2
 150.853515625 273 110 231.600585938 110 167 c 0
 110 98.21875 177.621093139 33.6232210397 285 34 c 0
 386.583984375 34.3564453125 452.378789437 99.4178945289 454 223 c 2
 454.787109375 283 l 1
 454.934570312 301 l 1
 456 370 l 1
 456 511 l 1
 374.008789062 511.69140625 306.984375 511.171875 263.607421875 511 c 1
 263.98828125 458.611328125 266 417 266 364 c 2
 266 291 l 1
 204 291 l 1
 204 291 211.213761861 320.028525395 211 370 c 0
 210.696289063 440.999023438 208.577148438 505.514648438 206 561 c 1
 372.477539062 561.265625 567.112304688 560.47265625 708 570 c 1
 713.4296875 559.666992188 720.404296875 528.333007812 722 511 c 1
 682.157017672 511.266601562 590.272460938 510.958984375 548 511 c 1
 548 301 l 1
 549 223 l 1
 546.248046875 84.0673828125 461.107421875 -23 295 -23 c 0
 126.81640625 -23 54.2072234063 73.3553800241 55.533203125 164 c 0
 57.0556640625 268.076171875 127.47953894 322.360072613 242 325 c 0
 308.728588693 326.538228428 385.808805077 326.046531397 498 326.026367188 c 0
 625 326 l 2
 745.656995656 325.974949719 884.139449464 270.077903616 886 129 c 0
 886.920502492 59.2020776566 846.289910823 -17 748 -17 c 0
 664.778904889 -17 627 44.7304964539 627 119 c 0
 627 259.789915143 741.412057404 358.199315376 862 359 c 0
 982.871896122 359.80257003 1091.01432144 288.973853069 1094.00976562 142 c 0
 1094.620563 112.030740611 1085.95221366 65.1074162767 1075 36 c 1
 1070.62191451 42.6305701999 1066.28879457 49.3201732011 1063 56 c 1
 1234.44671236 53.369140625 1530.28870399 57.51171875 1620.04492188 66.0673828125 c 1
 1619.34179688 301 l 1
 1646 298 l 1
 1612.27636719 246.471679688 1528.58496094 198.518554688 1409 198.5078125 c 0
 1231.55761722 198.491873042 1128.18164062 304.6171875 1128.18164062 405.494140625 c 0
 1128.18164062 515.838867188 1213.43652344 564.293945312 1286 565.569335938 c 0
 1371.65039854 567.074745003 1440 518.651367188 1442 417.685546875 c 1
 1442 -250 l 1
 1356 -250 l 1
 1356 401 l 2
 1356 484.05859375 1317.49707031 502.244140625 1278 501.37890625 c 0
 1233.59472872 500.406151389 1194 467.858398438 1194 408 c 0
 1194 317.676757812 1300.16992188 257.26953125 1408 260.70703125 c 0
 1586.19531252 266.387694729 1657.01464844 374.255859375 1693 414 c 1
 1714.35742188 416 l 1
 1711.6328125 381.870117188 1711 329.002929688 1711 312 c 2
 1711 0 l 1
 993 0 l 1
EndSplineSet
Fore
SplineSet
1145 19 m 1
 1158 0 l 1
 2115 0 l 1
 2115 352 l 2
 2115 369.002929688 2115.6328125 421.870117188 2118.35742188 456 c 1
 2087 454 l 1
 2039.65085321 412.700244361 1878.10852908 295.908878838 1712 294.70703125 c 0
 1559.44493259 293.603247231 1430 359.799102469 1430 463 c 0
 1430 511.960939747 1459.21752617 538.48950323 1492 539.37890625 c 0
 1526.43334335 540.313098091 1560.78997908 520.662625512 1560 431 c 2
 1554 -250 l 1
 1760 -250 l 1
 1766 457.685546875 l 1
 1762.97435897 599.615622007 1659.58182912 667.914801264 1530 665.569335938 c 0
 1434.44696859 663.839800836 1322.18164062 598.130710011 1322.18164062 448.494140625 c 0
 1322.18164062 323.24916425 1458.68877601 191.497204201 1693 191.5078125 c 0
 1827.72229777 191.513911971 1922.00755291 218.741948632 1960 248 c 1
 1893.34179688 291 l 1
 1894.04492188 126.067382812 l 1
 1797.84353489 117.51171875 1480.75787117 113.369140625 1297 116 c 1
 1305.52834983 103.093881462 1303.54825392 60.7068617846 1314.00976562 69 c 0
 1344.60135123 93.2508209845 1354.45984718 153.656582039 1354.94824219 190 c 0
 1357.38496313 377.065219663 1200.59390659 472.856565785 1039 472 c 0
 876.846894751 471.140470053 723 363.704944005 723 166 c 0
 723 64.4255319149 775.565979213 -20 902 -20 c 0
 1037.19291116 -20 1100.14460542 62.9752690627 1099 160 c 0
 1097.34414194 300.362067153 967.798180377 356.331312183 855 356 c 1
 744.032117709 355.863599363 617.131783128 355.655482538 528 356.026367188 c 0
 411.427495107 356.52673675 331.335174189 356.538228425 262 355 c 0
 141.331174433 352.322914095 67.1373118927 291.004888879 65.533203125 174 c 0
 64.2239939743 78.5053089415 124.97583524 -23 335 -23 c 0
 553.424720104 -23 665.381289986 92.7720480818 669 243 c 1
 665 331 l 1
 665 498 l 1
 695.854037581 497.958984375 762.919202554 498.266601562 792 498 c 1
 790.404296875 529.140658103 783.4296875 585.435613083 778 604 c 1
 621.957054595 594.47265625 406.385481512 595.265625 222 595 c 1
 230.638867188 535.447659318 230.453320313 466.203140339 231 390 c 0
 231.31311084 346.354644536 224 321 224 321 c 1
 336 321 l 1
 336 384 l 2
 336 425.102040816 335.46583227 457.372050383 330.607421875 498 c 1
 356.849366625 498.171875 397.397419082 498.69140625 447 498 c 1
 447 390 l 1
 445.934570312 331 l 1
 443.787109375 313 l 1
 445 243 l 2
 446.763140837 141.243208398 389.55174399 85.166238977 306 85 c 0
 190.650483492 84.7704944899 160 141.836231202 160 182 c 0
 160 231.364598689 191.048671875 263 255 263 c 2
 499 263 l 1
 525 263 l 1
 821.658203125 263 l 1
 867.784906754 263 956.220282864 256.744276599 956 157 c 0
 955.909287759 115.925416671 935.661016949 82 896 82 c 0
 848.858944713 82 821.331654691 126.310890722 821 168 c 0
 819.915895967 304.272251811 922.085673112 374.789929283 1011 375 c 0
 1112.93819082 375.254846485 1181.04869498 298.079202676 1182.96386719 166 c 0
 1183.55584745 127.417898132 1171.40520488 70.847044062 1145 19 c 1
EndSplineSet
LCarets2: 1 0
Ligature2: "'psts' Post Base Substitutions lookup 4 subtable" tml_Ka tml_MatraUu
Colour: ffffff
EndChar

StartChar: tml_PUu
Encoding: 352 -1 96
GlifName: tml_P_U_u
Width: 1194
VWidth: 0
Flags: HW
LayerCount: 4
Back
SplineSet
1079 -75 m 4
 1077.19042969 -266.001953125 853.588867188 -400.709960938 511 -403.15234375 c 0
 277.483398438 -404.817382812 76.2045142544 -328.92416721 77 -213.4765625 c 0
 77.5241242099 -137.411233939 163.8671875 -97.5908203125 266 -96.982421875 c 0
 321.944335938 -96.48828125 383.676757812 -106.043945312 434 -119 c 1
 432.9296875 -143.899414062 425.08984375 -162.549804688 416 -171 c 1
 372.956054688 -156.34765625 310.184570312 -143.987304688 255 -144.526367188 c 0
 194.758789062 -145.418945312 135 -155.1953125 135 -212 c 0
 135 -279.99609375 294.321289062 -343.6796875 504 -342.868164062 c 0
 821.038085938 -341.587890625 980 -223 981 -80 c 4
 981.405581166 -22.0018931948 946.897460938 27.7451171875 884 28 c 4
 824.029312013 28.2430224908 764.235351562 -17.5810546875 760 -110 c 5
 737 -52 l 5
 740.0546875 24.408203125 828.218770218 92.235209726 916 92 c 4
 1005.29199219 91.7607421875 1079.99609375 30.1259765625 1079 -75 c 4
688 64 m 1
 775 64 l 1
 775 -149 l 1
 688 -159 l 1
 688 64 l 1
EndSplineSet
Refer: 24 2986 N 1 0 0 1 0 0 2
Fore
SplineSet
1237 -75 m 0
 1234.9992779 -300.92511429 987.782001808 -460.972189501 609 -463.15234375 c 0
 204.837731919 -465.256299961 4.04030121159 -369.35801834 5 -223.4765625 c 0
 5.57958708925 -121.293069316 101.063555403 -68.3594244822 214 -66.982421875 c 0
 279.934395927 -66.2638511959 352.690464564 -80.159531225 412 -99 c 1
 410.9296875 -143.052809494 403.08984375 -176.049654448 394 -191 c 1
 353.629591664 -176.34765625 294.754523125 -163.759534077 243 -164.526367188 c 0
 182.758789062 -165.286659841 123 -173.614110352 123 -222 c 0
 123 -284.800323317 329.83975765 -346.560257787 602 -342.868164062 c 4
 839.853980363 -339.641465039 1004.17287433 -228.016128601 1005 -91 c 4
 1005.38885617 -37.8350687619 972.303729189 7.65632130783 912 8 c 0
 871.702003624 8.22541216538 811.552230342 -34.2780797101 808 -120 c 1
 805 8 l 1
 808.395993366 79.102077908 906.410752373 142.212330946 1004 142 c 0
 1131.6382465 141.689108112 1238.2812331 61.6028733266 1237 -75 c 0
568 64 m 1
 828 64 l 1
 828 -149 l 1
 568 -159 l 1
 568 64 l 1
EndSplineSet
Refer: 24 2986 N 1 0 0 1 0 0 2
LCarets2: 1 0
Ligature2: "'psts' Post Base Substitutions lookup 4 subtable" tml_Pa tml_MatraUu
Colour: ffffff
EndChar

StartChar: tml_Anusvara
Encoding: 363 2946 107
GlifName: tml_A_nusvara
Width: 0
GlyphClass: 4
Flags: HW
AnchorPoint: "Anchor-0" -133 0 mark 0
LayerCount: 4
Back
SplineSet
-244 660 m 0
 -244 692.666666667 -232.166666667 720.833333333 -208.5 744.5 c 128
 -184.833333333 768.166666667 -156.666666667 780 -124 780 c 256
 -91.3333333333 780 -63.1666666667 768.333333333 -39.5 745 c 128
 -15.8333333333 721.666666667 -4 693.333333333 -4 660 c 0
 -4 627.333333333 -15.6666666667 599.166666667 -39 575.5 c 128
 -62.3333333333 551.833333333 -90.6666666667 540 -124 540 c 0
 -156.666666667 540 -184.833333333 551.833333333 -208.5 575.5 c 128
 -232.166666667 599.166666667 -244 627.333333333 -244 660 c 0
-195 660 m 0
 -195 640 -188 623 -174 609 c 128
 -160 595 -143.333333333 588 -124 588 c 0
 -104 588 -87 595 -73 609 c 128
 -59 623 -52 640 -52 660 c 256
 -52 680 -59 697 -73 711 c 128
 -87 725 -104 732 -124 732 c 256
 -144 732 -160.833333333 725 -174.5 711 c 128
 -188.166666667 697 -195 680 -195 660 c 0
EndSplineSet
Fore
SplineSet
-244 660 m 0
 -244 692.666666667 -232.166666667 720.833333333 -208.5 744.5 c 128
 -184.833333333 768.166666667 -156.666666667 780 -124 780 c 256
 -91.3333333333 780 -63.1666666667 768.333333333 -39.5 745 c 128
 -15.8333333333 721.666666667 -4 693.333333333 -4 660 c 0
 -4 627.333333333 -15.6666666667 599.166666667 -39 575.5 c 128
 -62.3333333333 551.833333333 -90.6666666667 540 -124 540 c 0
 -156.666666667 540 -184.833333333 551.833333333 -208.5 575.5 c 128
 -232.166666667 599.166666667 -244 627.333333333 -244 660 c 0
-195 660 m 0
 -195 640 -188 623 -174 609 c 128
 -160 595 -143.333333333 588 -124 588 c 0
 -104 588 -87 595 -73 609 c 128
 -59 623 -52 640 -52 660 c 256
 -52 680 -59 697 -73 711 c 128
 -87 725 -104 732 -124 732 c 256
 -144 732 -160.833333333 725 -174.5 711 c 128
 -188.166666667 697 -195 680 -195 660 c 0
EndSplineSet
Colour: ffffff
EndChar

StartChar: dottedcircle
Encoding: 364 9676 108
GlifName: dottedcircle
Width: 743
Flags: HW
LayerCount: 4
Back
SplineSet
340 489 m 0
 340 497.666666667 342.833333333 505.166666667 348.5 511.5 c 128
 354.166666667 517.833333333 361.666666667 521 371 521 c 256
 380.333333333 521 387.833333333 517.833333333 393.5 511.5 c 128
 399.166666667 505.166666667 402 497.666666667 402 489 c 0
 402 479.666666667 399.166666667 472.333333333 393.5 467 c 128
 387.833333333 461.666666667 380.333333333 459 371 459 c 256
 361.666666667 459 354.166666667 461.833333333 348.5 467.5 c 128
 342.833333333 473.166666667 340 480.333333333 340 489 c 0
245 473 m 256
 245 482.333333333 248.333333333 489.833333333 255 495.5 c 128
 261.666666667 501.166666667 269 504 277 504 c 0
 286.333333333 504 293.833333333 501 299.5 495 c 128
 305.166666667 489 308 481.666666667 308 473 c 256
 308 463.666666667 305.166666667 456 299.5 450 c 128
 293.833333333 444 286.333333333 441 277 441 c 0
 268.333333333 441 260.833333333 444 254.5 450 c 128
 248.166666667 456 245 463.666666667 245 473 c 256
437 473 m 256
 437 482.333333333 439.666666667 489.833333333 445 495.5 c 128
 450.333333333 501.166666667 457.666666667 504 467 504 c 0
 477 504 484.833333333 501.166666667 490.5 495.5 c 128
 496.166666667 489.833333333 499 482.333333333 499 473 c 256
 499 463.666666667 496 456 490 450 c 128
 484 444 476.333333333 441 467 441 c 0
 457.666666667 441 450.333333333 444 445 450 c 128
 439.666666667 456 437 463.666666667 437 473 c 256
163 419 m 256
 163 428.333333333 166.166666667 436 172.5 442 c 128
 178.833333333 448 186.333333333 451 195 451 c 256
 204.333333333 451 211.833333333 448.166666667 217.5 442.5 c 128
 223.166666667 436.833333333 226 429 226 419 c 256
 226 409 223.166666667 401.333333333 217.5 396 c 128
 211.833333333 390.666666667 204.333333333 388 195 388 c 256
 185.666666667 388 178 390.833333333 172 396.5 c 128
 166 402.166666667 163 409.666666667 163 419 c 256
518 419 m 256
 518 429 520.833333333 436.833333333 526.5 442.5 c 128
 532.166666667 448.166666667 539.333333333 451 548 451 c 0
 558 451 566 448 572 442 c 128
 578 436 581 428.333333333 581 419 c 256
 581 409.666666667 577.833333333 402.166666667 571.5 396.5 c 128
 565.166666667 390.833333333 557.333333333 388 548 388 c 0
 539.333333333 388 532.166666667 390.666666667 526.5 396 c 128
 520.833333333 401.333333333 518 409 518 419 c 256
113 335 m 256
 113 344.333333333 116 351.833333333 122 357.5 c 128
 128 363.166666667 135.666666667 366 145 366 c 0
 155 366 162.5 363.166666667 167.5 357.5 c 128
 172.5 351.833333333 175 344.333333333 175 335 c 256
 175 325.666666667 172.333333333 318.166666667 167 312.5 c 128
 161.666666667 306.833333333 154.333333333 304 145 304 c 0
 135.666666667 304 128 306.833333333 122 312.5 c 128
 116 318.166666667 113 325.666666667 113 335 c 256
569 335 m 256
 569 344.333333333 571.833333333 351.833333333 577.5 357.5 c 128
 583.166666667 363.166666667 590.666666667 366 600 366 c 256
 609.333333333 366 616.833333333 363.166666667 622.5 357.5 c 128
 628.166666667 351.833333333 631 344.333333333 631 335 c 256
 631 325.666666667 628 318.166666667 622 312.5 c 128
 616 306.833333333 608.666666667 304 600 304 c 256
 590.666666667 304 583.166666667 306.833333333 577.5 312.5 c 128
 571.833333333 318.166666667 569 325.666666667 569 335 c 256
98 243 m 256
 98 252.333333333 101 260 107 266 c 128
 113 272 120.333333333 275 129 275 c 0
 138.333333333 275 145.833333333 272 151.5 266 c 128
 157.166666667 260 160 252.333333333 160 243 c 256
 160 233.666666667 157.166666667 226.333333333 151.5 221 c 128
 145.833333333 215.666666667 138.333333333 213 129 213 c 0
 120.333333333 213 113 215.666666667 107 221 c 128
 101 226.333333333 98 233.666666667 98 243 c 256
584 243 m 256
 584 252.333333333 586.833333333 260 592.5 266 c 128
 598.166666667 272 605.333333333 275 614 275 c 0
 624 275 631.833333333 272 637.5 266 c 128
 643.166666667 260 646 252.333333333 646 243 c 256
 646 233.666666667 643.166666667 226.333333333 637.5 221 c 128
 631.833333333 215.666666667 624 213 614 213 c 0
 604.666666667 213 597.333333333 215.666666667 592 221 c 128
 586.666666667 226.333333333 584 233.666666667 584 243 c 256
113 153 m 0
 113 162.333333333 116 170.166666667 122 176.5 c 128
 128 182.833333333 135.666666667 186 145 186 c 0
 155 186 162.5 182.833333333 167.5 176.5 c 128
 172.5 170.166666667 175 162.333333333 175 153 c 0
 175 144.333333333 172.333333333 137.166666667 167 131.5 c 128
 161.666666667 125.833333333 154.333333333 123 145 123 c 0
 135.666666667 123 128 125.833333333 122 131.5 c 128
 116 137.166666667 113 144.333333333 113 153 c 0
569 153 m 0
 569 162.333333333 571.833333333 170.166666667 577.5 176.5 c 128
 583.166666667 182.833333333 590.666666667 186 600 186 c 256
 609.333333333 186 616.833333333 182.833333333 622.5 176.5 c 128
 628.166666667 170.166666667 631 162.333333333 631 153 c 0
 631 144.333333333 628 137.166666667 622 131.5 c 128
 616 125.833333333 608.666666667 123 600 123 c 256
 590.666666667 123 583.166666667 126 577.5 132 c 128
 571.833333333 138 569 145 569 153 c 0
163 68 m 256
 163 77.3333333333 166 85.1666666667 172 91.5 c 128
 178 97.8333333333 185.333333333 101 194 101 c 256
 203.333333333 101 210.833333333 97.8333333333 216.5 91.5 c 128
 222.166666667 85.1666666667 225 77.3333333333 225 68 c 256
 225 58.6666666667 222.166666667 51.1666666667 216.5 45.5 c 128
 210.833333333 39.8333333333 203.333333333 37 194 37 c 256
 184.666666667 37 177.166666667 39.8333333333 171.5 45.5 c 128
 165.833333333 51.1666666667 163 58.6666666667 163 68 c 256
520 68 m 256
 520 77.3333333333 522.666666667 85.1666666667 528 91.5 c 128
 533.333333333 97.8333333333 540.666666667 101 550 101 c 256
 559.333333333 101 566.833333333 97.8333333333 572.5 91.5 c 128
 578.166666667 85.1666666667 581 77.3333333333 581 68 c 256
 581 58.6666666667 578 51.1666666667 572 45.5 c 128
 566 39.8333333333 558.666666667 37 550 37 c 256
 540.666666667 37 533.333333333 40 528 46 c 128
 522.666666667 52 520 59.3333333333 520 68 c 256
245 16 m 0
 245 26 248.333333333 33.8333333333 255 39.5 c 128
 261.666666667 45.1666666667 269 48 277 48 c 0
 286.333333333 48 293.833333333 45 299.5 39 c 128
 305.166666667 33 308 25.3333333333 308 16 c 0
 308 7.33333333333 305.166666667 0 299.5 -6 c 128
 293.833333333 -12 286.333333333 -15 277 -15 c 0
 268.333333333 -15 260.833333333 -12 254.5 -6 c 128
 248.166666667 0 245 7.33333333333 245 16 c 0
437 16 m 0
 437 26 439.666666667 33.8333333333 445 39.5 c 128
 450.333333333 45.1666666667 457.666666667 48 467 48 c 0
 477 48 484.833333333 45.1666666667 490.5 39.5 c 128
 496.166666667 33.8333333333 499 26 499 16 c 0
 499 7.33333333333 496 0 490 -6 c 128
 484 -12 476.333333333 -15 467 -15 c 0
 457.666666667 -15 450.333333333 -12 445 -6 c 128
 439.666666667 0 437 7.33333333333 437 16 c 0
340 -1 m 0
 340 9 342.833333333 16.8333333333 348.5 22.5 c 128
 354.166666667 28.1666666667 361.666666667 31 371 31 c 256
 380.333333333 31 387.833333333 28.1666666667 393.5 22.5 c 128
 399.166666667 16.8333333333 402 9 402 -1 c 0
 402 -10.3333333333 399.166666667 -17.6666666667 393.5 -23 c 128
 387.833333333 -28.3333333333 380.333333333 -31 371 -31 c 256
 361.666666667 -31 354.166666667 -28.3333333333 348.5 -23 c 128
 342.833333333 -17.6666666667 340 -10.3333333333 340 -1 c 0
EndSplineSet
Fore
SplineSet
340 489 m 0
 340 497.666666667 342.833333333 505.166666667 348.5 511.5 c 128
 354.166666667 517.833333333 361.666666667 521 371 521 c 256
 380.333333333 521 387.833333333 517.833333333 393.5 511.5 c 128
 399.166666667 505.166666667 402 497.666666667 402 489 c 0
 402 479.666666667 399.166666667 472.333333333 393.5 467 c 128
 387.833333333 461.666666667 380.333333333 459 371 459 c 256
 361.666666667 459 354.166666667 461.833333333 348.5 467.5 c 128
 342.833333333 473.166666667 340 480.333333333 340 489 c 0
245 473 m 256
 245 482.333333333 248.333333333 489.833333333 255 495.5 c 128
 261.666666667 501.166666667 269 504 277 504 c 0
 286.333333333 504 293.833333333 501 299.5 495 c 128
 305.166666667 489 308 481.666666667 308 473 c 256
 308 463.666666667 305.166666667 456 299.5 450 c 128
 293.833333333 444 286.333333333 441 277 441 c 0
 268.333333333 441 260.833333333 444 254.5 450 c 128
 248.166666667 456 245 463.666666667 245 473 c 256
437 473 m 256
 437 482.333333333 439.666666667 489.833333333 445 495.5 c 128
 450.333333333 501.166666667 457.666666667 504 467 504 c 0
 477 504 484.833333333 501.166666667 490.5 495.5 c 128
 496.166666667 489.833333333 499 482.333333333 499 473 c 256
 499 463.666666667 496 456 490 450 c 128
 484 444 476.333333333 441 467 441 c 0
 457.666666667 441 450.333333333 444 445 450 c 128
 439.666666667 456 437 463.666666667 437 473 c 256
163 419 m 256
 163 428.333333333 166.166666667 436 172.5 442 c 128
 178.833333333 448 186.333333333 451 195 451 c 256
 204.333333333 451 211.833333333 448.166666667 217.5 442.5 c 128
 223.166666667 436.833333333 226 429 226 419 c 256
 226 409 223.166666667 401.333333333 217.5 396 c 128
 211.833333333 390.666666667 204.333333333 388 195 388 c 256
 185.666666667 388 178 390.833333333 172 396.5 c 128
 166 402.166666667 163 409.666666667 163 419 c 256
518 419 m 256
 518 429 520.833333333 436.833333333 526.5 442.5 c 128
 532.166666667 448.166666667 539.333333333 451 548 451 c 0
 558 451 566 448 572 442 c 128
 578 436 581 428.333333333 581 419 c 256
 581 409.666666667 577.833333333 402.166666667 571.5 396.5 c 128
 565.166666667 390.833333333 557.333333333 388 548 388 c 0
 539.333333333 388 532.166666667 390.666666667 526.5 396 c 128
 520.833333333 401.333333333 518 409 518 419 c 256
113 335 m 256
 113 344.333333333 116 351.833333333 122 357.5 c 128
 128 363.166666667 135.666666667 366 145 366 c 0
 155 366 162.5 363.166666667 167.5 357.5 c 128
 172.5 351.833333333 175 344.333333333 175 335 c 256
 175 325.666666667 172.333333333 318.166666667 167 312.5 c 128
 161.666666667 306.833333333 154.333333333 304 145 304 c 0
 135.666666667 304 128 306.833333333 122 312.5 c 128
 116 318.166666667 113 325.666666667 113 335 c 256
569 335 m 256
 569 344.333333333 571.833333333 351.833333333 577.5 357.5 c 128
 583.166666667 363.166666667 590.666666667 366 600 366 c 256
 609.333333333 366 616.833333333 363.166666667 622.5 357.5 c 128
 628.166666667 351.833333333 631 344.333333333 631 335 c 256
 631 325.666666667 628 318.166666667 622 312.5 c 128
 616 306.833333333 608.666666667 304 600 304 c 256
 590.666666667 304 583.166666667 306.833333333 577.5 312.5 c 128
 571.833333333 318.166666667 569 325.666666667 569 335 c 256
98 243 m 256
 98 252.333333333 101 260 107 266 c 128
 113 272 120.333333333 275 129 275 c 0
 138.333333333 275 145.833333333 272 151.5 266 c 128
 157.166666667 260 160 252.333333333 160 243 c 256
 160 233.666666667 157.166666667 226.333333333 151.5 221 c 128
 145.833333333 215.666666667 138.333333333 213 129 213 c 0
 120.333333333 213 113 215.666666667 107 221 c 128
 101 226.333333333 98 233.666666667 98 243 c 256
584 243 m 256
 584 252.333333333 586.833333333 260 592.5 266 c 128
 598.166666667 272 605.333333333 275 614 275 c 0
 624 275 631.833333333 272 637.5 266 c 128
 643.166666667 260 646 252.333333333 646 243 c 256
 646 233.666666667 643.166666667 226.333333333 637.5 221 c 128
 631.833333333 215.666666667 624 213 614 213 c 0
 604.666666667 213 597.333333333 215.666666667 592 221 c 128
 586.666666667 226.333333333 584 233.666666667 584 243 c 256
113 153 m 0
 113 162.333333333 116 170.166666667 122 176.5 c 128
 128 182.833333333 135.666666667 186 145 186 c 0
 155 186 162.5 182.833333333 167.5 176.5 c 128
 172.5 170.166666667 175 162.333333333 175 153 c 0
 175 144.333333333 172.333333333 137.166666667 167 131.5 c 128
 161.666666667 125.833333333 154.333333333 123 145 123 c 0
 135.666666667 123 128 125.833333333 122 131.5 c 128
 116 137.166666667 113 144.333333333 113 153 c 0
569 153 m 0
 569 162.333333333 571.833333333 170.166666667 577.5 176.5 c 128
 583.166666667 182.833333333 590.666666667 186 600 186 c 256
 609.333333333 186 616.833333333 182.833333333 622.5 176.5 c 128
 628.166666667 170.166666667 631 162.333333333 631 153 c 0
 631 144.333333333 628 137.166666667 622 131.5 c 128
 616 125.833333333 608.666666667 123 600 123 c 256
 590.666666667 123 583.166666667 126 577.5 132 c 128
 571.833333333 138 569 145 569 153 c 0
163 68 m 256
 163 77.3333333333 166 85.1666666667 172 91.5 c 128
 178 97.8333333333 185.333333333 101 194 101 c 256
 203.333333333 101 210.833333333 97.8333333333 216.5 91.5 c 128
 222.166666667 85.1666666667 225 77.3333333333 225 68 c 256
 225 58.6666666667 222.166666667 51.1666666667 216.5 45.5 c 128
 210.833333333 39.8333333333 203.333333333 37 194 37 c 256
 184.666666667 37 177.166666667 39.8333333333 171.5 45.5 c 128
 165.833333333 51.1666666667 163 58.6666666667 163 68 c 256
520 68 m 256
 520 77.3333333333 522.666666667 85.1666666667 528 91.5 c 128
 533.333333333 97.8333333333 540.666666667 101 550 101 c 256
 559.333333333 101 566.833333333 97.8333333333 572.5 91.5 c 128
 578.166666667 85.1666666667 581 77.3333333333 581 68 c 256
 581 58.6666666667 578 51.1666666667 572 45.5 c 128
 566 39.8333333333 558.666666667 37 550 37 c 256
 540.666666667 37 533.333333333 40 528 46 c 128
 522.666666667 52 520 59.3333333333 520 68 c 256
245 16 m 0
 245 26 248.333333333 33.8333333333 255 39.5 c 128
 261.666666667 45.1666666667 269 48 277 48 c 0
 286.333333333 48 293.833333333 45 299.5 39 c 128
 305.166666667 33 308 25.3333333333 308 16 c 0
 308 7.33333333333 305.166666667 0 299.5 -6 c 128
 293.833333333 -12 286.333333333 -15 277 -15 c 0
 268.333333333 -15 260.833333333 -12 254.5 -6 c 128
 248.166666667 0 245 7.33333333333 245 16 c 0
437 16 m 0
 437 26 439.666666667 33.8333333333 445 39.5 c 128
 450.333333333 45.1666666667 457.666666667 48 467 48 c 0
 477 48 484.833333333 45.1666666667 490.5 39.5 c 128
 496.166666667 33.8333333333 499 26 499 16 c 0
 499 7.33333333333 496 0 490 -6 c 128
 484 -12 476.333333333 -15 467 -15 c 0
 457.666666667 -15 450.333333333 -12 445 -6 c 128
 439.666666667 0 437 7.33333333333 437 16 c 0
340 -1 m 0
 340 9 342.833333333 16.8333333333 348.5 22.5 c 128
 354.166666667 28.1666666667 361.666666667 31 371 31 c 256
 380.333333333 31 387.833333333 28.1666666667 393.5 22.5 c 128
 399.166666667 16.8333333333 402 9 402 -1 c 0
 402 -10.3333333333 399.166666667 -17.6666666667 393.5 -23 c 128
 387.833333333 -28.3333333333 380.333333333 -31 371 -31 c 256
 361.666666667 -31 354.166666667 -28.3333333333 348.5 -23 c 128
 342.833333333 -17.6666666667 340 -10.3333333333 340 -1 c 0
EndSplineSet
Colour: ffffff
EndChar

StartChar: zerowidthjoiner
Encoding: 365 65279 109
GlifName: zerowidthjoiner
Width: 0
Flags: HW
LayerCount: 4
Back
SplineSet
-21 10 m 1
 -21 928 l 1
 21 928 l 1
 21 10 l 1
 -21 10 l 1
EndSplineSet
Fore
SplineSet
-21 10 m 1
 -21 928 l 1
 21 928 l 1
 21 10 l 1
 -21 10 l 1
EndSplineSet
Colour: ffffff
EndChar

StartChar: zerowidthnonjoiner
Encoding: 366 8204 110
GlifName: zerowidthnonjoiner
Width: 0
Flags: HW
LayerCount: 4
Back
SplineSet
-80 854 m 5
 -28 906 l 5
 -80 958 l 5
 -52 986 l 5
 0 935 l 5
 51 986 l 5
 80 958 l 5
 26 906 l 5
 80 854 l 5
 53 826 l 5
 21 857 l 5
 21 10 l 5
 -21 10 l 5
 -21 857 l 5
 -53 826 l 5
 -80 854 l 5
EndSplineSet
Fore
SplineSet
-80 854 m 5
 -28 906 l 5
 -80 958 l 5
 -52 986 l 5
 0 935 l 5
 51 986 l 5
 80 958 l 5
 26 906 l 5
 80 854 l 5
 53 826 l 5
 21 857 l 5
 21 10 l 5
 -21 10 l 5
 -21 857 l 5
 -53 826 l 5
 -80 854 l 5
EndSplineSet
Colour: ffffff
EndChar

StartChar: tml_MatraI.alt1
Encoding: 370 -1 114
GlifName: tml_M_atraI_.alt1
Width: 303
Flags: HW
LayerCount: 4
Back
SplineSet
-320 474 m 1
 -322.19404318 695.504744637 -216.262373965 839 -81 839 c 0
 57.5975242821 839 136 738.494891159 136 586 c 2
 136 0 l 1
 72 0 l 1
 72 536 l 2
 72.8617111132 679.996083164 13.9560546875 744 -96 744 c 0
 -188.702148438 744 -250 620.849780494 -250 484 c 1
 -320 474 l 1
EndSplineSet
Fore
SplineSet
-382 633.162109375 m 0
 -382 765.187903743 -253.715256727 850 -126 850 c 0
 77.3868789629 850 223.553426176 721.023835601 222 506 c 2
 219.825195312 146 l 1
 217 0 l 1
 97 0 l 1
 99.1618121455 51.5452287722 100.60856918 105.674669623 101 150 c 1
 104 475 l 2
 106.060310543 648.972240739 -4.98612396559 705 -136 705 c 0
 -220.621221332 705 -299.895305719 672.802758514 -300.7421875 591 c 0
 -300.956128726 570.334798724 -284.074324719 496.368557613 -152 494 c 1
 -154 428 l 1
 -307.666402743 431.288519937 -382 539.663482246 -382 633.162109375 c 0
EndSplineSet
Colour: ff0000
EndChar

StartChar: tml_MatraI.alt2
Encoding: 371 -1 115
GlifName: tml_M_atraI_.alt2
Width: 312
Flags: HW
LayerCount: 4
Back
SplineSet
-294 701 m 4
 -296.220883604 801.191054389 -216.327651028 901 -93 901 c 4
 42.073084379 901 125.743826918 792.870501143 125 617 c 6
 122.825195312 146 l 5
 120 0 l 5
 59 0 l 5
 61.7022651819 52.9197682061 63.5107114754 108.492660813 64 154 c 5
 67 586 l 6
 68.1334619201 749.218516492 -12.0874501962 815 -106 815 c 4
 -182.449174361 815 -233 766.247909693 -233 689 c 4
 -233 591.611894029 -184.893595462 541.610911475 -169 513.166992188 c 4
 -198 504 l 5
 -233.441004747 527.930335516 -292.110697592 588.244660971 -294 701 c 4
EndSplineSet
Fore
SplineSet
-312 703.162109375 m 0
 -312 838.489554914 -217.193249811 940 -66 940 c 0
 81.8645987862 940 187.93712491 829.396250309 187 645 c 6
 184.825195312 146 l 1
 182 0 l 1
 48 0 l 1
 52.323624291 68.7269716963 55.21713836 140.899559497 56 200 c 1
 59 594 l 6
 60.1066373242 706.705001645 -14.8855582478 743 -91 743 c 0
 -150.451955899 743 -206.589106112 708.515603273 -206.7421875 649 c 0
 -206.852714217 601.030699095 -180.944022932 548.542777646 -155 534 c 1
 -187 488 l 1
 -255.378308468 503.732407689 -312 605.106177419 -312 703.162109375 c 0
EndSplineSet
Colour: ff00
EndChar

StartChar: tml_MatraI.alt3
Encoding: 372 -1 116
GlifName: tml_M_atraI_.alt3
Width: 224
Flags: HW
LayerCount: 4
Back
SplineSet
-374 630 m 0
 -372.162977831 763.682972301 -243.174354244 840 -123 840 c 0
 47.5319797778 840 144 739.495117188 144 587 c 2
 144 0 l 1
 84 0 l 1
 84 537 l 1
 85.0873803491 680.99609375 10.7538358671 745 -128 745 c 0
 -216.813018718 745 -309.202483375 704.981445312 -312.1640625 623 c 0
 -313.169921875 576.107421875 -288.526367188 534.233398438 -171 531 c 1
 -172 481 l 1
 -296.986328125 479.869435701 -375.373046875 526.05089366 -374 630 c 0
EndSplineSet
Fore
SplineSet
-374 630 m 0
 -372.162977831 763.682972301 -243.174354244 840 -123 840 c 0
 47.5319797778 840 144 739.495117188 144 587 c 2
 144 0 l 1
 84 0 l 1
 84 537 l 1
 85.0873803491 680.99609375 10.7538358671 745 -128 745 c 0
 -216.813018718 745 -309.202483375 704.981445312 -312.1640625 623 c 0
 -313.169921875 576.107421875 -288.526367188 534.233398438 -171 531 c 1
 -172 481 l 1
 -296.986328125 479.869435701 -375.373046875 526.05089366 -374 630 c 0
EndSplineSet
Colour: ff0000
EndChar

StartChar: tml_MatraI.alt4
Encoding: 373 -1 117
GlifName: tml_M_atraI_.alt4
Width: 326
Flags: HW
LayerCount: 4
Back
SplineSet
-433 647 m 4
 -435.740194696 758.843920206 -325.355936165 850 -185 850 c 4
 -3.82203310779 850 125 727.02599651 125 527 c 6
 122.825195312 146 l 5
 120 0 l 5
 60 0 l 5
 62.1618121455 51.5452287722 63.6085691803 105.674669623 64 150 c 5
 67 496 l 6
 69.2982040134 707.035419384 -48.2599098126 775 -194 775 c 4
 -308.974742543 775 -385 725.474066991 -385 647 c 4
 -385 603.398012342 -358.758792761 549.96001685 -302 547 c 5
 -338 520 l 5
 -387.357541899 520 -431.051442868 574.317161127 -433 647 c 4
EndSplineSet
Fore
SplineSet
-433 647 m 0
 -435.740194696 758.843920206 -325.355936165 850 -185 850 c 0
 66.3113734311 850 245 727.02599651 245 527 c 2
 242.825195312 146 l 1
 240 0 l 1
 120 0 l 1
 122.161812145 51.5452287722 123.60856918 105.674669623 124 150 c 1
 127 496 l 2
 129.826526775 669.215451752 -14.756440804 725 -194 725 c 0
 -308.974742543 725 -385 694.820134573 -385 647 c 0
 -385 603.398012342 -358.758792761 549.96001685 -302 547 c 1
 -338 520 l 1
 -387.357541899 520 -431.051442868 574.317161127 -433 647 c 0
EndSplineSet
Substitution2: "Single Substitution lookup 24 subtable" tml_MatraI.stylalt1
Colour: ff0000
EndChar

StartChar: tml_MatraI.alt5
Encoding: 374 -1 118
GlifName: tml_M_atraI_.alt5
Width: 206
Flags: HW
LayerCount: 4
Back
SplineSet
-433 647 m 4
 -435.740194696 758.843920206 -325.355936165 850 -185 850 c 4
 -3.82203310779 850 125 727.02599651 125 527 c 6
 122.825195312 146 l 5
 120 0 l 5
 60 0 l 5
 62.1618121455 51.5452287722 63.6085691803 105.674669623 64 150 c 5
 67 496 l 6
 69.2982040134 707.035419384 -48.2599098126 775 -194 775 c 4
 -308.974742543 775 -385 725.474066991 -385 647 c 4
 -385 603.398012342 -358.758792761 549.96001685 -302 547 c 5
 -338 520 l 5
 -387.357541899 520 -431.051442868 574.317161127 -433 647 c 4
EndSplineSet
Fore
SplineSet
-433 647 m 4
 -435.740194696 758.843920206 -325.355936165 850 -185 850 c 4
 -3.82203310779 850 125 727.02599651 125 527 c 6
 122.825195312 146 l 5
 120 0 l 5
 60 0 l 5
 62.1618121455 51.5452287722 63.6085691803 105.674669623 64 150 c 5
 67 496 l 6
 69.2982040134 707.035419384 -48.2599098126 775 -194 775 c 4
 -308.974742543 775 -385 725.474066991 -385 647 c 4
 -385 603.398012342 -358.758792761 549.96001685 -302 547 c 5
 -338 520 l 5
 -387.357541899 520 -431.051442868 574.317161127 -433 647 c 4
EndSplineSet
Substitution2: "Single Substitution lookup 24 subtable" tml_MatraI.stylalt1
Colour: ff0000
EndChar

StartChar: tml_MatraI.alt6
Encoding: 375 -1 119
GlifName: tml_M_atraI_.alt6
Width: 206
Flags: HW
LayerCount: 4
Back
SplineSet
-503 644 m 4
 -505.740234375 769.84375 -370.35546875 854 -230 854 c 4
 -18.822265625 854 125 727.02599651 125 527 c 2
 122.825195312 146 l 1
 120 0 l 1
 60 0 l 1
 62.1618121455 51.5452287722 63.6085691803 105.674669623 64 150 c 1
 67 496 l 2
 69.2982040134 707.035419384 -73.259765625 779 -239 779 c 4
 -363.974609375 779 -455 722.473632812 -455 644 c 0
 -455 600.3984375 -433.758789062 555.959960938 -377 553 c 1
 -413 526 l 1
 -462.357421875 526 -501.417148546 571.30842134 -503 644 c 4
EndSplineSet
Fore
SplineSet
-503 644 m 4
 -505.740234375 769.84375 -370.35546875 854 -230 854 c 4
 -18.822265625 854 125 727.02599651 125 527 c 2
 122.825195312 146 l 1
 120 0 l 1
 60 0 l 1
 62.1618121455 51.5452287722 63.6085691803 105.674669623 64 150 c 1
 67 496 l 2
 69.2982040134 707.035419384 -73.259765625 779 -239 779 c 4
 -363.974609375 779 -455 722.473632812 -455 644 c 0
 -455 600.3984375 -433.758789062 555.959960938 -377 553 c 1
 -413 526 l 1
 -462.357421875 526 -501.417148546 571.30842134 -503 644 c 4
EndSplineSet
Colour: ff0000
EndChar

StartChar: tml_MatraI.alt7
Encoding: 376 -1 120
GlifName: tml_M_atraI_.alt7
Width: 303
Flags: HW
LayerCount: 4
Back
SplineSet
-352 633.162109375 m 4
 -352 765.187903743 -238.748625079 850 -126 850 c 4
 42.3201756934 850 163.285594077 721.023835601 162 506 c 6
 159.825195312 146 l 5
 157 0 l 5
 97 0 l 5
 99.1618121455 51.5452287722 100.60856918 105.674669623 101 150 c 5
 104 475 l 6
 106.060310543 701.920314007 -4.98612396559 775 -136 775 c 4
 -220.621221332 775 -299.895305719 721.698221281 -300.7421875 631 c 4
 -301.044751279 601.814630502 -284.074324719 497.345282402 -152 494 c 5
 -154 448 l 5
 -287.447139224 450.967942229 -352 548.778091899 -352 633.162109375 c 4
EndSplineSet
Fore
SplineSet
-382 633.162109375 m 0
 -382 765.187903743 -253.715256727 850 -126 850 c 0
 77.3868789629 850 223.553426176 721.023835601 222 506 c 2
 219.825195312 146 l 1
 217 0 l 1
 97 0 l 1
 99.1618121455 51.5452287722 100.60856918 105.674669623 101 150 c 1
 104 475 l 2
 106.060310543 648.972240739 -4.98612396559 705 -136 705 c 0
 -220.621221332 705 -299.895305719 672.802758514 -300.7421875 591 c 0
 -300.956128726 570.334798724 -284.074324719 496.368557613 -152 494 c 1
 -154 428 l 1
 -307.666402743 431.288519937 -382 539.663482246 -382 633.162109375 c 0
EndSplineSet
Colour: ffffff
EndChar

